<?xml version="1.0" encoding="UTF-8" standalone="no"?>
<!-- Created with Inkscape (http://www.inkscape.org/) -->

<svg
   xmlns:dc="http://purl.org/dc/elements/1.1/"
   xmlns:cc="http://creativecommons.org/ns#"
   xmlns:rdf="http://www.w3.org/1999/02/22-rdf-syntax-ns#"
   xmlns:svg="http://www.w3.org/2000/svg"
   xmlns="http://www.w3.org/2000/svg"
   xmlns:sodipodi="http://sodipodi.sourceforge.net/DTD/sodipodi-0.dtd"
   xmlns:inkscape="http://www.inkscape.org/namespaces/inkscape"
   width="70.933044mm"
   height="26.606001mm"
   viewBox="0 0 70.933044 26.606001"
   version="1.1"
   id="svg8"
   inkscape:version="0.92.2 5c3e80d, 2017-08-06"
   sodipodi:docname="coneex.svg">
  <sodipodi:namedview
     id="base"
     pagecolor="#ffffff"
     bordercolor="#666666"
     borderopacity="1.0"
     inkscape:pageopacity="0.0"
     inkscape:pageshadow="2"
     inkscape:zoom="2.8"
     inkscape:cx="132.06347"
     inkscape:cy="43.944572"
     inkscape:document-units="mm"
     inkscape:current-layer="layer1"
     showgrid="true"
     inkscape:window-width="1680"
     inkscape:window-height="1005"
     inkscape:window-x="0"
     inkscape:window-y="1"
     inkscape:window-maximized="1"
     fit-margin-top="0"
     fit-margin-left="0"
     fit-margin-right="0"
     fit-margin-bottom="0"
     showguides="false"
     inkscape:snap-global="true" />
  <defs
     id="defs2">
    <marker
       inkscape:stockid="Arrow1Lend"
       orient="auto"
       refY="0"
       refX="0"
       id="marker2507"
       style="overflow:visible"
       inkscape:isstock="true">
      <path
         id="path2505"
         d="M 0,0 5,-5 -12.5,0 5,5 Z"
         style="fill:#000000;fill-opacity:1;fill-rule:evenodd;stroke:#000000;stroke-width:1.00000003pt;stroke-opacity:1"
         transform="matrix(-0.8,0,0,-0.8,-10,0)"
         inkscape:connector-curvature="0" />
    </marker>
    <marker
       inkscape:isstock="true"
       style="overflow:visible"
       id="marker1168"
       refX="0"
       refY="0"
       orient="auto"
       inkscape:stockid="Arrow1Lend">
      <path
         transform="matrix(-0.8,0,0,-0.8,-10,0)"
         style="fill:#000000;fill-opacity:1;fill-rule:evenodd;stroke:#000000;stroke-width:1.00000003pt;stroke-opacity:1"
         d="M 0,0 5,-5 -12.5,0 5,5 Z"
         id="path908"
         inkscape:connector-curvature="0" />
    </marker>
    <marker
       inkscape:stockid="Arrow1Lend"
       orient="auto"
       refY="0"
       refX="0"
       id="marker1386"
       style="overflow:visible"
       inkscape:isstock="true">
      <path
         inkscape:connector-curvature="0"
         id="path1384"
         d="M 0,0 5,-5 -12.5,0 5,5 Z"
         style="fill:#181818;fill-opacity:1;fill-rule:evenodd;stroke:#181818;stroke-width:1.00000003pt;stroke-opacity:1"
         transform="matrix(-0.8,0,0,-0.8,-10,0)" />
    </marker>
    <marker
       inkscape:stockid="Arrow1Lstart"
       orient="auto"
       refY="0"
       refX="0"
       id="marker1382"
       style="overflow:visible"
       inkscape:isstock="true">
      <path
         inkscape:connector-curvature="0"
         id="path1380"
         d="M 0,0 5,-5 -12.5,0 5,5 Z"
         style="fill:#181818;fill-opacity:1;fill-rule:evenodd;stroke:#181818;stroke-width:1.00000003pt;stroke-opacity:1"
         transform="matrix(0.8,0,0,0.8,10,0)" />
    </marker>
    <marker
       inkscape:stockid="Arrow1Lend"
       orient="auto"
       refY="0"
       refX="0"
       id="marker1349"
       style="overflow:visible"
       inkscape:isstock="true">
      <path
         inkscape:connector-curvature="0"
         id="path1347"
         d="M 0,0 5,-5 -12.5,0 5,5 Z"
         style="fill:#181818;fill-opacity:1;fill-rule:evenodd;stroke:#181818;stroke-width:1.00000003pt;stroke-opacity:1"
         transform="matrix(-0.8,0,0,-0.8,-10,0)" />
    </marker>
    <marker
       inkscape:stockid="Arrow1Lstart"
       orient="auto"
       refY="0"
       refX="0"
       id="marker1345"
       style="overflow:visible"
       inkscape:isstock="true">
      <path
         inkscape:connector-curvature="0"
         id="path1343"
         d="M 0,0 5,-5 -12.5,0 5,5 Z"
         style="fill:#181818;fill-opacity:1;fill-rule:evenodd;stroke:#181818;stroke-width:1.00000003pt;stroke-opacity:1"
         transform="matrix(0.8,0,0,0.8,10,0)" />
    </marker>
    <marker
       inkscape:isstock="true"
       style="overflow:visible"
       id="marker1331"
       refX="0"
       refY="0"
       orient="auto"
       inkscape:stockid="Arrow1Mstart">
      <path
         inkscape:connector-curvature="0"
         transform="matrix(0.4,0,0,0.4,4,0)"
         style="fill:#181818;fill-opacity:1;fill-rule:evenodd;stroke:#181818;stroke-width:1.00000003pt;stroke-opacity:1"
         d="M 0,0 5,-5 -12.5,0 5,5 Z"
         id="path1060" />
    </marker>
    <marker
       inkscape:isstock="true"
       style="overflow:visible"
       id="Arrow1Lstart"
       refX="0"
       refY="0"
       orient="auto"
       inkscape:stockid="Arrow1Lstart">
      <path
         inkscape:connector-curvature="0"
         transform="matrix(0.8,0,0,0.8,10,0)"
         style="fill:#181818;fill-opacity:1;fill-rule:evenodd;stroke:#181818;stroke-width:1.00000003pt;stroke-opacity:1"
         d="M 0,0 5,-5 -12.5,0 5,5 Z"
         id="path1054" />
    </marker>
    <marker
       inkscape:isstock="true"
       style="overflow:visible"
       id="Arrow1Lend"
       refX="0"
       refY="0"
       orient="auto"
       inkscape:stockid="Arrow1Lend"
       inkscape:collect="always">
      <path
         inkscape:connector-curvature="0"
         transform="matrix(-0.8,0,0,-0.8,-10,0)"
         style="fill:#000000;fill-opacity:1;fill-rule:evenodd;stroke:#000000;stroke-width:1.00000003pt;stroke-opacity:1"
         d="M 0,0 5,-5 -12.5,0 5,5 Z"
         id="path1057" />
    </marker>
    <marker
       inkscape:isstock="true"
       style="overflow:visible"
       id="marker5010"
       refX="0"
       refY="0"
       orient="auto"
       inkscape:stockid="Arrow1Mend">
      <path
         inkscape:connector-curvature="0"
         transform="matrix(-0.4,0,0,-0.4,-4,0)"
         style="fill:#000000;fill-opacity:1;fill-rule:evenodd;stroke:#000000;stroke-width:1.00000003pt;stroke-opacity:1"
         d="M 0,0 5,-5 -12.5,0 5,5 Z"
         id="path5008" />
    </marker>
    <marker
       inkscape:isstock="true"
       style="overflow:visible"
       id="marker4902"
       refX="0"
       refY="0"
       orient="auto"
       inkscape:stockid="Arrow1Mend">
      <path
         inkscape:connector-curvature="0"
         transform="matrix(-0.4,0,0,-0.4,-4,0)"
         style="fill:#000000;fill-opacity:1;fill-rule:evenodd;stroke:#000000;stroke-width:1.00000003pt;stroke-opacity:1"
         d="M 0,0 5,-5 -12.5,0 5,5 Z"
         id="path4900" />
    </marker>
    <marker
       inkscape:isstock="true"
       style="overflow:visible"
       id="Arrow1Mstart"
       refX="0"
       refY="0"
       orient="auto"
       inkscape:stockid="Arrow1Mstart">
      <path
         inkscape:connector-curvature="0"
         transform="matrix(0.4,0,0,0.4,4,0)"
         style="fill:#000000;fill-opacity:1;fill-rule:evenodd;stroke:#000000;stroke-width:1.00000003pt;stroke-opacity:1"
         d="M 0,0 5,-5 -12.5,0 5,5 Z"
         id="path4516" />
    </marker>
    <marker
       inkscape:isstock="true"
       style="overflow:visible"
       id="Arrow1Sstart"
       refX="0"
       refY="0"
       orient="auto"
       inkscape:stockid="Arrow1Sstart">
      <path
         inkscape:connector-curvature="0"
         transform="matrix(0.2,0,0,0.2,1.2,0)"
         style="fill:#000000;fill-opacity:1;fill-rule:evenodd;stroke:#000000;stroke-width:1.00000003pt;stroke-opacity:1"
         d="M 0,0 5,-5 -12.5,0 5,5 Z"
         id="path4522" />
    </marker>
  </defs>
  <metadata
     id="metadata5">
    <rdf:RDF>
      <cc:Work
         rdf:about="">
        <dc:format>image/svg+xml</dc:format>
        <dc:type
           rdf:resource="http://purl.org/dc/dcmitype/StillImage" />
        <dc:title></dc:title>
      </cc:Work>
    </rdf:RDF>
  </metadata>
  <g
     transform="translate(-56.856961,-58.932841)"
     id="layer1"
     inkscape:groupmode="layer"
     inkscape:label="Layer 1">
    <path
       inkscape:connector-curvature="0"
       id="path903"
       d="M 120.84853,69.046932 V 59.904633"
       style="opacity:1;vector-effect:none;fill:none;fill-opacity:1;fill-rule:evenodd;stroke:#000000;stroke-width:0.1;stroke-linecap:round;stroke-linejoin:miter;stroke-miterlimit:4;stroke-dasharray:none;stroke-dashoffset:0;stroke-opacity:1;marker-end:url(#Arrow1Lend)" />
    <text
       xml:space="preserve"
       style="font-style:normal;font-variant:normal;font-weight:normal;font-stretch:normal;font-size:2.11666656px;line-height:125%;font-family:sans-serif;-inkscape-font-specification:sans-serif;letter-spacing:0px;word-spacing:0px;fill:#000000;fill-opacity:1;stroke:none;stroke-width:0.26458332px;stroke-linecap:butt;stroke-linejoin:miter;stroke-opacity:1"
       x="85.507576"
       y="85.098557"
       id="text4345"><tspan
         sodipodi:role="line"
         x="85.507576"
         y="85.098557"
         id="tspan4343"
         style="stroke-width:0.26458332px"><tspan
           x="85.507576"
           y="85.098557"
           id="tspan4341"
           style="stroke-width:0.26458332px">Sphere/point Light</tspan></tspan></text>
    <path
       style="opacity:1;vector-effect:none;fill:none;fill-opacity:1;fill-rule:evenodd;stroke:#898989;stroke-width:0.1;stroke-linecap:round;stroke-linejoin:miter;stroke-miterlimit:4;stroke-dasharray:none;stroke-dashoffset:0;stroke-opacity:1"
       d="m 120.84853,69.046932 -6.20299,-7.465029"
       id="path1362"
       inkscape:connector-curvature="0" />
    <path
       inkscape:connector-curvature="0"
       id="path1360"
       d="m 120.84853,69.046932 6.20299,-7.465029"
       style="opacity:1;vector-effect:none;fill:none;fill-opacity:1;fill-rule:evenodd;stroke:#898989;stroke-width:0.1;stroke-linecap:round;stroke-linejoin:miter;stroke-miterlimit:4;stroke-dasharray:none;stroke-dashoffset:0;stroke-opacity:1" />
    <path
       id="path883"
       transform="matrix(0.26458333,0,0,0.26458333,53.298912,56.094128)"
       d="m 55.306641,10.917969 a 41.668792,41.668792 0 0 0 -41.669922,41.667969 41.668792,41.668792 0 0 0 0.04492,1.263671 c 1.465383,9.626837 19.535486,17.234375 41.625,17.234375 21.972794,0 39.965697,-7.527446 41.597656,-17.082031 a 41.668792,41.668792 0 0 0 0.07031,-1.416015 41.668792,41.668792 0 0 0 -41.667968,-41.667969 z"
       style="opacity:1;fill:#c7c7c7;fill-opacity:0.5308057;stroke:#181818;stroke-width:0.37795275;stroke-linecap:round;stroke-miterlimit:4;stroke-dasharray:none;stroke-dashoffset:0;stroke-opacity:1"
       inkscape:connector-curvature="0" />
    <ellipse
       ry="0.14174107"
       rx="0.33072916"
       cy="59.876282"
       cx="67.93187"
       id="path889"
       style="opacity:1;fill:#6d6d6d;fill-opacity:1;stroke:none;stroke-width:0.1;stroke-linecap:round;stroke-miterlimit:4;stroke-dasharray:none;stroke-dashoffset:0;stroke-opacity:1" />
    <circle
       r="9.8746281"
       cy="69.023308"
       cx="94.262077"
       id="path891"
       style="opacity:1;fill:#5f5f5f;fill-opacity:0.5308057;stroke:#181818;stroke-width:0.1;stroke-linecap:round;stroke-miterlimit:4;stroke-dasharray:none;stroke-dashoffset:0;stroke-opacity:1" />
    <path
       sodipodi:nodetypes="ccssscc"
       inkscape:connector-curvature="0"
       id="path893"
       transform="matrix(0.26458333,0,0,0.26458333,53.298912,56.094128)"
       d="m 255.30664,10.917969 c -8.59951,0.0092 -16.69538,2.477853 -23.71763,7.441685 -0.38266,0.305048 -0.43667,0.704309 -0.43667,0.921596 0,3.280464 10.81434,5.939453 24.1543,5.939453 13.33992,-4e-6 24.15234,-2.658993 24.15234,-5.939453 0,-0.205029 -0.007,-0.51949 -0.34625,-0.818917 -7.02271,-4.984708 -15.19416,-7.525941 -23.80609,-7.544364 z"
       style="opacity:1;fill:#c7c7c7;fill-opacity:0.5308057;stroke:#181818;stroke-width:0.37795275;stroke-linecap:round;stroke-miterlimit:4;stroke-dasharray:none;stroke-dashoffset:0;stroke-opacity:1" />
    <ellipse
       style="opacity:1;fill:#6d6d6d;fill-opacity:1;stroke:none;stroke-width:0.1;stroke-linecap:round;stroke-miterlimit:4;stroke-dasharray:none;stroke-dashoffset:0;stroke-opacity:1"
       id="ellipse895"
       cx="120.84851"
       cy="59.876282"
       rx="0.33072916"
       ry="0.14174107" />
    <g
       id="g2024"
       transform="matrix(0.54932296,0,0,0.54932296,74.618773,50.486582)">
      <g
         word-spacing="normal"
         letter-spacing="normal"
         font-size-adjust="none"
         font-stretch="normal"
         font-weight="normal"
         font-variant="normal"
         font-style="normal"
         stroke-miterlimit="10.433"
         xml:space="preserve"
         transform="matrix(0.08144379,0,0,-0.08144379,-14.252664,90.995715)"
         id="content"
         style="font-style:normal;font-variant:normal;font-weight:normal;font-stretch:normal;letter-spacing:normal;word-spacing:normal;text-anchor:start;fill:none;fill-opacity:1;fill-rule:evenodd;stroke:#000000;stroke-linecap:butt;stroke-linejoin:miter;stroke-miterlimit:10.43299961;stroke-dasharray:none;stroke-dashoffset:0;stroke-opacity:1"><path
           id="path2001"
           d="m 478.19,431.11 v 0.31 l -0.01,0.34 -0.02,0.36 -0.02,0.37 -0.03,0.39 -0.04,0.39 -0.04,0.41 -0.06,0.41 -0.07,0.42 -0.07,0.43 -0.09,0.42 -0.1,0.43 -0.12,0.42 -0.12,0.42 -0.14,0.41 -0.16,0.41 -0.17,0.4 -0.18,0.38 -0.2,0.37 -0.22,0.36 -0.23,0.34 -0.25,0.32 -0.28,0.3 -0.29,0.27 -0.31,0.25 -0.16,0.12 -0.17,0.1 -0.17,0.1 -0.18,0.1 -0.18,0.08 -0.19,0.08 -0.19,0.07 -0.2,0.06 -0.21,0.05 -0.21,0.05 -0.22,0.03 -0.22,0.02 -0.23,0.02 h -0.23 l -0.05,-1.09 c 2.44,0 2.73,-3.19 2.73,-6.03 0,-2.44 -0.39,-4.99 -1.59,-9.92 h -10.41 c 0.85,3.2 1.85,7.18 3.83,10.72 1.36,2.43 3.19,5.23 5.44,5.23 l 0.05,1.09 c -6.92,0 -14.6,-14.04 -14.6,-25.45 0,-4.69 1.44,-10.22 5.99,-10.22 v 1.1 c -1.66,0 -2.71,1.45 -2.71,6.07 0,2.1 0.3,4.99 1.6,9.86 h 10.37 c -0.54,-2.28 -1.59,-6.51 -3.5,-10.11 -1.73,-3.39 -3.62,-5.82 -5.76,-5.82 v -1.1 c 7.01,0 14.59,14.3 14.59,25.46 z"
           inkscape:connector-curvature="0"
           style="fill:#000000;stroke-width:0" /><path
           id="path2003"
           d="m 497.42,408.03 -0.01,0.36 -0.02,0.34 -0.04,0.34 -0.06,0.33 -0.07,0.32 -0.09,0.31 -0.1,0.3 -0.11,0.28 -0.13,0.28 -0.14,0.27 -0.16,0.25 -0.16,0.25 -0.18,0.23 -0.19,0.22 -0.2,0.22 -0.21,0.2 -0.22,0.19 -0.23,0.17 -0.24,0.17 -0.25,0.15 -0.25,0.15 -0.27,0.13 -0.27,0.12 -0.27,0.1 -0.29,0.1 -0.29,0.08 -0.3,0.07 -0.3,0.06 -0.3,0.04 -0.31,0.04 -0.32,0.01 -0.32,0.01 c -5.17,0 -10.04,-4.84 -10.04,-9.61 0,-3.48 2.54,-6.09 6.34,-6.09 l 0.03,0.97 c -1.73,0 -3.48,1.12 -3.48,3.87 0,1.42 0.67,4.85 2.03,6.83 1.5,2.16 3.52,3.06 5.08,3.06 1.89,0 3.48,-1.29 3.48,-3.87 0,-0.83 -0.4,-4.28 -1.95,-6.72 -1.31,-2.05 -3.41,-3.17 -5.16,-3.17 v 0 l -0.03,-0.97 c 4.99,0 10,4.59 10,9.61 z"
           inkscape:connector-curvature="0"
           style="fill:#000000;stroke-width:0" /><path
           id="path2005"
           d="m 549.16,422.5 h 0.14 0.14 0.14 l 0.08,0.01 h 0.07 l 0.07,0.01 0.07,0.01 0.07,0.01 0.07,0.01 0.07,0.01 0.07,0.02 0.06,0.02 0.07,0.02 0.06,0.02 0.05,0.03 0.06,0.03 0.05,0.04 0.05,0.03 0.05,0.05 0.04,0.04 0.04,0.05 0.02,0.03 0.02,0.03 0.02,0.02 0.01,0.03 0.02,0.03 0.01,0.04 0.01,0.03 0.01,0.04 0.01,0.03 0.01,0.04 0.01,0.04 v 0.04 l 0.01,0.04 v 0.04 0.04 0.05 c 0,1 -0.95,1 -1.64,1 h -29.84 c -0.7,0 -1.64,0 -1.64,-1 0,-0.98 0.94,-0.98 1.69,-0.98 z"
           inkscape:connector-curvature="0"
           style="fill:#000000;stroke-width:0" /><path
           id="path2007"
           d="m 549.2,412.82 h 0.07 0.06 l 0.14,0.01 h 0.14 0.07 l 0.07,0.01 0.07,0.01 h 0.07 l 0.07,0.01 0.06,0.02 0.07,0.01 0.07,0.02 0.06,0.02 0.06,0.02 0.06,0.02 0.06,0.03 0.05,0.03 0.06,0.04 0.05,0.04 0.04,0.04 0.04,0.05 0.03,0.02 0.01,0.03 0.02,0.02 0.02,0.03 0.02,0.03 0.01,0.03 0.02,0.03 0.01,0.03 0.01,0.04 0.01,0.03 0.01,0.04 0.01,0.04 0.01,0.04 v 0.04 l 0.01,0.04 v 0.04 0.05 0.04 c 0,1 -0.95,1 -1.68,1 h -29.75 c -0.75,0 -1.69,0 -1.69,-1 0,-1 0.94,-1 1.64,-1 z"
           inkscape:connector-curvature="0"
           style="fill:#000000;stroke-width:0" /><path
           id="path2009"
           d="m 580.68,424.78 h 5.62 c -1.64,-7.38 -2.09,-9.52 -2.09,-12.85 0,-0.75 0,-2.09 0.41,-3.79 0.5,-2.19 1.04,-2.49 1.79,-2.49 0.99,0 2.04,0.89 2.04,1.89 0,0.3 0,0.41 -0.3,1.1 -1.44,3.59 -1.44,6.82 -1.44,8.22 0,2.64 0.34,5.34 0.89,7.92 h 5.69 c 0.64,0 2.44,0 2.44,1.7 0,1.19 -1.05,1.19 -2,1.19 h -16.69 c -1.09,0 -2.99,0 -5.17,-2.35 -1.75,-1.93 -3.05,-4.23 -3.05,-4.48 0,-0.05 0,-0.48 0.59,-0.48 0.41,0 0.5,0.18 0.8,0.59 2.45,3.83 5.34,3.83 6.33,3.83 h 2.84 c -1.59,-6.02 -4.28,-12.05 -6.37,-16.58 -0.41,-0.75 -0.41,-0.86 -0.41,-1.2 0,-0.96 0.8,-1.35 1.45,-1.35 1.5,0 1.9,1.39 2.49,3.24 0.7,2.29 0.7,2.39 1.34,4.89 z"
           inkscape:connector-curvature="0"
           style="fill:#000000;stroke-width:0" /><path
           id="path2011"
           d="m 607.82,406.25 v 0.3 l -0.01,0.3 -0.02,0.29 -0.02,0.28 -0.03,0.27 -0.04,0.26 -0.05,0.26 -0.05,0.24 -0.06,0.24 -0.06,0.23 -0.07,0.22 -0.08,0.21 -0.08,0.2 -0.09,0.19 -0.1,0.19 -0.1,0.17 -0.1,0.16 -0.12,0.16 -0.11,0.14 -0.13,0.13 -0.12,0.13 -0.14,0.11 -0.14,0.1 -0.14,0.1 -0.15,0.08 -0.15,0.07 -0.16,0.06 -0.17,0.05 -0.16,0.04 -0.18,0.03 -0.17,0.01 -0.18,0.01 c -1.64,0 -2.64,-1.25 -2.64,-2.64 0,-1.34 1,-2.64 2.64,-2.64 0.59,0 1.25,0.2 1.75,0.64 0.14,0.11 0.2,0.16 0.25,0.16 0.04,0 0.09,-0.05 0.09,-0.75 0,-3.69 -1.73,-6.68 -3.39,-8.32 -0.55,-0.54 -0.55,-0.65 -0.55,-0.79 0,-0.36 0.25,-0.55 0.5,-0.55 0.55,0 4.53,3.83 4.53,9.66 z"
           inkscape:connector-curvature="0"
           style="fill:#000000;stroke-width:0" /><path
           id="path2013"
           d="m 659.15,431.11 -0.01,0.31 -0.01,0.34 -0.01,0.36 -0.02,0.37 -0.03,0.39 -0.04,0.39 -0.05,0.41 -0.06,0.41 -0.06,0.42 -0.08,0.43 -0.09,0.42 -0.1,0.43 -0.11,0.42 -0.13,0.42 -0.14,0.41 -0.15,0.41 -0.17,0.4 -0.19,0.38 -0.2,0.37 -0.21,0.36 -0.24,0.34 -0.25,0.32 -0.27,0.3 -0.29,0.27 -0.31,0.25 -0.16,0.12 -0.17,0.1 -0.17,0.1 -0.18,0.1 -0.19,0.08 -0.18,0.08 -0.2,0.07 -0.2,0.06 -0.2,0.05 -0.22,0.05 -0.21,0.03 -0.23,0.02 -0.23,0.02 h -0.23 l -0.05,-1.09 c 2.44,0 2.74,-3.19 2.74,-6.03 0,-2.44 -0.39,-4.99 -1.6,-9.92 h -10.4 c 0.84,3.2 1.84,7.18 3.83,10.72 1.35,2.43 3.18,5.23 5.43,5.23 l 0.05,1.09 c -6.92,0 -14.59,-14.04 -14.59,-25.45 0,-4.69 1.43,-10.22 5.98,-10.22 v 1.1 c -1.65,0 -2.7,1.45 -2.7,6.07 0,2.1 0.3,4.99 1.59,9.86 h 10.38 c -0.55,-2.28 -1.6,-6.51 -3.5,-10.11 -1.74,-3.39 -3.63,-5.82 -5.77,-5.82 v -1.1 c 7.02,0 14.6,14.3 14.6,25.46 z"
           inkscape:connector-curvature="0"
           style="fill:#000000;stroke-width:0" /><path
           id="path2015"
           d="m 667.69,406.7 h 0.1 0.1 0.12 0.12 l 0.14,0.01 h 0.14 l 0.14,0.01 h 0.16 l 0.16,0.01 0.17,0.01 0.17,0.01 0.18,0.01 0.19,0.01 0.18,0.02 0.39,0.03 0.4,0.04 0.4,0.05 0.41,0.06 0.4,0.07 0.4,0.08 0.2,0.05 0.2,0.04 0.19,0.05 0.19,0.06 0.18,0.05 0.18,0.06 c 2.58,0.91 3.06,2.58 3.06,3.63 0,1.92 -1.92,3.06 -4.33,3.06 v -0.97 c 1.54,0 2.83,-0.76 2.83,-2.09 0,-3.38 -5.89,-3.38 -7.39,-3.38 h -1.7 c 1.42,5.05 5.3,5.47 6.26,5.47 v 0.97 c -4.17,0 -9.82,-3.2 -9.82,-9.16 0,-3.51 2.2,-6.54 6.28,-6.54 5.89,0 8.64,3.44 8.64,3.94 0,0.2 -0.31,0.59 -0.6,0.59 -0.2,0 -0.28,-0.08 -0.56,-0.36 -2.72,-3.2 -6.79,-3.2 -7.42,-3.2 -2.09,0 -3.48,1.39 -3.48,4.22 0,0.48 0,1.18 0.42,3.09 z"
           inkscape:connector-curvature="0"
           style="fill:#000000;stroke-width:0" /><path
           id="path2017"
           d="m 729.27,422.5 h 0.14 0.15 0.14 l 0.07,0.01 h 0.08 l 0.07,0.01 0.07,0.01 0.07,0.01 0.07,0.01 0.07,0.01 0.06,0.02 0.07,0.02 0.06,0.02 0.06,0.02 0.06,0.03 0.06,0.03 0.05,0.04 0.05,0.03 0.05,0.05 0.04,0.04 0.04,0.05 0.02,0.03 0.02,0.03 0.01,0.02 0.02,0.03 0.01,0.03 0.02,0.04 0.01,0.03 0.01,0.04 0.01,0.03 0.01,0.04 v 0.04 l 0.01,0.04 v 0.04 l 0.01,0.04 v 0.04 0.05 c 0,1 -0.95,1 -1.64,1 h -29.84 c -0.71,0 -1.64,0 -1.64,-1 0,-0.98 0.93,-0.98 1.68,-0.98 z"
           inkscape:connector-curvature="0"
           style="fill:#000000;stroke-width:0" /><path
           id="path2019"
           d="m 729.32,412.82 h 0.07 0.06 l 0.14,0.01 h 0.14 0.07 l 0.07,0.01 0.07,0.01 h 0.07 l 0.06,0.01 0.07,0.02 0.07,0.01 0.06,0.02 0.07,0.02 0.06,0.02 0.06,0.02 0.06,0.03 0.05,0.03 0.05,0.04 0.05,0.04 0.05,0.04 0.04,0.05 0.02,0.02 0.02,0.03 0.02,0.02 0.02,0.03 0.01,0.03 0.02,0.03 0.01,0.03 0.02,0.03 0.01,0.04 0.01,0.03 0.01,0.04 0.01,0.04 v 0.04 l 0.01,0.04 v 0.04 l 0.01,0.04 v 0.05 0.04 c 0,1 -0.95,1 -1.69,1 h -29.75 c -0.75,0 -1.68,0 -1.68,-1 0,-1 0.93,-1 1.64,-1 z"
           inkscape:connector-curvature="0"
           style="fill:#000000;stroke-width:0" /><path
           id="path2021"
           d="m 770.52,422.14 v 0.74 l -0.01,0.75 -0.02,0.75 -0.04,0.74 -0.04,0.75 -0.06,0.74 -0.08,0.74 -0.09,0.73 -0.12,0.73 -0.14,0.73 -0.16,0.72 -0.19,0.72 -0.22,0.72 -0.24,0.7 -0.28,0.7 -0.15,0.35 -0.16,0.34 c -2.28,4.8 -6.37,5.6 -8.47,5.6 -2.98,0 -6.62,-1.3 -8.67,-5.94 -1.6,-3.44 -1.85,-7.33 -1.85,-11.31 0,-3.74 0.21,-8.22 2.25,-12 2.15,-4.03 5.79,-5.03 8.22,-5.03 v 1.09 c -1.93,0 -4.89,1.25 -5.78,6.03 -0.54,2.98 -0.54,7.56 -0.54,10.52 0,3.18 0,6.46 0.4,9.15 0.94,5.94 4.67,6.38 5.92,6.38 1.65,0 4.94,-0.89 5.88,-5.83 0.5,-2.78 0.5,-6.58 0.5,-9.7 0,-3.75 0,-7.13 -0.55,-10.32 -0.75,-4.73 -3.59,-6.23 -5.83,-6.23 v 0 -1.09 c 2.69,0 6.47,1.04 8.68,5.78 1.59,3.43 1.84,7.31 1.84,11.25 z"
           inkscape:connector-curvature="0"
           style="fill:#000000;stroke-width:0" /></g>    </g>
    <g
       transform="matrix(0.54932296,0,0,0.54932296,101.26339,50.487253)"
       id="g2182">
      <g
         style="font-style:normal;font-variant:normal;font-weight:normal;font-stretch:normal;letter-spacing:normal;word-spacing:normal;text-anchor:start;fill:none;fill-opacity:1;fill-rule:evenodd;stroke:#000000;stroke-linecap:butt;stroke-linejoin:miter;stroke-miterlimit:10.43299961;stroke-dasharray:none;stroke-dashoffset:0;stroke-opacity:1"
         id="g2180"
         transform="matrix(0.08144379,0,0,-0.08144379,-14.252664,90.995715)"
         xml:space="preserve"
         stroke-miterlimit="10.433"
         font-style="normal"
         font-variant="normal"
         font-weight="normal"
         font-stretch="normal"
         font-size-adjust="none"
         letter-spacing="normal"
         word-spacing="normal"><path
           style="fill:#000000;stroke-width:0"
           inkscape:connector-curvature="0"
           d="m 478.19,431.11 v 0.31 l -0.01,0.34 -0.02,0.36 -0.02,0.37 -0.03,0.39 -0.04,0.39 -0.04,0.41 -0.06,0.41 -0.07,0.42 -0.07,0.43 -0.09,0.42 -0.1,0.43 -0.12,0.42 -0.12,0.42 -0.14,0.41 -0.16,0.41 -0.17,0.4 -0.18,0.38 -0.2,0.37 -0.22,0.36 -0.23,0.34 -0.25,0.32 -0.28,0.3 -0.29,0.27 -0.31,0.25 -0.16,0.12 -0.17,0.1 -0.17,0.1 -0.18,0.1 -0.18,0.08 -0.19,0.08 -0.19,0.07 -0.2,0.06 -0.21,0.05 -0.21,0.05 -0.22,0.03 -0.22,0.02 -0.23,0.02 h -0.23 l -0.05,-1.09 c 2.44,0 2.73,-3.19 2.73,-6.03 0,-2.44 -0.39,-4.99 -1.59,-9.92 h -10.41 c 0.85,3.2 1.85,7.18 3.83,10.72 1.36,2.43 3.19,5.23 5.44,5.23 l 0.05,1.09 c -6.92,0 -14.6,-14.04 -14.6,-25.45 0,-4.69 1.44,-10.22 5.99,-10.22 v 1.1 c -1.66,0 -2.71,1.45 -2.71,6.07 0,2.1 0.3,4.99 1.6,9.86 h 10.37 c -0.54,-2.28 -1.59,-6.51 -3.5,-10.11 -1.73,-3.39 -3.62,-5.82 -5.76,-5.82 v -1.1 c 7.01,0 14.59,14.3 14.59,25.46 z"
           id="path2154" /><path
           style="fill:#000000;stroke-width:0"
           inkscape:connector-curvature="0"
           d="m 497.42,408.03 -0.01,0.36 -0.02,0.34 -0.04,0.34 -0.06,0.33 -0.07,0.32 -0.09,0.31 -0.1,0.3 -0.11,0.28 -0.13,0.28 -0.14,0.27 -0.16,0.25 -0.16,0.25 -0.18,0.23 -0.19,0.22 -0.2,0.22 -0.21,0.2 -0.22,0.19 -0.23,0.17 -0.24,0.17 -0.25,0.15 -0.25,0.15 -0.27,0.13 -0.27,0.12 -0.27,0.1 -0.29,0.1 -0.29,0.08 -0.3,0.07 -0.3,0.06 -0.3,0.04 -0.31,0.04 -0.32,0.01 -0.32,0.01 c -5.17,0 -10.04,-4.84 -10.04,-9.61 0,-3.48 2.54,-6.09 6.34,-6.09 l 0.03,0.97 c -1.73,0 -3.48,1.12 -3.48,3.87 0,1.42 0.67,4.85 2.03,6.83 1.5,2.16 3.52,3.06 5.08,3.06 1.89,0 3.48,-1.29 3.48,-3.87 0,-0.83 -0.4,-4.28 -1.95,-6.72 -1.31,-2.05 -3.41,-3.17 -5.16,-3.17 v 0 l -0.03,-0.97 c 4.99,0 10,4.59 10,9.61 z"
           id="path2156" /><path
           style="fill:#000000;stroke-width:0"
           inkscape:connector-curvature="0"
           d="m 549.16,422.5 h 0.14 0.14 0.14 l 0.08,0.01 h 0.07 l 0.07,0.01 0.07,0.01 0.07,0.01 0.07,0.01 0.07,0.01 0.07,0.02 0.06,0.02 0.07,0.02 0.06,0.02 0.05,0.03 0.06,0.03 0.05,0.04 0.05,0.03 0.05,0.05 0.04,0.04 0.04,0.05 0.02,0.03 0.02,0.03 0.02,0.02 0.01,0.03 0.02,0.03 0.01,0.04 0.01,0.03 0.01,0.04 0.01,0.03 0.01,0.04 0.01,0.04 v 0.04 l 0.01,0.04 v 0.04 0.04 0.05 c 0,1 -0.95,1 -1.64,1 h -29.84 c -0.7,0 -1.64,0 -1.64,-1 0,-0.98 0.94,-0.98 1.69,-0.98 z"
           id="path2158" /><path
           style="fill:#000000;stroke-width:0"
           inkscape:connector-curvature="0"
           d="m 549.2,412.82 h 0.07 0.06 l 0.14,0.01 h 0.14 0.07 l 0.07,0.01 0.07,0.01 h 0.07 l 0.07,0.01 0.06,0.02 0.07,0.01 0.07,0.02 0.06,0.02 0.06,0.02 0.06,0.02 0.06,0.03 0.05,0.03 0.06,0.04 0.05,0.04 0.04,0.04 0.04,0.05 0.03,0.02 0.01,0.03 0.02,0.02 0.02,0.03 0.02,0.03 0.01,0.03 0.02,0.03 0.01,0.03 0.01,0.04 0.01,0.03 0.01,0.04 0.01,0.04 0.01,0.04 v 0.04 l 0.01,0.04 v 0.04 0.05 0.04 c 0,1 -0.95,1 -1.68,1 h -29.75 c -0.75,0 -1.69,0 -1.69,-1 0,-1 0.94,-1 1.64,-1 z"
           id="path2160" /><path
           style="fill:#000000;stroke-width:0"
           inkscape:connector-curvature="0"
           d="m 590.4,422.14 -0.01,0.74 -0.01,0.75 -0.02,0.75 -0.03,0.74 -0.04,0.75 -0.06,0.74 -0.08,0.74 -0.1,0.73 -0.11,0.73 -0.14,0.73 -0.16,0.72 -0.19,0.72 -0.22,0.72 -0.24,0.7 -0.28,0.7 -0.15,0.35 -0.16,0.34 c -2.28,4.8 -6.38,5.6 -8.47,5.6 -2.98,0 -6.63,-1.3 -8.67,-5.94 -1.6,-3.44 -1.85,-7.33 -1.85,-11.31 0,-3.74 0.21,-8.22 2.25,-12 2.14,-4.03 5.79,-5.03 8.22,-5.03 v 1.09 c -1.93,0 -4.89,1.25 -5.78,6.03 -0.55,2.98 -0.55,7.56 -0.55,10.52 0,3.18 0,6.46 0.41,9.15 0.94,5.94 4.67,6.38 5.92,6.38 1.64,0 4.94,-0.89 5.88,-5.83 0.5,-2.78 0.5,-6.58 0.5,-9.7 0,-3.75 0,-7.13 -0.55,-10.32 -0.75,-4.73 -3.59,-6.23 -5.83,-6.23 v 0 -1.09 c 2.69,0 6.47,1.04 8.67,5.78 1.6,3.43 1.85,7.31 1.85,11.25 z"
           id="path2162" /><path
           style="fill:#000000;stroke-width:0"
           inkscape:connector-curvature="0"
           d="m 602.54,406.25 v 0.3 l -0.01,0.3 -0.02,0.29 -0.02,0.28 -0.04,0.27 -0.03,0.26 -0.05,0.26 -0.05,0.24 -0.06,0.24 -0.06,0.23 -0.07,0.22 -0.08,0.21 -0.08,0.2 -0.09,0.19 -0.1,0.19 -0.1,0.17 -0.1,0.16 -0.12,0.16 -0.11,0.14 -0.13,0.13 -0.13,0.13 -0.13,0.11 -0.14,0.1 -0.14,0.1 -0.15,0.08 -0.16,0.07 -0.15,0.06 -0.17,0.05 -0.16,0.04 -0.18,0.03 -0.17,0.01 -0.19,0.01 c -1.63,0 -2.63,-1.25 -2.63,-2.64 0,-1.34 1,-2.64 2.63,-2.64 0.6,0 1.25,0.2 1.75,0.64 0.15,0.11 0.21,0.16 0.25,0.16 0.05,0 0.1,-0.05 0.1,-0.75 0,-3.69 -1.73,-6.68 -3.39,-8.32 -0.55,-0.54 -0.55,-0.65 -0.55,-0.79 0,-0.36 0.25,-0.55 0.5,-0.55 0.55,0 4.53,3.83 4.53,9.66 z"
           id="path2164" /><path
           style="fill:#000000;stroke-width:0"
           inkscape:connector-curvature="0"
           d="m 653.86,431.11 v 0.31 l -0.01,0.34 -0.01,0.36 -0.03,0.37 -0.03,0.39 -0.03,0.39 -0.05,0.41 -0.06,0.41 -0.06,0.42 -0.08,0.43 -0.09,0.42 -0.1,0.43 -0.11,0.42 -0.13,0.42 -0.14,0.41 -0.15,0.41 -0.17,0.4 -0.19,0.38 -0.2,0.37 -0.22,0.36 -0.23,0.34 -0.25,0.32 -0.27,0.3 -0.29,0.27 -0.31,0.25 -0.17,0.12 -0.16,0.1 -0.18,0.1 -0.17,0.1 -0.19,0.08 -0.19,0.08 -0.19,0.07 -0.2,0.06 -0.21,0.05 -0.21,0.05 -0.21,0.03 -0.23,0.02 -0.23,0.02 h -0.23 l -0.05,-1.09 c 2.44,0 2.74,-3.19 2.74,-6.03 0,-2.44 -0.39,-4.99 -1.6,-9.92 h -10.4 c 0.84,3.2 1.84,7.18 3.83,10.72 1.35,2.43 3.18,5.23 5.43,5.23 l 0.05,1.09 c -6.92,0 -14.6,-14.04 -14.6,-25.45 0,-4.69 1.44,-10.22 5.99,-10.22 v 1.1 c -1.66,0 -2.7,1.45 -2.7,6.07 0,2.1 0.29,4.99 1.59,9.86 h 10.37 c -0.54,-2.28 -1.59,-6.51 -3.5,-10.11 -1.73,-3.39 -3.62,-5.82 -5.76,-5.82 v -1.1 c 7.01,0 14.59,14.3 14.59,25.46 z"
           id="path2166" /><path
           style="fill:#000000;stroke-width:0"
           inkscape:connector-curvature="0"
           d="m 662.41,406.7 h 0.1 0.11 0.11 0.13 l 0.13,0.01 h 0.14 l 0.15,0.01 h 0.15 l 0.17,0.01 0.16,0.01 0.18,0.01 0.18,0.01 0.18,0.01 0.19,0.02 0.38,0.03 0.4,0.04 0.4,0.05 0.41,0.06 0.41,0.07 0.4,0.08 0.19,0.05 0.2,0.04 0.19,0.05 0.19,0.06 0.18,0.05 0.18,0.06 c 2.58,0.91 3.07,2.58 3.07,3.63 0,1.92 -1.93,3.06 -4.33,3.06 v -0.97 c 1.53,0 2.83,-0.76 2.83,-2.09 0,-3.38 -5.89,-3.38 -7.39,-3.38 h -1.71 c 1.42,5.05 5.3,5.47 6.27,5.47 v 0.97 c -4.17,0 -9.83,-3.2 -9.83,-9.16 0,-3.51 2.2,-6.54 6.28,-6.54 5.89,0 8.64,3.44 8.64,3.94 0,0.2 -0.31,0.59 -0.59,0.59 -0.21,0 -0.28,-0.08 -0.56,-0.36 -2.72,-3.2 -6.8,-3.2 -7.43,-3.2 -2.09,0 -3.48,1.39 -3.48,4.22 0,0.48 0,1.18 0.42,3.09 z"
           id="path2168" /><path
           style="fill:#000000;stroke-width:0"
           inkscape:connector-curvature="0"
           d="m 724,422.5 h 0.14 0.14 0.14 l 0.08,0.01 h 0.07 l 0.07,0.01 0.07,0.01 0.07,0.01 0.07,0.01 0.07,0.01 0.07,0.02 0.06,0.02 0.07,0.02 0.06,0.02 0.05,0.03 0.06,0.03 0.05,0.04 0.05,0.03 0.05,0.05 0.04,0.04 0.04,0.05 0.02,0.03 0.02,0.03 0.02,0.02 0.01,0.03 0.02,0.03 0.01,0.04 0.01,0.03 0.01,0.04 0.01,0.03 0.01,0.04 0.01,0.04 v 0.04 l 0.01,0.04 v 0.04 0.04 0.05 c 0,1 -0.95,1 -1.64,1 H 694.2 c -0.7,0 -1.64,0 -1.64,-1 0,-0.98 0.94,-0.98 1.69,-0.98 z"
           id="path2170" /><path
           style="fill:#000000;stroke-width:0"
           inkscape:connector-curvature="0"
           d="m 724.04,412.82 h 0.07 0.06 l 0.14,0.01 h 0.14 0.07 l 0.07,0.01 0.07,0.01 h 0.07 l 0.07,0.01 0.06,0.02 0.07,0.01 0.07,0.02 0.06,0.02 0.06,0.02 0.06,0.02 0.06,0.03 0.05,0.03 0.06,0.04 0.05,0.04 0.04,0.04 0.04,0.05 0.02,0.02 0.02,0.03 0.02,0.02 0.02,0.03 0.02,0.03 0.01,0.03 0.02,0.03 0.01,0.03 0.01,0.04 0.01,0.03 0.01,0.04 0.01,0.04 0.01,0.04 v 0.04 l 0.01,0.04 v 0.04 0.05 0.04 c 0,1 -0.95,1 -1.68,1 h -29.75 c -0.75,0 -1.69,0 -1.69,-1 0,-1 0.94,-1 1.64,-1 z"
           id="path2172" /><path
           style="fill:#000000;stroke-width:0"
           inkscape:connector-curvature="0"
           d="m 759.99,447.92 v 0.04 0.04 0.05 0.04 0.03 0.04 0.04 0.03 0.04 l -0.01,0.03 v 0.03 0.03 0.03 l -0.01,0.03 v 0.03 0.02 l -0.01,0.03 v 0.02 l -0.01,0.03 v 0.02 l -0.01,0.04 -0.02,0.04 -0.02,0.03 -0.02,0.03 -0.02,0.03 -0.02,0.03 -0.03,0.02 -0.03,0.02 -0.03,0.02 -0.04,0.01 -0.04,0.01 -0.05,0.02 h -0.02 -0.02 l -0.03,0.01 h -0.03 l -0.02,0.01 h -0.03 -0.03 -0.03 -0.03 l -0.04,0.01 h -0.03 -0.04 -0.03 -0.04 -0.04 -0.04 -0.04 -0.05 -0.04 -0.04 c -2.24,-2.2 -5.4,-2.23 -6.83,-2.23 v -1.25 c 0.84,0 3.14,0 5.04,0.97 v -17.77 c 0,-1.16 0,-1.61 -3.48,-1.61 h -1.31 v -1.25 c 0.62,0.03 4.9,0.14 6.2,0.14 1.08,0 5.47,-0.11 6.23,-0.14 v 1.25 h -1.32 c -3.49,0 -3.49,0.45 -3.49,1.61 z"
           id="path2174" /><polyline
           style="fill:#000000;fill-rule:nonzero;stroke-width:0"
           points="748,418 767.92,418 767.92,420.04 748,420.04 "
           id="polyline2176" /><path
           style="fill:#000000;stroke-width:0"
           inkscape:connector-curvature="0"
           d="m 765.91,395.38 h -1.18 c -0.1,-0.76 -0.46,-2.83 -0.91,-3.17 -0.27,-0.2 -2.95,-0.2 -3.44,-0.2 h -6.42 c 3.66,3.23 4.88,4.2 6.97,5.84 2.58,2.06 4.98,4.22 4.98,7.53 0,4.22 -3.68,6.8 -8.15,6.8 -4.31,0 -7.25,-3.03 -7.25,-6.23 0,-1.79 1.5,-1.96 1.86,-1.96 0.83,0 1.84,0.6 1.84,1.85 0,0.62 -0.25,1.84 -2.06,1.84 1.08,2.47 3.45,3.23 5.09,3.23 3.49,0 5.3,-2.7 5.3,-5.53 0,-3.03 -2.16,-5.43 -3.28,-6.68 l -8.39,-8.3 c -0.36,-0.31 -0.36,-0.39 -0.36,-1.36 h 14.36 z"
           id="path2178" /></g>    </g>
    <g
       id="g2370"
       transform="matrix(0.54932296,0,0,0.54932296,48.242036,50.317692)">
      <g
         word-spacing="normal"
         letter-spacing="normal"
         font-size-adjust="none"
         font-stretch="normal"
         font-weight="normal"
         font-variant="normal"
         font-style="normal"
         stroke-miterlimit="10.433"
         xml:space="preserve"
         transform="matrix(0.08144379,0,0,-0.08144379,-14.252664,90.995715)"
         id="g2368"
         style="font-style:normal;font-variant:normal;font-weight:normal;font-stretch:normal;letter-spacing:normal;word-spacing:normal;text-anchor:start;fill:none;fill-opacity:1;fill-rule:evenodd;stroke:#000000;stroke-linecap:butt;stroke-linejoin:miter;stroke-miterlimit:10.43299961;stroke-dasharray:none;stroke-dashoffset:0;stroke-opacity:1"><path
           id="path2342"
           d="m 478.19,431.11 v 0.31 l -0.01,0.34 -0.02,0.36 -0.02,0.37 -0.03,0.39 -0.04,0.39 -0.04,0.41 -0.06,0.41 -0.07,0.42 -0.07,0.43 -0.09,0.42 -0.1,0.43 -0.12,0.42 -0.12,0.42 -0.14,0.41 -0.16,0.41 -0.17,0.4 -0.18,0.38 -0.2,0.37 -0.22,0.36 -0.23,0.34 -0.25,0.32 -0.28,0.3 -0.29,0.27 -0.31,0.25 -0.16,0.12 -0.17,0.1 -0.17,0.1 -0.18,0.1 -0.18,0.08 -0.19,0.08 -0.19,0.07 -0.2,0.06 -0.21,0.05 -0.21,0.05 -0.22,0.03 -0.22,0.02 -0.23,0.02 h -0.23 l -0.05,-1.09 c 2.44,0 2.73,-3.19 2.73,-6.03 0,-2.44 -0.39,-4.99 -1.59,-9.92 h -10.41 c 0.85,3.2 1.85,7.18 3.83,10.72 1.36,2.43 3.19,5.23 5.44,5.23 l 0.05,1.09 c -6.92,0 -14.6,-14.04 -14.6,-25.45 0,-4.69 1.44,-10.22 5.99,-10.22 v 1.1 c -1.66,0 -2.71,1.45 -2.71,6.07 0,2.1 0.3,4.99 1.6,9.86 h 10.37 c -0.54,-2.28 -1.59,-6.51 -3.5,-10.11 -1.73,-3.39 -3.62,-5.82 -5.76,-5.82 v -1.1 c 7.01,0 14.59,14.3 14.59,25.46 z"
           inkscape:connector-curvature="0"
           style="fill:#000000;stroke-width:0" /><path
           id="path2344"
           d="m 497.42,408.03 -0.01,0.36 -0.02,0.34 -0.04,0.34 -0.06,0.33 -0.07,0.32 -0.09,0.31 -0.1,0.3 -0.11,0.28 -0.13,0.28 -0.14,0.27 -0.16,0.25 -0.16,0.25 -0.18,0.23 -0.19,0.22 -0.2,0.22 -0.21,0.2 -0.22,0.19 -0.23,0.17 -0.24,0.17 -0.25,0.15 -0.25,0.15 -0.27,0.13 -0.27,0.12 -0.27,0.1 -0.29,0.1 -0.29,0.08 -0.3,0.07 -0.3,0.06 -0.3,0.04 -0.31,0.04 -0.32,0.01 -0.32,0.01 c -5.17,0 -10.04,-4.84 -10.04,-9.61 0,-3.48 2.54,-6.09 6.34,-6.09 l 0.03,0.97 c -1.73,0 -3.48,1.12 -3.48,3.87 0,1.42 0.67,4.85 2.03,6.83 1.5,2.16 3.52,3.06 5.08,3.06 1.89,0 3.48,-1.29 3.48,-3.87 0,-0.83 -0.4,-4.28 -1.95,-6.72 -1.31,-2.05 -3.41,-3.17 -5.16,-3.17 v 0 l -0.03,-0.97 c 4.99,0 10,4.59 10,9.61 z"
           inkscape:connector-curvature="0"
           style="fill:#000000;stroke-width:0" /><path
           id="path2346"
           d="m 549.16,422.5 h 0.14 0.14 0.14 l 0.08,0.01 h 0.07 l 0.07,0.01 0.07,0.01 0.07,0.01 0.07,0.01 0.07,0.01 0.07,0.02 0.06,0.02 0.07,0.02 0.06,0.02 0.05,0.03 0.06,0.03 0.05,0.04 0.05,0.03 0.05,0.05 0.04,0.04 0.04,0.05 0.02,0.03 0.02,0.03 0.02,0.02 0.01,0.03 0.02,0.03 0.01,0.04 0.01,0.03 0.01,0.04 0.01,0.03 0.01,0.04 0.01,0.04 v 0.04 l 0.01,0.04 v 0.04 0.04 0.05 c 0,1 -0.95,1 -1.64,1 h -29.84 c -0.7,0 -1.64,0 -1.64,-1 0,-0.98 0.94,-0.98 1.69,-0.98 z"
           inkscape:connector-curvature="0"
           style="fill:#000000;stroke-width:0" /><path
           id="path2348"
           d="m 549.2,412.82 h 0.07 0.06 l 0.14,0.01 h 0.14 0.07 l 0.07,0.01 0.07,0.01 h 0.07 l 0.07,0.01 0.06,0.02 0.07,0.01 0.07,0.02 0.06,0.02 0.06,0.02 0.06,0.02 0.06,0.03 0.05,0.03 0.06,0.04 0.05,0.04 0.04,0.04 0.04,0.05 0.03,0.02 0.01,0.03 0.02,0.02 0.02,0.03 0.02,0.03 0.01,0.03 0.02,0.03 0.01,0.03 0.01,0.04 0.01,0.03 0.01,0.04 0.01,0.04 0.01,0.04 v 0.04 l 0.01,0.04 v 0.04 0.05 0.04 c 0,1 -0.95,1 -1.68,1 h -29.75 c -0.75,0 -1.69,0 -1.69,-1 0,-1 0.94,-1 1.64,-1 z"
           inkscape:connector-curvature="0"
           style="fill:#000000;stroke-width:0" /><path
           id="path2350"
           d="m 590.4,422.14 -0.01,0.74 -0.01,0.75 -0.02,0.75 -0.03,0.74 -0.04,0.75 -0.06,0.74 -0.08,0.74 -0.1,0.73 -0.11,0.73 -0.14,0.73 -0.16,0.72 -0.19,0.72 -0.22,0.72 -0.24,0.7 -0.28,0.7 -0.15,0.35 -0.16,0.34 c -2.28,4.8 -6.38,5.6 -8.47,5.6 -2.98,0 -6.63,-1.3 -8.67,-5.94 -1.6,-3.44 -1.85,-7.33 -1.85,-11.31 0,-3.74 0.21,-8.22 2.25,-12 2.14,-4.03 5.79,-5.03 8.22,-5.03 v 1.09 c -1.93,0 -4.89,1.25 -5.78,6.03 -0.55,2.98 -0.55,7.56 -0.55,10.52 0,3.18 0,6.46 0.41,9.15 0.94,5.94 4.67,6.38 5.92,6.38 1.64,0 4.94,-0.89 5.88,-5.83 0.5,-2.78 0.5,-6.58 0.5,-9.7 0,-3.75 0,-7.13 -0.55,-10.32 -0.75,-4.73 -3.59,-6.23 -5.83,-6.23 v 0 -1.09 c 2.69,0 6.47,1.04 8.67,5.78 1.6,3.43 1.85,7.31 1.85,11.25 z"
           inkscape:connector-curvature="0"
           style="fill:#000000;stroke-width:0" /><path
           id="path2352"
           d="m 602.54,406.25 v 0.3 l -0.01,0.3 -0.02,0.29 -0.02,0.28 -0.04,0.27 -0.03,0.26 -0.05,0.26 -0.05,0.24 -0.06,0.24 -0.06,0.23 -0.07,0.22 -0.08,0.21 -0.08,0.2 -0.09,0.19 -0.1,0.19 -0.1,0.17 -0.1,0.16 -0.12,0.16 -0.11,0.14 -0.13,0.13 -0.13,0.13 -0.13,0.11 -0.14,0.1 -0.14,0.1 -0.15,0.08 -0.16,0.07 -0.15,0.06 -0.17,0.05 -0.16,0.04 -0.18,0.03 -0.17,0.01 -0.19,0.01 c -1.63,0 -2.63,-1.25 -2.63,-2.64 0,-1.34 1,-2.64 2.63,-2.64 0.6,0 1.25,0.2 1.75,0.64 0.15,0.11 0.21,0.16 0.25,0.16 0.05,0 0.1,-0.05 0.1,-0.75 0,-3.69 -1.73,-6.68 -3.39,-8.32 -0.55,-0.54 -0.55,-0.65 -0.55,-0.79 0,-0.36 0.25,-0.55 0.5,-0.55 0.55,0 4.53,3.83 4.53,9.66 z"
           inkscape:connector-curvature="0"
           style="fill:#000000;stroke-width:0" /><path
           id="path2354"
           d="m 653.86,431.11 v 0.31 l -0.01,0.34 -0.01,0.36 -0.03,0.37 -0.03,0.39 -0.03,0.39 -0.05,0.41 -0.06,0.41 -0.06,0.42 -0.08,0.43 -0.09,0.42 -0.1,0.43 -0.11,0.42 -0.13,0.42 -0.14,0.41 -0.15,0.41 -0.17,0.4 -0.19,0.38 -0.2,0.37 -0.22,0.36 -0.23,0.34 -0.25,0.32 -0.27,0.3 -0.29,0.27 -0.31,0.25 -0.17,0.12 -0.16,0.1 -0.18,0.1 -0.17,0.1 -0.19,0.08 -0.19,0.08 -0.19,0.07 -0.2,0.06 -0.21,0.05 -0.21,0.05 -0.21,0.03 -0.23,0.02 -0.23,0.02 h -0.23 l -0.05,-1.09 c 2.44,0 2.74,-3.19 2.74,-6.03 0,-2.44 -0.39,-4.99 -1.6,-9.92 h -10.4 c 0.84,3.2 1.84,7.18 3.83,10.72 1.35,2.43 3.18,5.23 5.43,5.23 l 0.05,1.09 c -6.92,0 -14.6,-14.04 -14.6,-25.45 0,-4.69 1.44,-10.22 5.99,-10.22 v 1.1 c -1.66,0 -2.7,1.45 -2.7,6.07 0,2.1 0.29,4.99 1.59,9.86 h 10.37 c -0.54,-2.28 -1.59,-6.51 -3.5,-10.11 -1.73,-3.39 -3.62,-5.82 -5.76,-5.82 v -1.1 c 7.01,0 14.59,14.3 14.59,25.46 z"
           inkscape:connector-curvature="0"
           style="fill:#000000;stroke-width:0" /><path
           id="path2356"
           d="m 662.41,406.7 h 0.1 0.11 0.11 0.13 l 0.13,0.01 h 0.14 l 0.15,0.01 h 0.15 l 0.17,0.01 0.16,0.01 0.18,0.01 0.18,0.01 0.18,0.01 0.19,0.02 0.38,0.03 0.4,0.04 0.4,0.05 0.41,0.06 0.41,0.07 0.4,0.08 0.19,0.05 0.2,0.04 0.19,0.05 0.19,0.06 0.18,0.05 0.18,0.06 c 2.58,0.91 3.07,2.58 3.07,3.63 0,1.92 -1.93,3.06 -4.33,3.06 v -0.97 c 1.53,0 2.83,-0.76 2.83,-2.09 0,-3.38 -5.89,-3.38 -7.39,-3.38 h -1.71 c 1.42,5.05 5.3,5.47 6.27,5.47 v 0.97 c -4.17,0 -9.83,-3.2 -9.83,-9.16 0,-3.51 2.2,-6.54 6.28,-6.54 5.89,0 8.64,3.44 8.64,3.94 0,0.2 -0.31,0.59 -0.59,0.59 -0.21,0 -0.28,-0.08 -0.56,-0.36 -2.72,-3.2 -6.8,-3.2 -7.43,-3.2 -2.09,0 -3.48,1.39 -3.48,4.22 0,0.48 0,1.18 0.42,3.09 z"
           inkscape:connector-curvature="0"
           style="fill:#000000;stroke-width:0" /><path
           id="path2358"
           d="m 724,422.5 h 0.14 0.14 0.14 l 0.08,0.01 h 0.07 l 0.07,0.01 0.07,0.01 0.07,0.01 0.07,0.01 0.07,0.01 0.07,0.02 0.06,0.02 0.07,0.02 0.06,0.02 0.05,0.03 0.06,0.03 0.05,0.04 0.05,0.03 0.05,0.05 0.04,0.04 0.04,0.05 0.02,0.03 0.02,0.03 0.02,0.02 0.01,0.03 0.02,0.03 0.01,0.04 0.01,0.03 0.01,0.04 0.01,0.03 0.01,0.04 0.01,0.04 v 0.04 l 0.01,0.04 v 0.04 0.04 0.05 c 0,1 -0.95,1 -1.64,1 H 694.2 c -0.7,0 -1.64,0 -1.64,-1 0,-0.98 0.94,-0.98 1.69,-0.98 z"
           inkscape:connector-curvature="0"
           style="fill:#000000;stroke-width:0" /><path
           id="path2360"
           d="m 724.04,412.82 h 0.07 0.06 l 0.14,0.01 h 0.14 0.07 l 0.07,0.01 0.07,0.01 h 0.07 l 0.07,0.01 0.06,0.02 0.07,0.01 0.07,0.02 0.06,0.02 0.06,0.02 0.06,0.02 0.06,0.03 0.05,0.03 0.06,0.04 0.05,0.04 0.04,0.04 0.04,0.05 0.02,0.02 0.02,0.03 0.02,0.02 0.02,0.03 0.02,0.03 0.01,0.03 0.02,0.03 0.01,0.03 0.01,0.04 0.01,0.03 0.01,0.04 0.01,0.04 0.01,0.04 v 0.04 l 0.01,0.04 v 0.04 0.05 0.04 c 0,1 -0.95,1 -1.68,1 h -29.75 c -0.75,0 -1.69,0 -1.69,-1 0,-1 0.94,-1 1.64,-1 z"
           inkscape:connector-curvature="0"
           style="fill:#000000;stroke-width:0" /><path
           id="path2362"
           d="m 759.16,438.42 h 4.14 c -0.53,-2.1 -1.29,-5.27 -1.29,-8.02 0,-1.4 0.19,-2.34 0.39,-3.11 0.56,-1.73 1.01,-1.87 1.56,-1.87 0.81,0 1.64,0.73 1.64,1.56 0,0.28 -0.06,0.42 -0.28,0.77 -0.66,1.29 -1.28,3.28 -1.28,6.14 0,0.65 0,2.04 0.48,4.53 h 4.36 c 0.63,0 0.91,0 1.28,0.26 0.49,0.36 0.6,0.91 0.6,1.08 0,1.02 -0.91,1.02 -1.5,1.02 h -13.13 c -1.43,0 -2.4,-0.32 -3.98,-1.78 -0.91,-0.8 -2.27,-2.68 -2.27,-2.99 0,-0.42 0.46,-0.42 0.6,-0.42 0.39,0 0.42,0.06 0.62,0.37 1.78,2.46 3.94,2.46 4.7,2.46 h 2.13 c -1.08,-3.85 -2.95,-7.96 -4,-10.05 -0.2,-0.45 -0.56,-1.19 -0.66,-1.31 -0.04,-0.14 -0.11,-0.28 -0.11,-0.53 0,-0.57 0.43,-1.11 1.22,-1.11 1.39,0 1.78,1.56 2.61,4.7 z"
           inkscape:connector-curvature="0"
           style="fill:#000000;stroke-width:0" /><polyline
           id="polyline2364"
           points="748,418 772.6,418 772.6,420.04 748,420.04 "
           style="fill:#000000;fill-rule:nonzero;stroke-width:0" /><path
           id="path2366"
           d="m 768.31,395.38 h -1.19 c -0.09,-0.76 -0.45,-2.83 -0.9,-3.17 -0.27,-0.2 -2.95,-0.2 -3.44,-0.2 h -6.42 c 3.66,3.23 4.87,4.2 6.97,5.84 2.58,2.06 4.98,4.22 4.98,7.53 0,4.22 -3.69,6.8 -8.15,6.8 -4.32,0 -7.25,-3.03 -7.25,-6.23 0,-1.79 1.5,-1.96 1.86,-1.96 0.82,0 1.84,0.6 1.84,1.85 0,0.62 -0.25,1.84 -2.06,1.84 1.07,2.47 3.45,3.23 5.09,3.23 3.48,0 5.3,-2.7 5.3,-5.53 0,-3.03 -2.16,-5.43 -3.28,-6.68 l -8.39,-8.3 c -0.36,-0.31 -0.36,-0.39 -0.36,-1.36 h 14.36 z"
           inkscape:connector-curvature="0"
           style="fill:#000000;stroke-width:0" /></g>    </g>
    <text
       xml:space="preserve"
       style="font-style:normal;font-variant:normal;font-weight:normal;font-stretch:normal;font-size:2.11666656px;line-height:125%;font-family:sans-serif;-inkscape-font-specification:sans-serif;letter-spacing:0px;word-spacing:0px;fill:#000000;fill-opacity:1;stroke:none;stroke-width:0.26458332px;stroke-linecap:butt;stroke-linejoin:miter;stroke-opacity:1"
       x="62.62315"
       y="85.098557"
       id="text4339"><tspan
         sodipodi:role="line"
         x="62.62315"
         y="85.098557"
         id="tspan4337"
         style="stroke-width:0.26458332px"><tspan
           x="62.62315"
           y="85.098557"
           id="tspan4335"
           style="stroke-width:0.26458332px">Quad Light</tspan></tspan></text>
    <text
       xml:space="preserve"
       style="font-style:normal;font-variant:normal;font-weight:normal;font-stretch:normal;font-size:2.11666656px;line-height:125%;font-family:sans-serif;-inkscape-font-specification:sans-serif;letter-spacing:0px;word-spacing:0px;fill:#000000;fill-opacity:1;stroke:none;stroke-width:0.26458332px;stroke-linecap:butt;stroke-linejoin:miter;stroke-opacity:1"
       x="115.9491"
       y="85.098557"
       id="text4351"><tspan
         sodipodi:role="line"
         x="115.9491"
         y="85.098557"
         id="tspan4349"
         style="stroke-width:0.26458332px"><tspan
           x="115.9491"
           y="85.098557"
           id="tspan4347"
           style="stroke-width:0.26458332px">Spot Light</tspan></tspan></text>
    <path
       style="opacity:1;vector-effect:none;fill:none;fill-opacity:1;fill-rule:evenodd;stroke:#000000;stroke-width:0.1;stroke-linecap:round;stroke-linejoin:miter;stroke-miterlimit:4;stroke-dasharray:none;stroke-dashoffset:0;stroke-opacity:1;marker-end:url(#marker2507)"
       d="M 67.931851,69.046932 V 59.904633"
       id="path2503"
       inkscape:connector-curvature="0" />
  </g>
</svg>
