<?xml version="1.0" encoding="UTF-8" standalone="no"?>
<!-- Created with Inkscape (http://www.inkscape.org/) -->

<svg
   xmlns:dc="http://purl.org/dc/elements/1.1/"
   xmlns:cc="http://creativecommons.org/ns#"
   xmlns:rdf="http://www.w3.org/1999/02/22-rdf-syntax-ns#"
   xmlns:svg="http://www.w3.org/2000/svg"
   xmlns="http://www.w3.org/2000/svg"
   xmlns:sodipodi="http://sodipodi.sourceforge.net/DTD/sodipodi-0.dtd"
   xmlns:inkscape="http://www.inkscape.org/namespaces/inkscape"
   width="172.30321mm"
   height="84.594368mm"
   viewBox="0 0 172.30321 84.594368"
   version="1.1"
   id="svg9103"
   inkscape:version="0.92.2 5c3e80d, 2017-08-06"
   sodipodi:docname="omega.svg">
  <sodipodi:namedview
     id="base"
     pagecolor="#ffffff"
     bordercolor="#666666"
     borderopacity="1.0"
     inkscape:pageopacity="0.0"
     inkscape:pageshadow="2"
     inkscape:zoom="1.4"
     inkscape:cx="350.20436"
     inkscape:cy="133.65721"
     inkscape:document-units="mm"
     inkscape:current-layer="layer1"
     showgrid="false"
     inkscape:window-width="1680"
     inkscape:window-height="1005"
     inkscape:window-x="0"
     inkscape:window-y="1"
     inkscape:window-maximized="1"
     inkscape:snap-global="false"
     fit-margin-top="0"
     fit-margin-left="0"
     fit-margin-right="0"
     fit-margin-bottom="0" />
  <defs
     id="defs9097">
    <marker
       inkscape:isstock="true"
       style="overflow:visible"
       id="marker10016"
       refX="0"
       refY="0"
       orient="auto"
       inkscape:stockid="Arrow2Lend">
      <path
         transform="matrix(-1.1,0,0,-1.1,-1.1,0)"
         d="M 8.7185878,4.0337352 -2.2072895,0.01601326 8.7185884,-4.0017078 c -1.7454984,2.3720609 -1.7354408,5.6174519 -6e-7,8.035443 z"
         style="fill:#000000;fill-opacity:1;fill-rule:evenodd;stroke:#000000;stroke-width:0.625;stroke-linejoin:round;stroke-opacity:1"
         id="path10014"
         inkscape:connector-curvature="0" />
    </marker>
    <marker
       inkscape:isstock="true"
       style="overflow:visible"
       id="marker9958"
       refX="0"
       refY="0"
       orient="auto"
       inkscape:stockid="Arrow2Lstart">
      <path
         transform="matrix(1.1,0,0,1.1,1.1,0)"
         d="M 8.7185878,4.0337352 -2.2072895,0.01601326 8.7185884,-4.0017078 c -1.7454984,2.3720609 -1.7354408,5.6174519 -6e-7,8.035443 z"
         style="fill:#000000;fill-opacity:1;fill-rule:evenodd;stroke:#000000;stroke-width:0.625;stroke-linejoin:round;stroke-opacity:1"
         id="path9956"
         inkscape:connector-curvature="0" />
    </marker>
    <marker
       inkscape:isstock="true"
       style="overflow:visible"
       id="Arrow2Lend"
       refX="0"
       refY="0"
       orient="auto"
       inkscape:stockid="Arrow2Lend">
      <path
         transform="matrix(-1.1,0,0,-1.1,-1.1,0)"
         d="M 8.7185878,4.0337352 -2.2072895,0.01601326 8.7185884,-4.0017078 c -1.7454984,2.3720609 -1.7354408,5.6174519 -6e-7,8.035443 z"
         style="fill:#000000;fill-opacity:1;fill-rule:evenodd;stroke:#000000;stroke-width:0.625;stroke-linejoin:round;stroke-opacity:1"
         id="path926"
         inkscape:connector-curvature="0" />
    </marker>
    <marker
       inkscape:isstock="true"
       style="overflow:visible"
       id="marker9850"
       refX="0"
       refY="0"
       orient="auto"
       inkscape:stockid="Arrow2Lstart">
      <path
         transform="matrix(1.1,0,0,1.1,1.1,0)"
         d="M 8.7185878,4.0337352 -2.2072895,0.01601326 8.7185884,-4.0017078 c -1.7454984,2.3720609 -1.7354408,5.6174519 -6e-7,8.035443 z"
         style="fill:#000000;fill-opacity:1;fill-rule:evenodd;stroke:#000000;stroke-width:0.625;stroke-linejoin:round;stroke-opacity:1"
         id="path9848"
         inkscape:connector-curvature="0" />
    </marker>
    <marker
       inkscape:stockid="Arrow1Lend"
       orient="auto"
       refY="0"
       refX="0"
       id="marker9798"
       style="overflow:visible"
       inkscape:isstock="true">
      <path
         id="path9796"
         d="M 0,0 5,-5 -12.5,0 5,5 Z"
         style="fill:#000000;fill-opacity:1;fill-rule:evenodd;stroke:#000000;stroke-width:1.00000003pt;stroke-opacity:1"
         transform="matrix(-0.8,0,0,-0.8,-10,0)"
         inkscape:connector-curvature="0" />
    </marker>
    <marker
       inkscape:isstock="true"
       style="overflow:visible"
       id="Arrow2Lstart"
       refX="0"
       refY="0"
       orient="auto"
       inkscape:stockid="Arrow2Lstart">
      <path
         transform="matrix(1.1,0,0,1.1,1.1,0)"
         d="M 8.7185878,4.0337352 -2.2072895,0.01601326 8.7185884,-4.0017078 c -1.7454984,2.3720609 -1.7354408,5.6174519 -6e-7,8.035443 z"
         style="fill:#000000;fill-opacity:1;fill-rule:evenodd;stroke:#000000;stroke-width:0.625;stroke-linejoin:round;stroke-opacity:1"
         id="path923"
         inkscape:connector-curvature="0" />
    </marker>
    <marker
       inkscape:isstock="true"
       style="overflow:visible"
       id="marker9726"
       refX="0"
       refY="0"
       orient="auto"
       inkscape:stockid="Arrow1Lend">
      <path
         transform="matrix(-0.8,0,0,-0.8,-10,0)"
         style="fill:#000000;fill-opacity:1;fill-rule:evenodd;stroke:#000000;stroke-width:1.00000003pt;stroke-opacity:1"
         d="M 0,0 5,-5 -12.5,0 5,5 Z"
         id="path9724"
         inkscape:connector-curvature="0" />
    </marker>
    <marker
       inkscape:collect="always"
       inkscape:isstock="true"
       style="overflow:visible"
       id="Arrow1Lend"
       refX="0"
       refY="0"
       orient="auto"
       inkscape:stockid="Arrow1Lend">
      <path
         transform="matrix(-0.8,0,0,-0.8,-10,0)"
         style="fill:#000000;fill-opacity:1;fill-rule:evenodd;stroke:#000000;stroke-width:1.00000003pt;stroke-opacity:1"
         d="M 0,0 5,-5 -12.5,0 5,5 Z"
         id="path908"
         inkscape:connector-curvature="0" />
    </marker>
  </defs>
  <metadata
     id="metadata9100">
    <rdf:RDF>
      <cc:Work
         rdf:about="">
        <dc:format>image/svg+xml</dc:format>
        <dc:type
           rdf:resource="http://purl.org/dc/dcmitype/StillImage" />
        <dc:title></dc:title>
      </cc:Work>
    </rdf:RDF>
  </metadata>
  <g
     id="layer1"
     inkscape:groupmode="layer"
     inkscape:label="Layer 1"
     transform="translate(-20.248608,-23.270345)">
    <path
       style="opacity:1;vector-effect:none;fill:none;fill-opacity:1;fill-rule:evenodd;stroke:#000000;stroke-width:0.15000001;stroke-linecap:butt;stroke-linejoin:miter;stroke-miterlimit:4;stroke-dasharray:none;stroke-dashoffset:0;stroke-opacity:1"
       d="M 149.53683,93.837788 V 63.741434"
       id="path11364"
       inkscape:connector-curvature="0" />
    <path
       style="opacity:1;vector-effect:none;fill:none;fill-opacity:1;fill-rule:evenodd;stroke:#000000;stroke-width:0.15000001;stroke-linecap:butt;stroke-linejoin:miter;stroke-miterlimit:4;stroke-dasharray:none;stroke-dashoffset:0;stroke-opacity:1"
       d="M 87.997142,94.543323 V 47.099992"
       id="path11362"
       inkscape:connector-curvature="0"
       sodipodi:nodetypes="cc" />
    <rect
       y="93.837784"
       x="106.21126"
       height="13.418149"
       width="85.044655"
       id="rect11360"
       style="opacity:1;fill:#c7c7c7;fill-opacity:0.19607843;stroke:#6a6a6a;stroke-width:0.15000001;stroke-linecap:round;stroke-miterlimit:4;stroke-dasharray:none;stroke-dashoffset:0;stroke-opacity:1" />
    <rect
       style="opacity:1;fill:#989898;fill-opacity:0.31372549;stroke:#6a6a6a;stroke-width:0.15000001;stroke-linecap:round;stroke-miterlimit:4;stroke-dasharray:none;stroke-dashoffset:0;stroke-opacity:1"
       id="rect11358"
       width="40.91592"
       height="12.189733"
       x="56.308891"
       y="94.499245" />
    <path
       sodipodi:nodetypes="cc"
       style="opacity:1;vector-effect:none;fill:none;fill-opacity:1;fill-rule:evenodd;stroke:#989898;stroke-width:0.15000001;stroke-linecap:round;stroke-linejoin:miter;stroke-miterlimit:4;stroke-dasharray:none;stroke-dashoffset:0;stroke-opacity:1"
       d="M 106.96726,88.357143 67.019911,66.15104"
       id="path9687"
       inkscape:connector-curvature="0" />
    <path
       inkscape:connector-curvature="0"
       id="path9685"
       d="M 106.96726,88.357143 146.74925,65.67857"
       style="opacity:1;vector-effect:none;fill:none;fill-opacity:1;fill-rule:evenodd;stroke:#989898;stroke-width:0.15000001;stroke-linecap:round;stroke-linejoin:miter;stroke-miterlimit:4;stroke-dasharray:none;stroke-dashoffset:0;stroke-opacity:1" />
    <path
       inkscape:connector-curvature="0"
       id="path9657"
       d="M 106.96726,88.357143 V 31.849703"
       style="opacity:1;vector-effect:none;fill:none;fill-opacity:1;fill-rule:evenodd;stroke:#000000;stroke-width:0.25;stroke-linecap:round;stroke-linejoin:miter;stroke-miterlimit:4;stroke-dasharray:none;stroke-dashoffset:0;stroke-opacity:1;marker-end:url(#Arrow1Lend)" />
    <path
       sodipodi:nodetypes="cccsscc"
       inkscape:connector-curvature="0"
       id="path9648"
       transform="scale(0.26458333)"
       d="m 402.14258,88.234375 c -73.94388,0.07492 -140.7877,32.144185 -183.78322,92.303045 -4.63838,5.92834 -5.44609,14.22938 -5.4805,19.27127 0,44.96245 84.736,81.41211 189.26367,81.41211 104.52767,0 189.26367,-36.44966 189.26367,-81.41211 0,-4.82259 -0.28561,-12.10962 -4.23857,-16.99955 C 544.21887,122.50092 476.18079,88.347816 402.14258,88.234375 Z"
       style="opacity:1;fill:#c7c7c7;fill-opacity:0.5308057;stroke:#000000;stroke-width:0.56692916;stroke-linecap:round;stroke-miterlimit:4;stroke-dasharray:none;stroke-dashoffset:0;stroke-opacity:1" />
    <ellipse
       cy="36.725574"
       cx="106.40029"
       id="ellipse9652"
       style="opacity:1;fill:#989898;fill-opacity:0.5308057;stroke:#000000;stroke-width:0.15000001;stroke-linecap:round;stroke-miterlimit:4;stroke-dasharray:none;stroke-dashoffset:0;stroke-opacity:1"
       rx="30.432501"
       ry="13.090504" />
    <path
       sodipodi:nodetypes="cc"
       inkscape:connector-curvature="0"
       id="path9720"
       d="m 107.36816,31.515616 c 7.89688,3.172152 14.03964,8.559061 19.37031,14.368826"
       style="opacity:1;vector-effect:none;fill:none;fill-opacity:1;fill-rule:evenodd;stroke:#000000;stroke-width:0.25;stroke-linecap:butt;stroke-linejoin:miter;stroke-miterlimit:4;stroke-dasharray:none;stroke-dashoffset:0;stroke-opacity:1;marker-start:url(#marker9850);marker-end:url(#Arrow2Lend)" />
    <path
       style="opacity:1;vector-effect:none;fill:none;fill-opacity:1;fill-rule:evenodd;stroke:#000000;stroke-width:0.25;stroke-linecap:butt;stroke-linejoin:miter;stroke-miterlimit:4;stroke-dasharray:none;stroke-dashoffset:0;stroke-opacity:1;marker-start:url(#marker9958);marker-end:url(#marker10016)"
       d="m 127.37323,46.686251 c 6.07567,6.999803 10.04829,12.793303 14.22847,20.931823"
       id="path9722"
       inkscape:connector-curvature="0"
       sodipodi:nodetypes="cc" />
    <g
       id="g11051"
       transform="matrix(0.42822742,0,0,0.42822742,82.639493,-7.2114309)">
      <g
         word-spacing="normal"
         letter-spacing="normal"
         font-size-adjust="none"
         font-stretch="normal"
         font-weight="normal"
         font-variant="normal"
         font-style="normal"
         stroke-miterlimit="10.433"
         xml:space="preserve"
         transform="matrix(0.3,0,0,-0.3,-52.5,222.75)"
         id="content"
         style="font-style:normal;font-variant:normal;font-weight:normal;font-stretch:normal;letter-spacing:normal;word-spacing:normal;text-anchor:start;fill:none;fill-opacity:1;fill-rule:evenodd;stroke:#000000;stroke-linecap:butt;stroke-linejoin:miter;stroke-miterlimit:10.43299961;stroke-dasharray:none;stroke-dashoffset:0;stroke-opacity:1"><path
           id="path11046"
           d="m 478.19,431.11 v 0.31 l -0.01,0.34 -0.02,0.36 -0.02,0.37 -0.03,0.39 -0.04,0.39 -0.04,0.41 -0.06,0.41 -0.07,0.42 -0.07,0.43 -0.09,0.42 -0.1,0.43 -0.12,0.42 -0.12,0.42 -0.14,0.41 -0.16,0.41 -0.17,0.4 -0.18,0.38 -0.2,0.37 -0.22,0.36 -0.23,0.34 -0.25,0.32 -0.28,0.3 -0.29,0.27 -0.31,0.25 -0.16,0.12 -0.17,0.1 -0.17,0.1 -0.18,0.1 -0.18,0.08 -0.19,0.08 -0.19,0.07 -0.2,0.06 -0.21,0.05 -0.21,0.05 -0.22,0.03 -0.22,0.02 -0.23,0.02 h -0.23 l -0.05,-1.09 c 2.44,0 2.73,-3.19 2.73,-6.03 0,-2.44 -0.39,-4.99 -1.59,-9.92 h -10.41 c 0.85,3.2 1.85,7.18 3.83,10.72 1.36,2.43 3.19,5.23 5.44,5.23 l 0.05,1.09 c -6.92,0 -14.6,-14.04 -14.6,-25.45 0,-4.69 1.44,-10.22 5.99,-10.22 v 1.1 c -1.66,0 -2.71,1.45 -2.71,6.07 0,2.1 0.3,4.99 1.6,9.86 h 10.37 c -0.54,-2.28 -1.59,-6.51 -3.5,-10.11 -1.73,-3.39 -3.62,-5.82 -5.76,-5.82 v -1.1 c 7.01,0 14.59,14.3 14.59,25.46 z"
           inkscape:connector-curvature="0"
           style="fill:#000000;stroke-width:0" /><path
           id="path11048"
           d="m 497.42,408.03 -0.01,0.36 -0.02,0.34 -0.04,0.34 -0.06,0.33 -0.07,0.32 -0.09,0.31 -0.1,0.3 -0.11,0.28 -0.13,0.28 -0.14,0.27 -0.16,0.25 -0.16,0.25 -0.18,0.23 -0.19,0.22 -0.2,0.22 -0.21,0.2 -0.22,0.19 -0.23,0.17 -0.24,0.17 -0.25,0.15 -0.25,0.15 -0.27,0.13 -0.27,0.12 -0.27,0.1 -0.29,0.1 -0.29,0.08 -0.3,0.07 -0.3,0.06 -0.3,0.04 -0.31,0.04 -0.32,0.01 -0.32,0.01 c -5.17,0 -10.04,-4.84 -10.04,-9.61 0,-3.48 2.54,-6.09 6.34,-6.09 l 0.03,0.97 c -1.73,0 -3.48,1.12 -3.48,3.87 0,1.42 0.67,4.85 2.03,6.83 1.5,2.16 3.52,3.06 5.08,3.06 1.89,0 3.48,-1.29 3.48,-3.87 0,-0.83 -0.4,-4.28 -1.95,-6.72 -1.31,-2.05 -3.41,-3.17 -5.16,-3.17 v 0 l -0.03,-0.97 c 4.99,0 10,4.59 10,9.61 z"
           inkscape:connector-curvature="0"
           style="fill:#000000;stroke-width:0" /></g>    </g>
    <g
       transform="matrix(0.42822742,0,0,0.42822742,100.37996,11.446461)"
       id="g11121">
      <g
         style="font-style:normal;font-variant:normal;font-weight:normal;font-stretch:normal;letter-spacing:normal;word-spacing:normal;text-anchor:start;fill:none;fill-opacity:1;fill-rule:evenodd;stroke:#000000;stroke-linecap:butt;stroke-linejoin:miter;stroke-miterlimit:10.43299961;stroke-dasharray:none;stroke-dashoffset:0;stroke-opacity:1"
         id="g11119"
         transform="matrix(0.3,0,0,-0.3,-52.5,222.75)"
         xml:space="preserve"
         stroke-miterlimit="10.433"
         font-style="normal"
         font-variant="normal"
         font-weight="normal"
         font-stretch="normal"
         font-size-adjust="none"
         letter-spacing="normal"
         word-spacing="normal"><path
           style="fill:#000000;stroke-width:0"
           inkscape:connector-curvature="0"
           d="m 478.19,431.11 v 0.31 l -0.01,0.34 -0.02,0.36 -0.02,0.37 -0.03,0.39 -0.04,0.39 -0.04,0.41 -0.06,0.41 -0.07,0.42 -0.07,0.43 -0.09,0.42 -0.1,0.43 -0.12,0.42 -0.12,0.42 -0.14,0.41 -0.16,0.41 -0.17,0.4 -0.18,0.38 -0.2,0.37 -0.22,0.36 -0.23,0.34 -0.25,0.32 -0.28,0.3 -0.29,0.27 -0.31,0.25 -0.16,0.12 -0.17,0.1 -0.17,0.1 -0.18,0.1 -0.18,0.08 -0.19,0.08 -0.19,0.07 -0.2,0.06 -0.21,0.05 -0.21,0.05 -0.22,0.03 -0.22,0.02 -0.23,0.02 h -0.23 l -0.05,-1.09 c 2.44,0 2.73,-3.19 2.73,-6.03 0,-2.44 -0.39,-4.99 -1.59,-9.92 h -10.41 c 0.85,3.2 1.85,7.18 3.83,10.72 1.36,2.43 3.19,5.23 5.44,5.23 l 0.05,1.09 c -6.92,0 -14.6,-14.04 -14.6,-25.45 0,-4.69 1.44,-10.22 5.99,-10.22 v 1.1 c -1.66,0 -2.71,1.45 -2.71,6.07 0,2.1 0.3,4.99 1.6,9.86 h 10.37 c -0.54,-2.28 -1.59,-6.51 -3.5,-10.11 -1.73,-3.39 -3.62,-5.82 -5.76,-5.82 v -1.1 c 7.01,0 14.59,14.3 14.59,25.46 z"
           id="path11115" /><path
           style="fill:#000000;stroke-width:0"
           inkscape:connector-curvature="0"
           d="m 486.73,406.7 h 0.1 0.11 0.11 0.13 l 0.13,0.01 h 0.14 l 0.15,0.01 h 0.15 l 0.17,0.01 0.16,0.01 0.18,0.01 0.18,0.01 0.18,0.01 0.19,0.02 0.38,0.03 0.4,0.04 0.4,0.05 0.41,0.06 0.41,0.07 0.4,0.08 0.19,0.05 0.2,0.04 0.19,0.05 0.19,0.06 0.18,0.05 0.18,0.06 c 2.58,0.91 3.07,2.58 3.07,3.63 0,1.92 -1.93,3.06 -4.33,3.06 v -0.97 c 1.53,0 2.83,-0.76 2.83,-2.09 0,-3.38 -5.89,-3.38 -7.39,-3.38 h -1.71 c 1.42,5.05 5.3,5.47 6.27,5.47 v 0.97 c -4.17,0 -9.83,-3.2 -9.83,-9.16 0,-3.51 2.2,-6.54 6.28,-6.54 5.89,0 8.64,3.44 8.64,3.94 0,0.2 -0.31,0.59 -0.59,0.59 -0.2,0 -0.28,-0.08 -0.56,-0.36 -2.72,-3.2 -6.8,-3.2 -7.43,-3.2 -2.09,0 -3.48,1.39 -3.48,4.22 0,0.48 0,1.18 0.42,3.09 z"
           id="path11117" /></g>    </g>
    <g
       id="g11277"
       transform="matrix(0.5361738,0,0,0.5361738,-25.209815,47.355355)">
      <g
         word-spacing="normal"
         letter-spacing="normal"
         font-size-adjust="none"
         font-stretch="normal"
         font-weight="normal"
         font-variant="normal"
         font-style="normal"
         stroke-miterlimit="10.433"
         xml:space="preserve"
         transform="matrix(0.3,0,0,-0.3,-52.5,222.75)"
         id="g11275"
         style="font-style:normal;font-variant:normal;font-weight:normal;font-stretch:normal;letter-spacing:normal;word-spacing:normal;text-anchor:start;fill:none;fill-opacity:1;fill-rule:evenodd;stroke:#000000;stroke-linecap:butt;stroke-linejoin:miter;stroke-miterlimit:10.43299961;stroke-dasharray:none;stroke-dashoffset:0;stroke-opacity:1"><path
           id="path11193"
           d="m 501.66,428.95 0.04,0.16 0.04,0.16 0.04,0.15 0.04,0.14 0.04,0.14 0.04,0.13 0.04,0.12 0.05,0.12 0.05,0.11 0.05,0.1 0.07,0.09 0.06,0.1 0.08,0.08 0.08,0.08 0.09,0.07 0.09,0.07 0.11,0.06 0.12,0.06 0.13,0.06 0.14,0.04 0.15,0.05 0.09,0.02 0.08,0.02 0.09,0.01 0.09,0.02 0.1,0.02 0.1,0.01 0.1,0.01 0.11,0.02 0.11,0.01 0.12,0.01 0.12,0.01 0.12,0.01 h 0.13 l 0.13,0.01 0.14,0.01 h 0.14 l 0.15,0.01 h 0.15 0.16 0.16 l 0.17,0.01 h 0.17 c 1.14,0 1.6,0 1.6,1 0,0.54 -0.5,0.54 -1.35,0.54 h -6.58 c -1.29,0 -1.34,0 -1.93,-0.95 l -18.19,-28.39 -3.89,28.19 c -0.16,1.15 -0.25,1.15 -1.55,1.15 h -6.83 c -0.93,0 -1.48,0 -1.48,-0.95 0,-0.59 0.44,-0.59 1.44,-0.59 0.65,0 1.54,-0.05 2.14,-0.1 0.79,-0.11 1.09,-0.25 1.09,-0.79 0,-0.21 -0.05,-0.36 -0.19,-0.96 l -6.33,-25.36 c -0.5,-2 -1.34,-3.59 -5.39,-3.73 -0.25,0 -0.89,-0.05 -0.89,-0.95 0,-0.44 0.3,-0.6 0.71,-0.6 1.59,0 3.32,0.16 4.97,0.16 1.7,0 3.5,-0.16 5.14,-0.16 0.25,0 0.89,0 0.89,1 0,0.55 -0.55,0.55 -0.89,0.55 -2.85,0.05 -3.39,1.05 -3.39,2.19 0,0.34 0.04,0.59 0.2,1.14 l 6.76,27.15 h 0.07 l 4.28,-30.89 c 0.09,-0.59 0.14,-1.14 0.75,-1.14 0.54,0 0.84,0.55 1.09,0.89 l 20.13,31.55 h 0.04 l -7.12,-28.55 c -0.5,-1.95 -0.6,-2.34 -4.53,-2.34 -0.85,0 -1.39,0 -1.39,-0.95 0,-0.6 0.59,-0.6 0.75,-0.6 1.39,0 4.78,0.16 6.17,0.16 2.05,0 4.19,-0.16 6.23,-0.16 0.3,0 0.94,0 0.94,1 0,0.55 -0.45,0.55 -1.39,0.55 -1.84,0 -3.23,0 -3.23,0.89 0,0.2 0,0.3 0.25,1.2 z"
           inkscape:connector-curvature="0"
           style="fill:#000000;stroke-width:0" /><path
           id="path11195"
           d="m 530.25,397.06 h -1.18 c -0.04,-0.11 -0.35,-1.75 -0.63,-2.55 -0.2,-0.56 -0.31,-0.84 -2.47,-0.84 H 523 c 0.6,1.95 1.61,3.31 3.57,5.92 1.7,2.31 3.23,4.61 3.23,7.42 0,4.7 -5.05,8.69 -11.73,8.69 -6.71,0 -11.75,-3.99 -11.75,-8.69 0,-3.06 1.67,-5.33 4.11,-8.59 1.01,-1.33 2.12,-2.89 2.68,-4.75 h -2.97 c -2.07,0 -2.21,0.28 -2.39,0.67 -0.28,0.66 -0.7,2.64 -0.7,2.72 h -1.19 l 1.25,-5.86 h 6.29 c 0.73,0 0.96,0 0.96,0.76 0,2.52 -1.28,5.47 -2.01,7.18 -1.33,3.07 -2.3,5.34 -2.3,7.92 0,4.94 3.94,7.65 8.02,7.65 4.11,0 8.01,-2.75 8.01,-7.65 0,-2.63 -1.05,-5.02 -2.23,-7.74 -0.77,-1.75 -2.1,-4.81 -2.1,-7.32 0,-0.8 0.21,-0.8 1.02,-0.8 H 529 Z"
           inkscape:connector-curvature="0"
           style="fill:#000000;stroke-width:0" /><path
           id="path11197"
           d="m 582.88,415.06 h 0.13 0.15 l 0.14,0.01 h 0.08 0.07 l 0.07,0.01 0.07,0.01 0.07,0.01 0.07,0.01 0.07,0.01 0.07,0.02 0.06,0.02 0.06,0.02 0.07,0.03 0.05,0.02 0.06,0.03 0.05,0.04 0.05,0.04 0.05,0.04 0.04,0.04 0.04,0.05 0.02,0.03 0.02,0.03 0.01,0.03 0.02,0.03 0.01,0.03 0.02,0.03 0.01,0.03 0.01,0.04 0.01,0.03 0.01,0.04 0.01,0.04 v 0.04 l 0.01,0.04 v 0.04 0.05 0.04 c 0,1 -0.95,1 -1.64,1 h -29.84 c -0.7,0 -1.64,0 -1.64,-1 0,-0.98 0.94,-0.98 1.68,-0.98 z"
           inkscape:connector-curvature="0"
           style="fill:#000000;stroke-width:0" /><path
           id="path11199"
           d="m 582.92,405.39 h 0.07 0.06 0.14 0.14 l 0.07,0.01 h 0.07 l 0.07,0.01 0.07,0.01 0.07,0.01 0.06,0.01 0.07,0.01 0.06,0.02 0.07,0.02 0.06,0.02 0.06,0.03 0.06,0.02 0.05,0.04 0.05,0.03 0.05,0.04 0.05,0.04 0.04,0.05 0.02,0.02 0.02,0.03 0.02,0.03 0.02,0.02 0.02,0.03 0.01,0.03 0.01,0.03 0.02,0.04 0.01,0.03 0.01,0.04 0.01,0.03 0.01,0.04 0.01,0.04 v 0.04 l 0.01,0.04 v 0.05 0.04 0.05 c 0,1 -0.95,1 -1.68,1 h -29.76 c -0.74,0 -1.68,0 -1.68,-1 0,-1 0.94,-1 1.64,-1 z"
           inkscape:connector-curvature="0"
           style="fill:#000000;stroke-width:0" /><path
           id="path11201"
           d="m 607.53,402.61 5.28,5.12 c 7.76,6.88 10.76,9.56 10.76,14.55 0,5.68 -4.48,9.67 -10.56,9.67 -5.64,0 -9.33,-4.59 -9.33,-9.03 0,-2.78 2.5,-2.78 2.64,-2.78 0.86,0 2.6,0.59 2.6,2.64 0,1.29 -0.89,2.59 -2.64,2.59 -0.39,0 -0.5,0 -0.64,-0.05 1.14,3.24 3.83,5.08 6.71,5.08 4.54,0 6.69,-4.04 6.69,-8.12 0,-3.99 -2.5,-7.92 -5.23,-11.02 l -9.56,-10.65 c -0.57,-0.55 -0.57,-0.65 -0.57,-1.85 h 18.49 l 1.4,8.67 h -1.25 c -0.25,-1.5 -0.59,-3.68 -1.09,-4.43 -0.36,-0.39 -3.64,-0.39 -4.73,-0.39 z"
           inkscape:connector-curvature="0"
           style="fill:#000000;stroke-width:0" /><path
           id="path11203"
           d="m 639.36,417.34 h 5.62 c -1.64,-7.38 -2.09,-9.52 -2.09,-12.84 0,-0.75 0,-2.1 0.41,-3.8 0.5,-2.19 1.04,-2.49 1.79,-2.49 0.99,0 2.03,0.9 2.03,1.9 0,0.29 0,0.4 -0.29,1.09 -1.44,3.59 -1.44,6.83 -1.44,8.22 0,2.64 0.34,5.34 0.89,7.92 h 5.69 c 0.64,0 2.44,0 2.44,1.7 0,1.19 -1.05,1.19 -2,1.19 h -16.69 c -1.1,0 -2.99,0 -5.17,-2.34 -1.75,-1.94 -3.05,-4.24 -3.05,-4.49 0,-0.04 0,-0.48 0.59,-0.48 0.41,0 0.5,0.19 0.8,0.59 2.45,3.83 5.34,3.83 6.33,3.83 h 2.84 c -1.59,-6.02 -4.28,-12.05 -6.37,-16.58 -0.41,-0.75 -0.41,-0.86 -0.41,-1.2 0,-0.95 0.8,-1.35 1.45,-1.35 1.5,0 1.89,1.4 2.49,3.24 0.7,2.3 0.7,2.39 1.34,4.89 z"
           inkscape:connector-curvature="0"
           style="fill:#000000;stroke-width:0" /><polygon
           id="polygon11205"
           points="687.24,453.62 687.24,455.96 675.95,455.96 675.95,366.32 687.24,366.32 687.24,368.66 678.27,368.66 678.27,453.62 "
           style="fill:#000000;stroke-width:0" /><path
           id="path11207"
           d="m 704.68,386.81 v 0.03 0.02 0.02 0.01 0.01 l -0.01,0.02 v 0.02 l -0.01,0.01 -0.01,0.02 -0.01,0.02 -0.01,0.03 -0.02,0.02 -0.01,0.02 -0.02,0.03 -0.02,0.03 -0.03,0.03 -0.02,0.04 -0.03,0.03 -0.02,0.02 -0.01,0.02 -0.02,0.02 -0.02,0.02 -0.02,0.03 -0.02,0.02 -0.02,0.02 -0.02,0.03 -0.02,0.02 -0.03,0.03 -0.02,0.02 -0.03,0.03 -0.03,0.03 -0.02,0.03 -0.03,0.03 -0.03,0.03 -0.03,0.03 -0.03,0.03 -0.04,0.04 -0.03,0.03 -0.04,0.04 -0.03,0.04 -0.04,0.03 -0.04,0.04 c -6.22,6.28 -7.81,15.69 -7.81,23.31 0,8.68 1.89,17.35 8.01,23.57 0.64,0.61 0.64,0.7 0.64,0.86 0,0.34 -0.18,0.48 -0.48,0.48 -0.5,0 -4.98,-3.37 -7.92,-9.7 -2.55,-5.49 -3.14,-11.02 -3.14,-15.21 0,-3.89 0.54,-9.9 3.28,-15.54 2.98,-6.13 7.28,-9.36 7.78,-9.36 0.3,0 0.48,0.14 0.48,0.5 z"
           inkscape:connector-curvature="0"
           style="fill:#000000;stroke-width:0" /><path
           id="path11209"
           d="m 722.16,430.65 v 0.06 0.05 0.05 0.05 0.05 0.05 l -0.01,0.04 v 0.05 0.04 0.04 0.04 0.04 0.04 l -0.01,0.04 v 0.03 0.04 l -0.01,0.06 -0.01,0.06 -0.01,0.05 -0.01,0.05 -0.02,0.05 -0.02,0.04 -0.02,0.04 -0.03,0.04 -0.02,0.03 -0.04,0.03 -0.03,0.02 -0.04,0.02 -0.05,0.02 -0.02,0.01 -0.02,0.01 h -0.03 l -0.03,0.01 -0.03,0.01 h -0.02 l -0.04,0.01 h -0.03 l -0.03,0.01 h -0.04 -0.03 l -0.04,0.01 h -0.04 -0.04 -0.04 l -0.04,0.01 h -0.05 -0.04 -0.05 -0.05 -0.05 -0.05 c -3.1,-3.19 -7.47,-3.19 -9.07,-3.19 v -1.55 c 1,0 3.94,0 6.52,1.3 V 402.7 c 0,-1.8 -0.14,-2.39 -4.63,-2.39 h -1.59 v -1.55 c 1.75,0.16 6.08,0.16 8.06,0.16 2,0 6.33,0 8.08,-0.16 v 1.55 h -1.59 c -4.49,0 -4.64,0.55 -4.64,2.39 z"
           inkscape:connector-curvature="0"
           style="fill:#000000;stroke-width:0" /><path
           id="path11211"
           d="m 776.34,410.21 0.16,0.01 h 0.16 0.15 l 0.08,0.01 h 0.08 l 0.08,0.01 0.07,0.01 0.07,0.01 0.07,0.01 0.07,0.01 0.07,0.02 0.07,0.02 0.06,0.02 0.06,0.02 0.06,0.03 0.06,0.03 0.05,0.04 0.05,0.04 0.04,0.04 0.05,0.05 0.04,0.05 0.01,0.02 0.02,0.03 0.02,0.03 0.01,0.03 0.01,0.03 0.02,0.04 0.01,0.03 0.01,0.03 0.01,0.04 0.01,0.04 V 411 l 0.01,0.04 v 0.04 l 0.01,0.04 v 0.05 0.04 c 0,1 -0.91,1 -1.75,1 h -26.95 c -0.85,0 -1.74,0 -1.74,-1 0,-1 0.89,-1 1.74,-1 z"
           inkscape:connector-curvature="0"
           style="fill:#000000;stroke-width:0" /><path
           id="path11213"
           d="M 799.14,409.62 V 410 l 0.01,0.37 0.02,0.35 0.02,0.35 0.02,0.35 0.03,0.33 0.04,0.33 0.04,0.31 0.05,0.31 0.05,0.3 0.06,0.3 0.06,0.28 0.13,0.55 0.15,0.52 0.17,0.48 0.18,0.46 0.2,0.43 0.21,0.4 0.22,0.38 0.23,0.35 0.24,0.33 0.25,0.3 0.26,0.27 0.26,0.26 0.27,0.23 0.27,0.21 0.28,0.19 0.28,0.17 0.29,0.15 0.28,0.13 0.28,0.11 0.28,0.09 0.28,0.08 0.28,0.06 0.27,0.05 0.26,0.03 0.26,0.02 0.26,0.01 c 0.43,0 3.57,-0.05 5.32,-1.84 -2.04,-0.16 -2.34,-1.64 -2.34,-2.3 0,-1.3 0.89,-2.3 2.3,-2.3 1.28,0 2.28,0.86 2.28,2.35 0,3.39 -3.78,5.32 -7.63,5.32 -6.22,0 -10.81,-5.37 -10.81,-11.54 0,-6.38 4.94,-11.32 10.72,-11.32 6.67,0 8.26,5.99 8.26,6.47 0,0.5 -0.5,0.5 -0.64,0.5 -0.45,0 -0.54,-0.18 -0.65,-0.5 -1.44,-4.62 -4.67,-5.22 -6.52,-5.22 -2.64,0 -7.03,2.15 -7.03,10.16 z"
           inkscape:connector-curvature="0"
           style="fill:#000000;stroke-width:0" /><path
           id="path11215"
           d="m 838.86,409.42 -0.02,0.59 -0.04,0.59 -0.07,0.58 -0.1,0.57 -0.12,0.56 -0.15,0.55 -0.18,0.54 -0.19,0.53 -0.23,0.51 -0.24,0.51 -0.27,0.48 -0.29,0.48 -0.3,0.46 -0.33,0.44 -0.35,0.42 -0.37,0.41 -0.38,0.38 -0.4,0.37 -0.42,0.35 -0.43,0.33 -0.45,0.3 -0.46,0.28 -0.47,0.26 -0.49,0.24 -0.5,0.21 -0.51,0.18 -0.52,0.16 -0.53,0.13 -0.54,0.11 -0.55,0.07 -0.55,0.05 -0.57,0.01 -0.04,-1.09 c 2.18,0 4.32,-1.09 5.62,-3.23 1.3,-2.14 1.3,-5.04 1.3,-6.93 0,-1.79 0,-4.48 -1.1,-6.67 -1.09,-2.25 -3.28,-3.69 -5.78,-3.69 v 0 c -2.14,0 -4.32,1.05 -5.67,3.33 -1.25,2.21 -1.25,5.24 -1.25,7.03 0,1.94 0,4.63 1.19,6.83 1.36,2.28 3.69,3.33 5.69,3.33 l 0.04,1.09 c -6.22,0 -11.06,-5.42 -11.06,-11.65 0,-6.42 5.19,-11.21 11.02,-11.21 6.03,0 11.06,4.88 11.06,11.21 z"
           inkscape:connector-curvature="0"
           style="fill:#000000;stroke-width:0" /><path
           id="path11217"
           d="m 850.71,408.43 0.11,-0.02 0.13,-0.02 0.14,-0.03 0.15,-0.03 0.17,-0.04 0.18,-0.05 0.19,-0.05 0.2,-0.05 0.2,-0.07 0.22,-0.07 0.21,-0.08 0.22,-0.08 0.22,-0.1 0.22,-0.1 0.22,-0.11 0.22,-0.12 0.22,-0.13 0.21,-0.14 0.2,-0.16 0.2,-0.16 0.19,-0.18 0.18,-0.18 0.17,-0.2 0.16,-0.21 0.14,-0.23 0.07,-0.12 0.06,-0.12 0.06,-0.12 0.05,-0.13 0.05,-0.13 0.05,-0.14 0.04,-0.14 0.03,-0.14 0.03,-0.15 0.03,-0.15 0.02,-0.15 0.01,-0.16 0.01,-0.16 0.01,-0.17 c 0,-2.53 -1.75,-4.53 -5.63,-4.53 -4.19,0 -5.99,2.84 -6.94,7.08 -0.14,0.64 -0.18,0.84 -0.68,0.84 -0.66,0 -0.66,-0.34 -0.66,-1.25 v -6.58 c 0,-0.84 0,-1.19 0.54,-1.19 0.25,0 0.3,0.05 1.25,1 0.1,0.1 0.1,0.19 1,1.15 2.19,-2.1 4.44,-2.15 5.49,-2.15 5.72,0 8.01,3.35 8.01,6.93 0,2.64 -1.5,4.14 -2.09,4.73 -1.64,1.59 -3.59,2 -5.69,2.39 -2.78,0.55 -6.12,1.2 -6.12,4.1 0,1.73 1.3,3.78 5.58,3.78 5.48,0 5.73,-4.49 5.82,-6.03 0.07,-0.46 0.5,-0.46 0.62,-0.46 0.63,0 0.63,0.25 0.63,1.21 v 5.03 c 0,0.84 0,1.18 -0.54,1.18 -0.25,0 -0.34,0 -1,-0.59 -0.14,-0.2 -0.64,-0.64 -0.84,-0.8 -1.9,1.39 -3.94,1.39 -4.69,1.39 -6.08,0 -7.97,-3.32 -7.97,-6.12 0,-1.74 0.79,-3.14 2.14,-4.24 1.59,-1.29 3,-1.59 6.58,-2.28 z"
           inkscape:connector-curvature="0"
           style="fill:#000000;stroke-width:0" /><path
           id="path11219"
           d="m 890.98,423.67 -0.01,0.32 v 0.34 l -0.02,0.35 -0.02,0.37 -0.03,0.39 -0.04,0.4 -0.05,0.4 -0.05,0.42 -0.07,0.42 -0.08,0.42 -0.09,0.42 -0.1,0.43 -0.11,0.42 -0.13,0.42 -0.14,0.42 -0.15,0.4 -0.17,0.4 -0.18,0.39 -0.21,0.37 -0.21,0.35 -0.24,0.34 -0.25,0.32 -0.27,0.3 -0.29,0.27 -0.31,0.25 -0.16,0.12 -0.17,0.11 -0.17,0.1 -0.18,0.09 -0.18,0.09 -0.19,0.07 -0.2,0.07 -0.2,0.06 -0.2,0.06 -0.21,0.04 -0.22,0.03 -0.22,0.03 -0.23,0.01 -0.24,0.01 -0.04,-1.1 c 2.43,0 2.73,-3.18 2.73,-6.03 0,-2.44 -0.39,-4.98 -1.59,-9.92 h -10.41 c 0.84,3.2 1.84,7.19 3.83,10.72 1.36,2.44 3.19,5.23 5.44,5.23 l 0.04,1.1 c -6.92,0 -14.59,-14.05 -14.59,-25.46 0,-4.68 1.44,-10.22 5.98,-10.22 v 1.1 c -1.65,0 -2.7,1.45 -2.7,6.08 0,2.09 0.3,4.98 1.59,9.86 h 10.38 c -0.55,-2.29 -1.6,-6.52 -3.5,-10.11 -1.74,-3.39 -3.63,-5.83 -5.77,-5.83 v -1.1 c 7.02,0 14.6,14.3 14.6,25.46 z"
           inkscape:connector-curvature="0"
           style="fill:#000000;stroke-width:0" /><path
           id="path11221"
           d="m 910.22,400.46 -0.01,0.36 -0.02,0.35 -0.05,0.34 -0.05,0.33 -0.07,0.32 -0.09,0.31 -0.1,0.29 -0.12,0.29 -0.12,0.28 -0.15,0.27 -0.15,0.25 -0.17,0.25 -0.17,0.23 -0.19,0.22 -0.2,0.21 -0.21,0.21 -0.22,0.18 -0.23,0.18 -0.24,0.17 -0.25,0.15 -0.25,0.15 -0.27,0.13 -0.27,0.11 -0.28,0.11 -0.28,0.1 -0.29,0.08 -0.3,0.07 -0.3,0.06 -0.31,0.04 -0.31,0.03 -0.31,0.02 -0.32,0.01 c -5.17,0 -10.04,-4.85 -10.04,-9.61 0,-3.49 2.54,-6.09 6.34,-6.09 l 0.03,0.96 c -1.73,0 -3.48,1.13 -3.48,3.88 0,1.42 0.67,4.84 2.03,6.83 1.5,2.15 3.51,3.06 5.08,3.06 1.89,0 3.48,-1.3 3.48,-3.88 0,-0.82 -0.41,-4.28 -1.95,-6.71 -1.32,-2.05 -3.41,-3.18 -5.16,-3.18 v 0 l -0.03,-0.96 c 4.98,0 10,4.59 10,9.6 z"
           inkscape:connector-curvature="0"
           style="fill:#000000;stroke-width:0" /><path
           id="path11223"
           d="m 928.19,411.21 v 0.38 l -0.01,0.38 v 0.39 l -0.02,0.41 -0.04,0.84 -0.06,0.88 -0.08,0.92 -0.11,0.95 -0.13,0.98 -0.16,1 -0.2,1.02 -0.23,1.04 -0.27,1.05 -0.3,1.06 -0.35,1.06 -0.39,1.07 -0.22,0.53 -0.22,0.53 -0.24,0.53 -0.25,0.53 c -2.98,6.13 -7.26,9.36 -7.76,9.36 -0.3,0 -0.5,-0.19 -0.5,-0.48 0,-0.16 0,-0.25 0.93,-1.16 4.89,-4.92 7.74,-12.84 7.74,-23.27 0,-8.51 -1.85,-17.28 -8.04,-23.56 -0.63,-0.59 -0.63,-0.7 -0.63,-0.84 0,-0.3 0.2,-0.5 0.5,-0.5 0.5,0 4.96,3.39 7.92,9.72 2.53,5.47 3.12,11 3.12,15.18 z"
           inkscape:connector-curvature="0"
           style="fill:#000000;stroke-width:0" /><path
           id="path11225"
           d="m 964.65,410.21 h 13.91 c 0.69,0 1.64,0 1.64,1 0,1 -0.95,1 -1.64,1 h -13.91 v 13.96 c 0,0.69 0,1.64 -1,1.64 -0.98,0 -0.98,-0.95 -0.98,-1.64 v -13.96 h -13.95 c -0.71,0 -1.65,0 -1.65,-1 0,-1 0.94,-1 1.65,-1 h 13.95 v -13.93 c 0,-0.71 0,-1.66 0.98,-1.66 1,0 1,0.95 1,1.66 z"
           inkscape:connector-curvature="0"
           style="fill:#000000;stroke-width:0" /><path
           id="path11227"
           d="m 1007.6,395 v -0.38 -0.37 l -0.1,-0.72 -0.1,-0.68 -0.1,-0.65 -0.1,-0.61 -0.1,-0.59 -0.1,-0.55 -0.1,-0.53 -0.1,-0.49 -0.1,-0.47 -0.1,-0.44 -0.2,-0.41 -0.1,-0.38 -0.2,-0.36 -0.1,-0.33 -0.2,-0.31 -0.2,-0.29 -0.1,-0.26 -0.2,-0.24 -0.2,-0.21 -0.2,-0.2 -0.2,-0.17 -0.2,-0.16 -0.2,-0.13 -0.2,-0.12 -0.3,-0.1 -0.2,-0.08 -0.2,-0.07 -0.3,-0.05 -0.2,-0.03 -0.3,-0.02 -0.3,-0.01 c -0.6,0 -2.1,0.14 -3.14,1.05 1.44,0.18 1.84,1.34 1.84,2.03 0,1.45 -1.09,2.09 -2.05,2.09 -0.98,0 -2.07,-0.64 -2.07,-2.14 0,-2.39 2.48,-4.12 5.42,-4.12 4.8,0 7.2,4.32 8.3,8.81 0.6,2.59 2.4,17.09 2.8,22.61 l 1,12.4 c 0.6,9.18 2.4,10.43 4.6,10.43 0.5,0 2,-0.11 3.1,-1.05 -1.4,-0.2 -1.8,-1.34 -1.8,-2.05 0,-1.44 1.1,-2.09 2,-2.09 1,0 2.1,0.65 2.1,2.14 0,2.39 -2.5,4.14 -5.5,4.14 -4.7,0 -6.6,-4.83 -7.5,-8.63 -0.6,-2.73 -2.4,-16.78 -2.8,-22.81 z"
           inkscape:connector-curvature="0"
           style="fill:#000000;stroke-width:0" /><path
           id="path11229"
           d="m 1045.1,443.45 v 0.34 0.35 0.34 0.34 l -0.1,0.35 v 0.33 l -0.1,0.34 v 0.33 l -0.1,0.33 -0.1,0.32 -0.1,0.32 -0.1,0.31 -0.1,0.3 -0.1,0.29 -0.2,0.29 -0.1,0.27 -0.1,0.26 -0.2,0.26 -0.2,0.24 -0.2,0.22 -0.2,0.22 -0.2,0.19 -0.2,0.19 -0.2,0.16 -0.2,0.15 -0.3,0.14 -0.2,0.11 -0.3,0.1 -0.3,0.07 -0.3,0.06 -0.3,0.03 -0.3,0.01 v -0.97 c 2.2,0 2.2,-3.87 2.2,-4.53 0,-1.36 -0.3,-3.39 -1,-6.31 h -8.1 c 1.8,7.53 4.8,10.84 6.9,10.84 v 0.97 c -5.2,0 -10.8,-9.34 -10.8,-17.31 0,-4.16 1.6,-7.56 4.8,-7.56 v 0.97 c -1.9,0 -2.2,2.65 -2.2,4.53 0,2.29 0.7,5.01 1,6.31 h 8.1 c -1,-3.8 -1.8,-5.69 -2.8,-7.39 -1.1,-1.81 -2.5,-3.45 -4.1,-3.45 v -0.97 c 5.3,0 10.8,9.51 10.8,17.31 z"
           inkscape:connector-curvature="0"
           style="fill:#000000;stroke-width:0" /><path
           id="path11231"
           d="m 1059.2,423.07 v -0.06 -0.06 l 0.1,-0.07 v -0.07 l 0.1,-0.07 v -0.07 l 0.1,-0.07 0.1,-0.08 v -0.07 l 0.1,-0.08 0.1,-0.07 0.1,-0.08 0.1,-0.07 0.1,-0.07 0.1,-0.07 0.1,-0.07 0.1,-0.07 0.2,-0.07 0.1,-0.06 0.1,-0.06 0.2,-0.06 0.1,-0.06 0.2,-0.05 0.2,-0.04 0.2,-0.04 0.1,-0.04 0.2,-0.03 0.2,-0.03 0.3,-0.02 0.2,-0.02 0.2,-0.01 h 0.2 c 4.8,0 6.1,7.98 6.1,9.17 0,1.72 -1,2.14 -1.5,2.14 -0.8,0 -1.4,-0.8 -1.4,-1.44 0,-0.47 0.3,-0.72 0.4,-0.84 0.7,-0.53 1,-1.17 1,-1.91 0,-0.64 -1.3,-6.26 -4.4,-6.26 -1,0 -2.4,0.29 -2.4,2.26 0,0.05 0,0.52 0.2,1.27 0.2,1 0.9,3.86 1.2,5.19 0.1,0.39 0.1,0.43 0.1,0.56 0,0.54 -0.4,0.87 -0.9,0.87 -0.4,0 -0.8,-0.22 -1.1,-0.64 -0.1,-0.17 -0.3,-1.09 -0.5,-1.65 -0.3,-1.41 -0.3,-1.47 -0.7,-2.86 -0.2,-0.8 -0.4,-1.74 -0.4,-2.43 0.1,-0.39 0,-0.51 -0.2,-0.93 -1,-1.64 -2,-1.64 -2.4,-1.64 -0.4,0 -1.4,0.04 -2,0.59 -0.6,0.58 -0.6,1.5 -0.6,1.77 0,1.01 0.3,2.04 1.3,4.57 0.2,0.5 0.4,0.88 0.4,1.3 0,1.22 -1.2,2.2 -2.7,2.2 -2.7,0 -4,-3.18 -4,-3.86 0,-0.35 0.3,-0.35 0.5,-0.35 0.4,0 0.4,0.12 0.5,0.5 0.6,1.71 1.7,2.85 2.8,2.85 0.5,0 0.8,-0.26 0.8,-0.93 0,-0.5 -0.1,-0.78 -0.4,-1.5 -1.3,-3.24 -1.3,-3.88 -1.3,-4.49 0,-2.86 2.5,-3.51 4.6,-3.51 0.5,0 1.8,0 3.1,1.79 z"
           inkscape:connector-curvature="0"
           style="fill:#000000;stroke-width:0" /><path
           id="path11233"
           d="m 1035.4,397.97 v 0.34 0.35 0.34 l -0.1,0.34 v 0.35 0.33 l -0.1,0.34 -0.1,0.33 v 0.33 l -0.1,0.32 -0.1,0.32 -0.1,0.31 -0.1,0.3 -0.1,0.29 -0.2,0.29 -0.1,0.27 -0.2,0.26 -0.1,0.26 -0.2,0.24 -0.2,0.22 -0.2,0.22 -0.2,0.19 -0.2,0.19 -0.2,0.16 -0.2,0.15 -0.3,0.14 -0.2,0.11 -0.3,0.1 -0.3,0.07 -0.3,0.06 -0.3,0.03 -0.3,0.01 v -0.97 c 2.2,0 2.2,-3.87 2.2,-4.53 0,-1.36 -0.3,-3.39 -1,-6.31 h -8.1 c 1.8,7.53 4.8,10.84 6.9,10.84 v 0.97 c -5.2,0 -10.8,-9.34 -10.8,-17.31 0,-4.16 1.6,-7.56 4.8,-7.56 v 0.96 c -1.9,0 -2.2,2.66 -2.2,4.54 0,2.29 0.7,5.01 1,6.31 h 8.1 c -1,-3.8 -1.8,-5.69 -2.8,-7.39 -1.1,-1.81 -2.5,-3.46 -4.1,-3.46 v -0.96 c 5.3,0 10.8,9.51 10.8,17.31 z"
           inkscape:connector-curvature="0"
           style="fill:#000000;stroke-width:0" /><path
           id="path11235"
           d="m 1052.3,382.45 v 0.23 0.23 0.22 l -0.1,0.22 v 0.22 l -0.1,0.22 -0.1,0.21 -0.1,0.2 -0.1,0.2 -0.1,0.2 -0.1,0.19 -0.1,0.18 -0.1,0.18 -0.2,0.17 -0.1,0.17 -0.2,0.15 -0.2,0.15 -0.2,0.15 -0.2,0.13 -0.2,0.13 -0.2,0.12 -0.2,0.11 -0.2,0.1 -0.3,0.09 -0.2,0.08 -0.3,0.07 -0.2,0.06 -0.3,0.05 -0.3,0.04 -0.2,0.03 -0.3,0.02 -0.3,0.01 c -4.2,0 -7.9,-3.39 -7.9,-6.75 0,-2.55 2.1,-4.55 5.2,-4.55 l 0.1,0.86 c -1.2,0 -3,0.56 -3,2.91 0,0.75 0.3,3.18 1.7,4.82 0.9,1.11 2.4,1.85 3.8,1.85 1.4,0 3,-0.69 3,-2.91 0,-0.7 -0.3,-3.01 -1.5,-4.58 -1.2,-1.5 -2.8,-2.09 -4,-2.09 v 0 l -0.1,-0.86 c 4.2,0 7.9,3.42 7.9,6.77 z"
           inkscape:connector-curvature="0"
           style="fill:#000000;stroke-width:0" /><path
           id="path11237"
           d="m 1091.2,409.62 v 0.38 0.37 l 0.1,0.35 v 0.35 0.35 0.33 l 0.1,0.33 v 0.31 l 0.1,0.31 v 0.3 l 0.1,0.3 v 0.28 l 0.2,0.55 0.1,0.52 0.2,0.48 0.2,0.46 0.2,0.43 0.2,0.4 0.2,0.38 0.2,0.35 0.3,0.33 0.2,0.3 0.3,0.27 0.2,0.26 0.3,0.23 0.3,0.21 0.2,0.19 0.3,0.17 0.3,0.15 0.3,0.13 0.3,0.11 0.3,0.09 0.2,0.08 0.3,0.06 0.3,0.05 0.2,0.03 0.3,0.02 0.3,0.01 c 0.4,0 3.5,-0.05 5.3,-1.84 -2.1,-0.16 -2.4,-1.64 -2.4,-2.3 0,-1.3 0.9,-2.3 2.3,-2.3 1.3,0 2.3,0.86 2.3,2.35 0,3.39 -3.8,5.32 -7.6,5.32 -6.2,0 -10.8,-5.37 -10.8,-11.54 0,-6.38 4.9,-11.32 10.7,-11.32 6.7,0 8.3,5.99 8.3,6.47 0,0.5 -0.5,0.5 -0.7,0.5 -0.4,0 -0.5,-0.18 -0.6,-0.5 -1.5,-4.62 -4.7,-5.22 -6.5,-5.22 -2.7,0 -7.1,2.15 -7.1,10.16 z"
           inkscape:connector-curvature="0"
           style="fill:#000000;stroke-width:0" /><path
           id="path11239"
           d="m 1130.9,409.42 v 0.59 0.59 l -0.1,0.58 -0.1,0.57 -0.1,0.56 -0.2,0.55 -0.1,0.54 -0.2,0.53 -0.2,0.51 -0.3,0.51 -0.3,0.48 -0.2,0.48 -0.4,0.46 -0.3,0.44 -0.3,0.42 -0.4,0.41 -0.4,0.38 -0.4,0.37 -0.4,0.35 -0.4,0.33 -0.5,0.3 -0.4,0.28 -0.5,0.26 -0.5,0.24 -0.5,0.21 -0.5,0.18 -0.5,0.16 -0.6,0.13 -0.5,0.11 -0.6,0.07 -0.5,0.05 -0.6,0.01 v -1.09 c 2.2,0 4.3,-1.09 5.6,-3.23 1.3,-2.14 1.3,-5.04 1.3,-6.93 0,-1.79 0,-4.48 -1.1,-6.67 -1.1,-2.25 -3.3,-3.69 -5.8,-3.69 v 0 c -2.1,0 -4.3,1.05 -5.6,3.33 -1.3,2.21 -1.3,5.24 -1.3,7.03 0,1.94 0,4.63 1.2,6.83 1.4,2.28 3.7,3.33 5.7,3.33 v 1.09 c -6.2,0 -11,-5.42 -11,-11.65 0,-6.42 5.2,-11.21 11,-11.21 6,0 11,4.88 11,11.21 z"
           inkscape:connector-curvature="0"
           style="fill:#000000;stroke-width:0" /><path
           id="path11241"
           d="m 1142.8,408.43 0.1,-0.02 0.1,-0.02 0.2,-0.03 0.1,-0.03 0.2,-0.04 0.2,-0.05 0.2,-0.05 0.2,-0.05 0.2,-0.07 0.2,-0.07 0.2,-0.08 0.2,-0.08 0.2,-0.1 0.3,-0.1 0.2,-0.11 0.2,-0.12 0.2,-0.13 0.2,-0.14 0.2,-0.16 0.2,-0.16 0.2,-0.18 0.2,-0.18 0.2,-0.2 0.1,-0.21 0.2,-0.23 v -0.12 l 0.1,-0.12 0.1,-0.12 v -0.13 l 0.1,-0.13 v -0.14 -0.14 l 0.1,-0.14 v -0.15 -0.15 l 0.1,-0.15 v -0.16 -0.16 -0.17 c 0,-2.53 -1.8,-4.53 -5.6,-4.53 -4.2,0 -6,2.84 -7,7.08 -0.1,0.64 -0.2,0.84 -0.7,0.84 -0.6,0 -0.6,-0.34 -0.6,-1.25 v -6.58 c 0,-0.84 0,-1.19 0.5,-1.19 0.3,0 0.3,0.05 1.3,1 0.1,0.1 0.1,0.19 1,1.15 2.2,-2.1 4.4,-2.15 5.5,-2.15 5.7,0 8,3.35 8,6.93 0,2.64 -1.5,4.14 -2.1,4.73 -1.7,1.59 -3.6,2 -5.7,2.39 -2.8,0.55 -6.1,1.2 -6.1,4.1 0,1.73 1.3,3.78 5.5,3.78 5.5,0 5.8,-4.49 5.9,-6.03 0,-0.46 0.5,-0.46 0.6,-0.46 0.6,0 0.6,0.25 0.6,1.21 v 5.03 c 0,0.84 0,1.18 -0.5,1.18 -0.3,0 -0.4,0 -1,-0.59 -0.2,-0.2 -0.7,-0.64 -0.9,-0.8 -1.9,1.39 -3.9,1.39 -4.7,1.39 -6,0 -7.9,-3.32 -7.9,-6.12 0,-1.74 0.8,-3.14 2.1,-4.24 1.6,-1.29 3,-1.59 6.6,-2.28 z"
           inkscape:connector-curvature="0"
           style="fill:#000000;stroke-width:0" /><path
           id="path11243"
           d="m 1168.5,386.81 v 0.03 0.02 0.02 0.01 0.01 0.02 0.02 0.01 l -0.1,0.02 v 0.02 0.03 0.02 0.02 0.03 0.03 l -0.1,0.03 v 0.04 0.03 0.02 l -0.1,0.02 v 0.02 0.02 0.03 0.02 l -0.1,0.02 v 0.03 0.02 0.03 0.02 l -0.1,0.03 v 0.03 0.03 l -0.1,0.03 v 0.03 0.03 0.03 l -0.1,0.04 v 0.03 0.04 l -0.1,0.04 v 0.03 l -0.1,0.04 c -6.2,6.28 -7.8,15.69 -7.8,23.31 0,8.68 1.9,17.35 8,23.57 0.7,0.61 0.7,0.7 0.7,0.86 0,0.34 -0.2,0.48 -0.5,0.48 -0.5,0 -5,-3.37 -7.9,-9.7 -2.6,-5.49 -3.2,-11.02 -3.2,-15.21 0,-3.89 0.6,-9.9 3.3,-15.54 3,-6.13 7.3,-9.36 7.8,-9.36 0.3,0 0.5,0.14 0.5,0.5 z"
           inkscape:connector-curvature="0"
           style="fill:#000000;stroke-width:0" /><path
           id="path11245"
           d="m 1187.9,413.81 0.1,0.13 v 0.15 l 0.1,0.16 v 0.18 l 0.1,0.2 v 0.2 l 0.1,0.22 0.1,0.22 v 0.24 l 0.1,0.24 0.1,0.24 0.1,0.25 0.1,0.25 0.2,0.25 0.1,0.25 0.1,0.24 0.2,0.25 0.1,0.23 0.2,0.23 0.2,0.23 0.2,0.21 0.2,0.2 0.2,0.19 0.2,0.18 0.2,0.16 0.3,0.14 0.1,0.07 0.1,0.06 0.1,0.05 0.2,0.05 0.1,0.05 0.2,0.04 0.1,0.03 0.2,0.03 0.1,0.02 0.2,0.02 0.1,0.01 h 0.2 c 0.2,0 1.4,0 2.5,-0.64 -1.4,-0.25 -2.4,-1.5 -2.4,-2.68 0,-0.8 0.5,-1.75 1.9,-1.75 1.1,0 2.7,0.89 2.7,2.89 0,2.59 -3,3.28 -4.7,3.28 -2.8,0 -4.6,-2.64 -5.2,-3.78 -1.3,3.28 -3.9,3.78 -5.4,3.78 -5.2,0 -8,-6.42 -8,-7.67 0,-0.5 0.5,-0.5 0.6,-0.5 0.4,0 0.5,0.1 0.7,0.54 1.6,5.28 4.9,6.53 6.6,6.53 1,0 2.7,-0.43 2.7,-3.32 0,-1.55 -0.8,-4.9 -2.7,-11.86 -0.8,-3.1 -2.5,-5.19 -4.7,-5.19 -0.3,0 -1.4,0 -2.5,0.65 1.2,0.24 2.3,1.29 2.3,2.69 0,1.35 -1.1,1.74 -1.8,1.74 -1.5,0 -2.7,-1.3 -2.7,-2.89 0,-2.29 2.4,-3.29 4.6,-3.29 3.3,0 5.1,3.49 5.3,3.79 0.6,-1.85 2.4,-3.79 5.4,-3.79 5.1,0 7.9,6.43 7.9,7.68 0,0.5 -0.4,0.5 -0.6,0.5 -0.4,0 -0.5,-0.21 -0.6,-0.55 -1.7,-5.33 -5,-6.53 -6.6,-6.53 -2,0 -2.8,1.59 -2.8,3.3 0,1.09 0.3,2.18 0.9,4.37 z"
           inkscape:connector-curvature="0"
           style="fill:#000000;stroke-width:0" /><path
           id="path11247"
           d="m 1243.7,410.21 0.2,0.01 h 0.2 0.1 l 0.1,0.01 h 0.1 v 0.01 l 0.1,0.01 0.1,0.01 0.1,0.01 v 0.01 l 0.1,0.02 0.1,0.02 v 0.02 l 0.1,0.02 v 0.03 l 0.1,0.03 0.1,0.04 v 0.04 l 0.1,0.04 v 0.05 0.05 l 0.1,0.02 v 0.03 0.03 0.03 0.03 0.04 0.03 0.03 l 0.1,0.04 v 0.04 0.04 0.04 0.04 0.04 0.05 0.04 c 0,1 -0.9,1 -1.8,1 h -26.9 c -0.9,0 -1.7,0 -1.7,-1 0,-1 0.8,-1 1.7,-1 z"
           inkscape:connector-curvature="0"
           style="fill:#000000;stroke-width:0" /><path
           id="path11249"
           d="m 1283.4,423.67 v 0.32 0.34 0.35 l -0.1,0.37 v 0.39 0.4 l -0.1,0.4 v 0.42 l -0.1,0.42 -0.1,0.42 -0.1,0.42 -0.1,0.43 -0.1,0.42 -0.1,0.42 -0.2,0.42 -0.1,0.4 -0.2,0.4 -0.2,0.39 -0.2,0.37 -0.2,0.35 -0.2,0.34 -0.3,0.32 -0.2,0.3 -0.3,0.27 -0.3,0.25 -0.2,0.12 -0.2,0.11 -0.1,0.1 -0.2,0.09 -0.2,0.09 -0.2,0.07 -0.2,0.07 -0.2,0.06 -0.2,0.06 -0.2,0.04 -0.2,0.03 -0.2,0.03 -0.3,0.01 -0.2,0.01 -0.1,-1.1 c 2.5,0 2.8,-3.18 2.8,-6.03 0,-2.44 -0.4,-4.98 -1.6,-9.92 h -10.4 c 0.8,3.2 1.8,7.19 3.8,10.72 1.4,2.44 3.2,5.23 5.4,5.23 l 0.1,1.1 c -6.9,0 -14.6,-14.05 -14.6,-25.46 0,-4.68 1.4,-10.22 6,-10.22 v 1.1 c -1.7,0 -2.7,1.45 -2.7,6.08 0,2.09 0.3,4.98 1.6,9.86 h 10.4 c -0.6,-2.29 -1.6,-6.52 -3.5,-10.11 -1.8,-3.39 -3.7,-5.83 -5.8,-5.83 v -1.1 c 7,0 14.6,14.3 14.6,25.46 z"
           inkscape:connector-curvature="0"
           style="fill:#000000;stroke-width:0" /><path
           id="path11251"
           d="m 1302.6,400.46 v 0.36 0.35 l -0.1,0.34 v 0.33 l -0.1,0.32 -0.1,0.31 -0.1,0.29 -0.1,0.29 -0.1,0.28 -0.2,0.27 -0.1,0.25 -0.2,0.25 -0.2,0.23 -0.1,0.22 -0.2,0.21 -0.3,0.21 -0.2,0.18 -0.2,0.18 -0.2,0.17 -0.3,0.15 -0.2,0.15 -0.3,0.13 -0.3,0.11 -0.3,0.11 -0.2,0.1 -0.3,0.08 -0.3,0.07 -0.3,0.06 -0.3,0.04 -0.3,0.03 -0.4,0.02 -0.3,0.01 c -5.1,0 -10,-4.85 -10,-9.61 0,-3.49 2.5,-6.09 6.3,-6.09 l 0.1,0.96 c -1.8,0 -3.5,1.13 -3.5,3.88 0,1.42 0.6,4.84 2,6.83 1.5,2.15 3.5,3.06 5.1,3.06 1.9,0 3.5,-1.3 3.5,-3.88 0,-0.82 -0.4,-4.28 -2,-6.71 -1.3,-2.05 -3.4,-3.18 -5.1,-3.18 v 0 l -0.1,-0.96 c 5,0 10,4.59 10,9.6 z"
           inkscape:connector-curvature="0"
           style="fill:#000000;stroke-width:0" /><path
           id="path11253"
           d="m 1320.7,411.21 v 0.38 0.38 0.39 0.41 l -0.1,0.84 v 0.88 l -0.1,0.92 -0.1,0.95 -0.1,0.98 -0.2,1 -0.2,1.02 -0.2,1.04 -0.3,1.05 -0.3,1.06 -0.4,1.06 -0.3,1.07 -0.3,0.53 -0.2,0.53 -0.2,0.53 -0.3,0.53 c -3,6.13 -7.2,9.36 -7.7,9.36 -0.3,0 -0.5,-0.19 -0.5,-0.48 0,-0.16 0,-0.25 0.9,-1.16 4.9,-4.92 7.7,-12.84 7.7,-23.27 0,-8.51 -1.8,-17.28 -8,-23.56 -0.6,-0.59 -0.6,-0.7 -0.6,-0.84 0,-0.3 0.2,-0.5 0.5,-0.5 0.5,0 4.9,3.39 7.9,9.72 2.5,5.47 3.1,11 3.1,15.18 z"
           inkscape:connector-curvature="0"
           style="fill:#000000;stroke-width:0" /><path
           id="path11255"
           d="m 1344.3,408.43 0.1,-0.02 0.1,-0.02 0.2,-0.03 0.1,-0.03 0.2,-0.04 0.2,-0.05 0.2,-0.05 0.1,-0.05 0.3,-0.07 0.2,-0.07 0.2,-0.08 0.2,-0.08 0.2,-0.1 0.2,-0.1 0.3,-0.11 0.2,-0.12 0.2,-0.13 0.2,-0.14 0.2,-0.16 0.2,-0.16 0.2,-0.18 0.2,-0.18 0.1,-0.2 0.2,-0.21 0.1,-0.23 0.1,-0.12 0.1,-0.12 v -0.12 l 0.1,-0.13 v -0.13 l 0.1,-0.14 v -0.14 l 0.1,-0.14 v -0.15 -0.15 -0.15 -0.16 l 0.1,-0.16 v -0.17 c 0,-2.53 -1.8,-4.53 -5.7,-4.53 -4.1,0 -5.9,2.84 -6.9,7.08 -0.1,0.64 -0.2,0.84 -0.7,0.84 -0.6,0 -0.6,-0.34 -0.6,-1.25 v -6.58 c 0,-0.84 0,-1.19 0.5,-1.19 0.3,0 0.3,0.05 1.3,1 0,0.1 0,0.19 1,1.15 2.1,-2.1 4.4,-2.15 5.4,-2.15 5.8,0 8.1,3.35 8.1,6.93 0,2.64 -1.5,4.14 -2.1,4.73 -1.7,1.59 -3.6,2 -5.7,2.39 -2.8,0.55 -6.2,1.2 -6.2,4.1 0,1.73 1.3,3.78 5.6,3.78 5.5,0 5.8,-4.49 5.9,-6.03 0,-0.46 0.5,-0.46 0.6,-0.46 0.6,0 0.6,0.25 0.6,1.21 v 5.03 c 0,0.84 0,1.18 -0.5,1.18 -0.3,0 -0.4,0 -1,-0.59 -0.2,-0.2 -0.7,-0.64 -0.9,-0.8 -1.9,1.39 -3.9,1.39 -4.7,1.39 -6.1,0 -7.9,-3.32 -7.9,-6.12 0,-1.74 0.8,-3.14 2.1,-4.24 1.6,-1.29 3,-1.59 6.6,-2.28 z"
           inkscape:connector-curvature="0"
           style="fill:#000000;stroke-width:0" /><path
           id="path11257"
           d="m 1362.4,420.78 -7,-0.55 v -1.55 c 3.3,0 3.7,-0.29 3.7,-2.73 v -13.41 c 0,-2.23 -0.5,-2.23 -3.9,-2.23 v -1.55 c 1.6,0.05 4.3,0.16 5.5,0.16 1.8,0 3.5,-0.11 5.2,-0.16 v 1.55 c -3.3,0 -3.5,0.25 -3.5,2.19 z"
           inkscape:connector-curvature="0"
           style="fill:#000000;stroke-width:0" /><path
           id="path11259"
           d="m 1362.6,429.45 v 0.15 0.14 0.14 0.14 l -0.1,0.13 v 0.13 l -0.1,0.13 v 0.12 l -0.1,0.12 v 0.12 l -0.1,0.11 -0.1,0.11 v 0.1 l -0.1,0.1 -0.1,0.09 -0.1,0.09 -0.1,0.08 -0.1,0.08 -0.1,0.08 -0.1,0.06 -0.1,0.07 -0.1,0.06 -0.1,0.05 -0.1,0.05 -0.1,0.04 -0.2,0.04 -0.1,0.04 -0.1,0.02 -0.1,0.02 -0.2,0.02 -0.1,0.01 h -0.1 c -1.6,0 -2.7,-1.34 -2.7,-2.64 0,-1.34 1.1,-2.64 2.7,-2.64 1.4,0 2.6,1.05 2.6,2.64 z"
           inkscape:connector-curvature="0"
           style="fill:#000000;stroke-width:0" /><path
           id="path11261"
           d="m 1372.9,415.9 v -13.36 c 0,-2.23 -0.6,-2.23 -3.9,-2.23 v -1.55 c 1.7,0.05 4.3,0.16 5.6,0.16 1.3,0 3.9,-0.11 5.6,-0.16 v 1.55 c -3.3,0 -3.9,0 -3.9,2.23 v 9.17 c 0,5.19 3.5,7.97 6.7,7.97 3.2,0 3.7,-2.68 3.7,-5.53 v -11.61 c 0,-2.23 -0.5,-2.23 -3.9,-2.23 v -1.55 c 1.8,0.05 4.3,0.16 5.7,0.16 1.3,0 3.8,-0.11 5.6,-0.16 v 1.55 c -2.6,0 -3.9,0 -3.9,1.5 v 9.51 c 0,4.29 0,5.83 -1.6,7.61 -0.7,0.86 -2.3,1.85 -5.2,1.85 -3.6,0 -6,-2.14 -7.4,-5.22 v 5.22 l -7,-0.55 v -1.55 c 3.5,0 3.9,-0.34 3.9,-2.78 z"
           inkscape:connector-curvature="0"
           style="fill:#000000;stroke-width:0" /><path
           id="path11263"
           d="m 1411.6,386.81 v 0.03 0.02 0.02 0.01 0.01 0.02 0.02 0.01 0.02 0.02 l -0.1,0.03 v 0.02 0.02 0.03 0.03 l -0.1,0.03 v 0.04 0.03 0.02 0.02 l -0.1,0.02 v 0.02 0.03 0.02 0.02 l -0.1,0.03 v 0.02 0.03 0.02 l -0.1,0.03 v 0.03 0.03 0.03 l -0.1,0.03 v 0.03 0.03 l -0.1,0.04 v 0.03 0.04 l -0.1,0.04 v 0.03 0.04 c -6.3,6.28 -7.9,15.69 -7.9,23.31 0,8.68 1.9,17.35 8.1,23.57 0.6,0.61 0.6,0.7 0.6,0.86 0,0.34 -0.2,0.48 -0.5,0.48 -0.5,0 -5,-3.37 -7.9,-9.7 -2.6,-5.49 -3.1,-11.02 -3.1,-15.21 0,-3.89 0.5,-9.9 3.2,-15.54 3,-6.13 7.3,-9.36 7.8,-9.36 0.3,0 0.5,0.14 0.5,0.5 z"
           inkscape:connector-curvature="0"
           style="fill:#000000;stroke-width:0" /><path
           id="path11265"
           d="m 1431.1,413.81 v 0.13 0.15 l 0.1,0.16 v 0.18 l 0.1,0.2 v 0.2 l 0.1,0.22 0.1,0.22 0.1,0.24 v 0.24 l 0.1,0.24 0.1,0.25 0.2,0.25 0.1,0.25 0.1,0.25 0.1,0.24 0.2,0.25 0.1,0.23 0.2,0.23 0.2,0.23 0.2,0.21 0.2,0.2 0.2,0.19 0.2,0.18 0.2,0.16 0.3,0.14 0.1,0.07 0.1,0.06 0.2,0.05 0.1,0.05 0.1,0.05 0.2,0.04 0.1,0.03 0.2,0.03 0.1,0.02 0.2,0.02 0.1,0.01 h 0.2 c 0.3,0 1.4,0 2.5,-0.64 -1.4,-0.25 -2.4,-1.5 -2.4,-2.68 0,-0.8 0.6,-1.75 1.9,-1.75 1.1,0 2.7,0.89 2.7,2.89 0,2.59 -3,3.28 -4.6,3.28 -2.9,0 -4.7,-2.64 -5.3,-3.78 -1.2,3.28 -3.9,3.78 -5.4,3.78 -5.1,0 -8,-6.42 -8,-7.67 0,-0.5 0.5,-0.5 0.6,-0.5 0.4,0 0.6,0.1 0.7,0.54 1.6,5.28 5,6.53 6.6,6.53 1,0 2.7,-0.43 2.7,-3.32 0,-1.55 -0.8,-4.9 -2.7,-11.86 -0.8,-3.1 -2.5,-5.19 -4.7,-5.19 -0.3,0 -1.4,0 -2.5,0.65 1.3,0.24 2.4,1.29 2.4,2.69 0,1.35 -1.1,1.74 -1.9,1.74 -1.5,0 -2.7,-1.3 -2.7,-2.89 0,-2.29 2.5,-3.29 4.7,-3.29 3.2,0 5,3.49 5.2,3.79 0.6,-1.85 2.4,-3.79 5.4,-3.79 5.1,0 8,6.43 8,7.68 0,0.5 -0.5,0.5 -0.7,0.5 -0.4,0 -0.5,-0.21 -0.6,-0.55 -1.6,-5.33 -5,-6.53 -6.6,-6.53 -2,0 -2.8,1.59 -2.8,3.3 0,1.09 0.3,2.18 0.9,4.37 z"
           inkscape:connector-curvature="0"
           style="fill:#000000;stroke-width:0" /><path
           id="path11267"
           d="m 1457.3,411.21 v 0.38 0.38 l -0.1,0.39 v 0.41 0.84 l -0.1,0.88 -0.1,0.92 -0.1,0.95 -0.1,0.98 -0.2,1 -0.2,1.02 -0.2,1.04 -0.2,1.05 -0.4,1.06 -0.3,1.06 -0.4,1.07 -0.2,0.53 -0.2,0.53 -0.3,0.53 -0.2,0.53 c -3,6.13 -7.3,9.36 -7.8,9.36 -0.3,0 -0.5,-0.19 -0.5,-0.48 0,-0.16 0,-0.25 1,-1.16 4.8,-4.92 7.7,-12.84 7.7,-23.27 0,-8.51 -1.9,-17.28 -8.1,-23.56 -0.6,-0.59 -0.6,-0.7 -0.6,-0.84 0,-0.3 0.2,-0.5 0.5,-0.5 0.5,0 5,3.39 7.9,9.72 2.6,5.47 3.2,11 3.2,15.18 z"
           inkscape:connector-curvature="0"
           style="fill:#000000;stroke-width:0" /><path
           id="path11269"
           d="m 1487.9,432.79 v 0.01 0 0.01 0.01 0.01 0.01 0.02 0.02 0.02 0.02 0.02 0.02 0.03 l -0.1,0.02 v 0.03 0.02 0.02 0.03 0.02 0.03 l -0.1,0.02 v 0.01 0.01 0.01 0.01 0.01 0.01 l -0.1,0.01 v 0.01 0.01 0.01 0.01 h -0.1 v 0.01 0.01 0 0.01 h -0.1 v 0.01 0 0 l -0.1,0.01 v 0 0 h -0.1 c -0.7,0 -5.4,-0.45 -6.3,-0.55 -0.4,-0.04 -0.7,-0.29 -0.7,-0.95 0,-0.59 0.5,-0.59 1.2,-0.59 2.4,0 2.5,-0.35 2.5,-0.85 l -0.1,-1 -3,-11.81 c -0.9,1.84 -2.4,3.19 -4.6,3.19 v -1.1 c 3.3,0 4,-4.07 4,-4.37 0,-0.31 -0.1,-0.61 -0.2,-0.86 l -2.5,-9.77 c -0.2,-0.89 -0.2,-0.98 -1,-1.84 -2.2,-2.73 -4.2,-3.53 -5.6,-3.53 -2.5,0 -3.2,2.73 -3.2,4.69 0,2.48 1.6,8.61 2.7,10.9 1.6,2.94 3.8,4.78 5.8,4.78 v 1.1 c -5.8,0 -12,-7.32 -12,-14.6 0,-4.68 2.7,-7.97 6.6,-7.97 1,0 3.5,0.21 6.5,3.74 0.4,-2.09 2.1,-3.74 4.5,-3.74 1.8,0 2.9,1.15 3.7,2.74 0.8,1.8 1.5,4.84 1.5,4.94 0,0.5 -0.5,0.5 -0.6,0.5 -0.5,0 -0.5,-0.21 -0.7,-0.91 -0.8,-3.23 -1.8,-6.17 -3.8,-6.17 -1.3,0 -1.5,1.3 -1.5,2.3 0,1.18 0.1,1.54 0.3,2.39 z"
           inkscape:connector-curvature="0"
           style="fill:#000000;stroke-width:0" /><path
           id="path11271"
           d="m 1504.7,413.81 0.1,0.13 v 0.15 0.16 l 0.1,0.18 v 0.2 l 0.1,0.2 0.1,0.22 v 0.22 l 0.1,0.24 0.1,0.24 0.1,0.24 0.1,0.25 0.1,0.25 0.1,0.25 0.2,0.25 0.1,0.24 0.2,0.25 0.1,0.23 0.2,0.23 0.2,0.23 0.1,0.21 0.2,0.2 0.3,0.19 0.2,0.18 0.2,0.16 0.3,0.14 0.1,0.07 0.1,0.06 0.1,0.05 0.2,0.05 0.1,0.05 0.2,0.04 0.1,0.03 0.2,0.03 0.1,0.02 0.2,0.02 0.1,0.01 h 0.2 c 0.2,0 1.4,0 2.5,-0.64 -1.4,-0.25 -2.4,-1.5 -2.4,-2.68 0,-0.8 0.5,-1.75 1.9,-1.75 1.1,0 2.6,0.89 2.6,2.89 0,2.59 -2.9,3.28 -4.6,3.28 -2.9,0 -4.6,-2.64 -5.2,-3.78 -1.3,3.28 -3.9,3.78 -5.4,3.78 -5.2,0 -8,-6.42 -8,-7.67 0,-0.5 0.5,-0.5 0.6,-0.5 0.4,0 0.5,0.1 0.6,0.54 1.7,5.28 5,6.53 6.7,6.53 1,0 2.7,-0.43 2.7,-3.32 0,-1.55 -0.9,-4.9 -2.7,-11.86 -0.8,-3.1 -2.5,-5.19 -4.7,-5.19 -0.3,0 -1.5,0 -2.5,0.65 1.2,0.24 2.3,1.29 2.3,2.69 0,1.35 -1.1,1.74 -1.8,1.74 -1.5,0 -2.8,-1.3 -2.8,-2.89 0,-2.29 2.5,-3.29 4.7,-3.29 3.3,0 5.1,3.49 5.3,3.79 0.6,-1.85 2.3,-3.79 5.3,-3.79 5.2,0 8,6.43 8,7.68 0,0.5 -0.4,0.5 -0.6,0.5 -0.4,0 -0.5,-0.21 -0.6,-0.55 -1.7,-5.33 -5.1,-6.53 -6.7,-6.53 -1.9,0 -2.7,1.59 -2.7,3.3 0,1.09 0.3,2.18 0.9,4.37 z"
           inkscape:connector-curvature="0"
           style="fill:#000000;stroke-width:0" /><polygon
           id="polygon11273"
           points="1517.4,455.96 1517.4,453.62 1526.4,453.62 1526.4,368.66 1517.4,368.66 1517.4,366.32 1528.8,366.32 1528.8,455.96 "
           style="fill:#000000;stroke-width:0" /></g>    </g>
  </g>
</svg>
