<?xml version="1.0" encoding="UTF-8" standalone="no"?>
<!-- Created with Inkscape (http://www.inkscape.org/) -->

<svg
   xmlns:dc="http://purl.org/dc/elements/1.1/"
   xmlns:cc="http://creativecommons.org/ns#"
   xmlns:rdf="http://www.w3.org/1999/02/22-rdf-syntax-ns#"
   xmlns:svg="http://www.w3.org/2000/svg"
   xmlns="http://www.w3.org/2000/svg"
   xmlns:sodipodi="http://sodipodi.sourceforge.net/DTD/sodipodi-0.dtd"
   xmlns:inkscape="http://www.inkscape.org/namespaces/inkscape"
   sodipodi:docname="bump.svg"
   inkscape:version="0.92.2 5c3e80d, 2017-08-06"
   id="svg8"
   version="1.1"
   viewBox="0 0 93.108681 64.85363"
   height="64.85363mm"
   width="93.108681mm">
  <sodipodi:namedview
     fit-margin-bottom="0"
     fit-margin-right="0"
     fit-margin-left="0"
     fit-margin-top="0"
     inkscape:window-maximized="1"
     inkscape:window-y="1"
     inkscape:window-x="0"
     inkscape:window-height="1005"
     inkscape:window-width="1680"
     inkscape:snap-global="false"
     showgrid="true"
     inkscape:current-layer="svg8"
     inkscape:document-units="mm"
     inkscape:cy="101.04127"
     inkscape:cx="157.70707"
     inkscape:zoom="1.979899"
     inkscape:pageshadow="2"
     inkscape:pageopacity="0.0"
     borderopacity="1.0"
     bordercolor="#666666"
     pagecolor="#ffffff"
     id="base" />
  <defs
     id="defs2">
    <marker
       inkscape:isstock="true"
       style="overflow:visible"
       id="Arrow1Lend"
       refX="0"
       refY="0"
       orient="auto"
       inkscape:stockid="Arrow1Lend">
      <path
         inkscape:connector-curvature="0"
         transform="matrix(-0.8,0,0,-0.8,-10,0)"
         style="fill:#000000;fill-opacity:1;fill-rule:evenodd;stroke:#000000;stroke-width:1.00000003pt;stroke-opacity:1"
         d="M 0,0 5,-5 -12.5,0 5,5 Z"
         id="path826" />
    </marker>
    <marker
       inkscape:isstock="true"
       style="overflow:visible"
       id="Arrow2Lend"
       refX="0"
       refY="0"
       orient="auto"
       inkscape:stockid="Arrow2Lend">
      <path
         inkscape:connector-curvature="0"
         transform="matrix(-1.1,0,0,-1.1,-1.1,0)"
         d="M 8.7185878,4.0337352 -2.2072895,0.01601326 8.7185884,-4.0017078 c -1.7454984,2.3720609 -1.7354408,5.6174519 -6e-7,8.035443 z"
         style="fill:#000000;fill-opacity:1;fill-rule:evenodd;stroke:#000000;stroke-width:0.625;stroke-linejoin:round;stroke-opacity:1"
         id="path844" />
    </marker>
    <marker
       inkscape:isstock="true"
       style="overflow:visible"
       id="marker2592"
       refX="0"
       refY="0"
       orient="auto"
       inkscape:stockid="Arrow1Mend">
      <path
         inkscape:connector-curvature="0"
         transform="matrix(-0.4,0,0,-0.4,-4,0)"
         style="fill:#000000;fill-opacity:1;fill-rule:evenodd;stroke:#000000;stroke-width:1.00000003pt;stroke-opacity:1"
         d="M 0,0 5,-5 -12.5,0 5,5 Z"
         id="path2590" />
    </marker>
    <marker
       inkscape:isstock="true"
       style="overflow:visible"
       id="Arrow1Mstart"
       refX="0"
       refY="0"
       orient="auto"
       inkscape:stockid="Arrow1Mstart">
      <path
         inkscape:connector-curvature="0"
         transform="matrix(0.4,0,0,0.4,4,0)"
         style="fill:#000000;fill-opacity:1;fill-rule:evenodd;stroke:#000000;stroke-width:1.00000003pt;stroke-opacity:1"
         d="M 0,0 5,-5 -12.5,0 5,5 Z"
         id="path829" />
    </marker>
    <marker
       inkscape:isstock="true"
       style="overflow:visible"
       id="Arrow1Mend"
       refX="0"
       refY="0"
       orient="auto"
       inkscape:stockid="Arrow1Mend">
      <path
         inkscape:connector-curvature="0"
         transform="matrix(-0.4,0,0,-0.4,-4,0)"
         style="fill:#000000;fill-opacity:1;fill-rule:evenodd;stroke:#000000;stroke-width:1.00000003pt;stroke-opacity:1"
         d="M 0,0 5,-5 -12.5,0 5,5 Z"
         id="path832" />
    </marker>
    <marker
       inkscape:isstock="true"
       style="overflow:visible"
       id="Arrow1Sstart"
       refX="0"
       refY="0"
       orient="auto"
       inkscape:stockid="Arrow1Sstart">
      <path
         inkscape:connector-curvature="0"
         transform="matrix(0.2,0,0,0.2,1.2,0)"
         style="fill:#000000;fill-opacity:1;fill-rule:evenodd;stroke:#000000;stroke-width:1.00000003pt;stroke-opacity:1"
         d="M 0,0 5,-5 -12.5,0 5,5 Z"
         id="path835" />
    </marker>
    <marker
       inkscape:isstock="true"
       style="overflow:visible"
       id="marker2234"
       refX="0"
       refY="0"
       orient="auto"
       inkscape:stockid="Arrow2Lstart">
      <path
         inkscape:connector-curvature="0"
         transform="matrix(1.1,0,0,1.1,1.1,0)"
         d="M 8.7185878,4.0337352 -2.2072895,0.01601326 8.7185884,-4.0017078 c -1.7454984,2.3720609 -1.7354408,5.6174519 -6e-7,8.035443 z"
         style="fill:#000000;fill-opacity:1;fill-rule:evenodd;stroke:#000000;stroke-width:0.625;stroke-linejoin:round;stroke-opacity:1"
         id="path2232" />
    </marker>
    <marker
       inkscape:isstock="true"
       style="overflow:visible"
       id="Arrow2Mstart"
       refX="0"
       refY="0"
       orient="auto"
       inkscape:stockid="Arrow2Mstart">
      <path
         inkscape:connector-curvature="0"
         transform="scale(0.6)"
         d="M 8.7185878,4.0337352 -2.2072895,0.01601326 8.7185884,-4.0017078 c -1.7454984,2.3720609 -1.7354408,5.6174519 -6e-7,8.035443 z"
         style="fill:#ffffff;fill-opacity:1;fill-rule:evenodd;stroke:#000000;stroke-width:0.625;stroke-linejoin:round;stroke-opacity:1"
         id="path847" />
    </marker>
    <marker
       inkscape:isstock="true"
       style="overflow:visible"
       id="Arrow2Lstart"
       refX="0"
       refY="0"
       orient="auto"
       inkscape:stockid="Arrow2Lstart">
      <path
         inkscape:connector-curvature="0"
         transform="matrix(1.1,0,0,1.1,1.1,0)"
         d="M 8.7185878,4.0337352 -2.2072895,0.01601326 8.7185884,-4.0017078 c -1.7454984,2.3720609 -1.7354408,5.6174519 -6e-7,8.035443 z"
         style="fill:#ffffff;fill-opacity:1;fill-rule:evenodd;stroke:#100000;stroke-width:0.625;stroke-linejoin:round;stroke-opacity:1"
         id="path841" />
    </marker>
    <marker
       inkscape:stockid="Arrow1Lend"
       orient="auto"
       refY="0"
       refX="0"
       id="marker1109"
       style="overflow:visible"
       inkscape:isstock="true">
      <path
         inkscape:connector-curvature="0"
         id="path1107"
         d="M 0,0 5,-5 -12.5,0 5,5 Z"
         style="fill:#000000;fill-opacity:1;fill-rule:evenodd;stroke:#000000;stroke-width:1.00000003pt;stroke-opacity:1"
         transform="matrix(-0.8,0,0,-0.8,-10,0)" />
    </marker>
  </defs>
  <metadata
     id="metadata5">
    <rdf:RDF>
      <cc:Work
         rdf:about="">
        <dc:format>image/svg+xml</dc:format>
        <dc:type
           rdf:resource="http://purl.org/dc/dcmitype/StillImage" />
        <dc:title></dc:title>
      </cc:Work>
    </rdf:RDF>
  </metadata>
  <g
     transform="translate(-65.833471,-73.779319)"
     id="layer1"
     inkscape:groupmode="layer"
     inkscape:label="Layer 1">
    <path
       style="fill:none;fill-rule:evenodd;stroke:#eb0000;stroke-width:0.25;stroke-linecap:butt;stroke-linejoin:miter;stroke-miterlimit:4;stroke-dasharray:none;stroke-opacity:1"
       d="m 77.138507,135.89262 c 12.421874,-0.39524 22.496658,-14.49669 34.112353,-14.45759"
       id="path1330"
       inkscape:connector-curvature="0"
       sodipodi:nodetypes="cc" />
    <path
       sodipodi:nodetypes="cc"
       inkscape:connector-curvature="0"
       id="path1328"
       d="M 145.11398,135.89262 C 132.6921,135.49738 122.61731,121.39593 111.00163,121.43503"
       style="fill:none;fill-rule:evenodd;stroke:#eb0000;stroke-width:0.25;stroke-linecap:butt;stroke-linejoin:miter;stroke-miterlimit:4;stroke-dasharray:none;stroke-opacity:1" />
    <path
       sodipodi:nodetypes="cc"
       inkscape:connector-curvature="0"
       id="path819"
       d="m 65.833826,138.25068 93.107974,0.13227"
       style="fill:none;fill-rule:evenodd;stroke:#000000;stroke-width:0.5;stroke-linecap:butt;stroke-linejoin:miter;stroke-miterlimit:4;stroke-dasharray:1.5, 0.5;stroke-dashoffset:0;stroke-opacity:1" />
    <path
       inkscape:connector-curvature="0"
       id="path821"
       d="M 111.125,138.25 V 74.75"
       style="fill:none;fill-rule:evenodd;stroke:#000000;stroke-width:0.5;stroke-linecap:butt;stroke-linejoin:miter;stroke-miterlimit:4;stroke-dasharray:none;stroke-opacity:1;marker-end:url(#Arrow1Lend)" />
    <path
       sodipodi:nodetypes="cc"
       style="fill:none;fill-rule:evenodd;stroke:#000000;stroke-width:0.5;stroke-linecap:butt;stroke-linejoin:miter;stroke-miterlimit:4;stroke-dasharray:none;stroke-opacity:1;marker-end:url(#marker1109)"
       d="M 111.125,138.25 141.3631,82.6875"
       id="path1105"
       inkscape:connector-curvature="0" />
    <text
       transform="rotate(-90)"
       id="text2122"
       y="109.43755"
       x="-118.30653"
       style="font-style:normal;font-variant:normal;font-weight:normal;font-stretch:normal;font-size:4.23333311px;line-height:125%;font-family:sans-serif;-inkscape-font-specification:sans-serif;letter-spacing:0px;word-spacing:0px;fill:#000000;fill-opacity:1;stroke:none;stroke-width:0.26458332px;stroke-linecap:butt;stroke-linejoin:miter;stroke-opacity:1"
       xml:space="preserve"><tspan
         style="stroke-width:0.26458332px"
         id="tspan2120"
         y="109.43755"
         x="-118.30653"
         sodipodi:role="line"><tspan
           style="stroke-width:0.26458332px"
           id="tspan2118"
           y="109.43755"
           x="-118.30653">Proxy normal</tspan></tspan></text>
    <text
       transform="rotate(-61.475551)"
       id="text2128"
       y="162.23502"
       x="-47.50412"
       style="font-style:normal;font-variant:normal;font-weight:normal;font-stretch:normal;font-size:4.23333311px;line-height:125%;font-family:sans-serif;-inkscape-font-specification:sans-serif;letter-spacing:0px;word-spacing:0px;fill:#000000;fill-opacity:1;stroke:none;stroke-width:0.26458332px;stroke-linecap:butt;stroke-linejoin:miter;stroke-opacity:1"
       xml:space="preserve"><tspan
         style="stroke-width:0.26458332px"
         id="tspan2126"
         y="162.23502"
         x="-47.50412"
         sodipodi:role="line"><tspan
           style="stroke-width:0.26458332px"
           id="tspan2124"
           y="162.23502"
           x="-47.50412">Lobe normal</tspan></tspan></text>
    <path
       sodipodi:open="true"
       d="m 112.02544,86.664108 a 51.59375,51.59375 0 0 1 22.9229,5.821676"
       sodipodi:end="5.1923545"
       sodipodi:start="4.7298423"
       sodipodi:ry="51.59375"
       sodipodi:rx="51.59375"
       sodipodi:cy="138.25"
       sodipodi:cx="111.125"
       sodipodi:type="arc"
       id="path2130"
       style="opacity:1;fill:none;fill-opacity:1;stroke:#000000;stroke-width:0.5;stroke-linecap:square;stroke-miterlimit:4;stroke-dasharray:none;stroke-dashoffset:0;stroke-opacity:1;marker-start:url(#Arrow1Mstart);marker-end:url(#Arrow1Mend)" />
  </g>
  <g
     transform="matrix(1.6190629,0,0,1.6190629,18.239176,-12.515678)"
     id="g1286">
    <g
       style="font-style:normal;font-variant:normal;font-weight:normal;font-stretch:normal;letter-spacing:normal;word-spacing:normal;text-anchor:start;fill:none;fill-opacity:1;fill-rule:evenodd;stroke:#000000;stroke-linecap:butt;stroke-linejoin:miter;stroke-miterlimit:10.43299961;stroke-dasharray:none;stroke-dashoffset:0;stroke-opacity:1"
       id="content"
       transform="matrix(0.08354764,0,0,-0.08354764,-14.620837,48.54051)"
       xml:space="preserve"
       stroke-miterlimit="10.433"
       font-style="normal"
       font-variant="normal"
       font-weight="normal"
       font-stretch="normal"
       font-size-adjust="none"
       letter-spacing="normal"
       word-spacing="normal"><path
         style="fill:#000000;stroke-width:0"
         inkscape:connector-curvature="0"
         d="m 478.19,431.11 v 0.31 l -0.01,0.34 -0.02,0.36 -0.02,0.37 -0.03,0.39 -0.04,0.39 -0.04,0.41 -0.06,0.41 -0.07,0.42 -0.07,0.43 -0.09,0.42 -0.1,0.43 -0.12,0.42 -0.12,0.42 -0.14,0.41 -0.16,0.41 -0.17,0.4 -0.18,0.38 -0.2,0.37 -0.22,0.36 -0.23,0.34 -0.25,0.32 -0.28,0.3 -0.29,0.27 -0.31,0.25 -0.16,0.12 -0.17,0.1 -0.17,0.1 -0.18,0.1 -0.18,0.08 -0.19,0.08 -0.19,0.07 -0.2,0.06 -0.21,0.05 -0.21,0.05 -0.22,0.03 -0.22,0.02 -0.23,0.02 h -0.23 l -0.05,-1.09 c 2.44,0 2.73,-3.19 2.73,-6.03 0,-2.44 -0.39,-4.99 -1.59,-9.92 h -10.41 c 0.85,3.2 1.85,7.18 3.83,10.72 1.36,2.43 3.19,5.23 5.44,5.23 l 0.05,1.09 c -6.92,0 -14.6,-14.04 -14.6,-25.45 0,-4.69 1.44,-10.22 5.99,-10.22 v 1.1 c -1.66,0 -2.71,1.45 -2.71,6.07 0,2.1 0.3,4.99 1.6,9.86 h 10.37 c -0.54,-2.28 -1.59,-6.51 -3.5,-10.11 -1.73,-3.39 -3.62,-5.82 -5.76,-5.82 v -1.1 c 7.01,0 14.59,14.3 14.59,25.46 z"
         id="path1281" /><path
         style="fill:#000000;stroke-width:0"
         inkscape:connector-curvature="0"
         d="m 498.81,421.9 0.01,0.01 v 0 0 0.01 0 l 0.01,0.01 v 0.01 0 0.01 l 0.01,0.01 v 0.01 l 0.01,0.02 v 0.02 l 0.01,0.02 0.01,0.02 v 0.02 l 0.01,0.02 v 0.03 l 0.01,0.02 0.01,0.05 0.01,0.02 v 0.02 l 0.01,0.03 v 0.02 l 0.01,0.02 v 0.02 0.02 l 0.01,0.02 v 0.02 0.01 l 0.01,0.01 v 0.01 0 0.01 0 0.01 0 0.01 0 0 0.01 0 c 0,0.19 -0.14,0.5 -0.54,0.5 -0.71,0 -3.6,-0.28 -4.47,-0.36 -0.28,-0.03 -0.77,-0.06 -0.77,-0.8 0,-0.48 0.49,-0.48 0.91,-0.48 1.67,0 1.67,-0.25 1.67,-0.53 0,-0.24 -0.06,-0.46 -0.14,-0.77 l -1.99,-7.94 c -0.73,1.14 -1.92,2.05 -3.59,2.05 v -0.97 c 2.44,0 3.11,-2.64 3.11,-3.03 0,-0.14 -0.08,-0.39 -0.11,-0.48 l -1.64,-6.52 c -0.23,-0.98 -1,-1.67 -1.77,-2.34 -0.31,-0.27 -1.71,-1.39 -3.21,-1.39 -1.29,0 -2.53,0.9 -2.53,3.37 0,1.86 1,5.69 1.81,7.08 1.59,2.8 3.37,3.31 4.34,3.31 v 0.97 c -4.45,0 -8.98,-4.91 -8.98,-9.92 0,-3.38 2.26,-5.78 5.26,-5.78 1.88,0 3.55,1.08 4.94,2.44 0.67,-2.1 2.69,-2.44 3.59,-2.44 1.25,0 2.13,0.76 2.75,1.84 0.77,1.36 1.22,3.35 1.22,3.49 0,0.45 -0.45,0.45 -0.54,0.45 -0.5,0 -0.54,-0.14 -0.77,-1.08 -0.42,-1.67 -1.09,-3.73 -2.55,-3.73 -0.9,0 -1.15,0.76 -1.15,1.7 0,0.67 0.08,0.98 0.17,1.44 z"
         id="path1283" /></g>  </g>
  <g
     id="g2035"
     transform="translate(-19.05)">
    <g
       word-spacing="normal"
       letter-spacing="normal"
       font-size-adjust="none"
       font-stretch="normal"
       font-weight="normal"
       font-variant="normal"
       font-style="normal"
       stroke-miterlimit="10.433"
       xml:space="preserve"
       transform="matrix(0.09264804,0,0,-0.09264804,-16.213407,69.831511)"
       id="g2033"
       style="font-style:normal;font-variant:normal;font-weight:normal;font-stretch:normal;letter-spacing:normal;word-spacing:normal;text-anchor:start;fill:none;fill-opacity:1;fill-rule:evenodd;stroke:#000000;stroke-linecap:butt;stroke-linejoin:miter;stroke-miterlimit:10.43299961;stroke-dasharray:none;stroke-dashoffset:0;stroke-opacity:1"><path
         id="path2031"
         style="fill:#000000;stroke-width:0"
         d="m 713.61104,230.16786 v 0.37 0.39 l -0.01,0.39 -0.02,0.41 -0.04,0.84 -0.06,0.88 -0.08,0.92 -0.11,0.95 -0.13,0.97 -0.16,1.01 -0.2,1.02 -0.23,1.03 -0.27,1.05 -0.3,1.06 -0.35,1.07 -0.39,1.07 -0.22,0.53 -0.22,0.53 -0.24,0.53 -0.25,0.53 c -2.98,6.12 -7.27,9.36 -7.77,9.36 -0.29,0 -0.5,-0.19 -0.5,-0.49 0,-0.15 0,-0.25 0.94,-1.15 4.89,-4.92 7.74,-12.85 7.74,-23.27 0,-8.51 -1.85,-17.28 -8.03,-23.56 -0.65,-0.59 -0.65,-0.7 -0.65,-0.84 0,-0.3 0.21,-0.5 0.5,-0.5 0.5,0 4.97,3.39 7.93,9.71 2.53,5.47 3.12,11 3.12,15.19 z m -17.66,3.25 v 0.01 h 0.01 v 0 0.01 0 l 0.01,0.01 v 0.01 0 0.01 l 0.01,0.01 v 0.01 l 0.01,0.02 v 0.02 l 0.01,0.02 0.01,0.02 v 0.02 l 0.01,0.02 v 0.03 l 0.01,0.02 0.01,0.05 0.01,0.02 v 0.02 l 0.01,0.03 v 0.02 l 0.01,0.02 v 0.02 0.02 l 0.01,0.02 v 0.02 0.01 l 0.01,0.01 v 0.01 0 0.01 0 0.01 0 0.01 0 0 0.01 0 c 0,0.19 -0.14,0.5 -0.54,0.5 -0.71,0 -3.6,-0.28 -4.47,-0.36 -0.28,-0.03 -0.77,-0.06 -0.77,-0.8 0,-0.48 0.49,-0.48 0.91,-0.48 1.67,0 1.67,-0.25 1.67,-0.53 0,-0.24 -0.06,-0.46 -0.14,-0.77 l -1.99,-7.94 c -0.73,1.14 -1.92,2.05 -3.59,2.05 v -0.97 c 2.44,0 3.11,-2.64 3.11,-3.03 0,-0.14 -0.08,-0.39 -0.11,-0.48 l -1.64,-6.52 c -0.23,-0.98 -1,-1.67 -1.77,-2.34 -0.31,-0.27 -1.71,-1.39 -3.21,-1.39 -1.29,0 -2.54,0.9 -2.54,3.37 0,1.86 1,5.69 1.82,7.08 1.59,2.8 3.37,3.31 4.34,3.31 v 0.97 c -4.45,0 -8.98,-4.91 -8.98,-9.92 0,-3.38 2.26,-5.78 5.26,-5.78 1.88,0 3.55,1.08 4.94,2.44 0.67,-2.1 2.69,-2.44 3.59,-2.44 1.25,0 2.13,0.76 2.75,1.84 0.77,1.36 1.22,3.35 1.22,3.49 0,0.45 -0.45,0.45 -0.54,0.45 -0.5,0 -0.54,-0.14 -0.77,-1.08 -0.42,-1.67 -1.09,-3.73 -2.55,-3.73 -0.9,0 -1.15,0.76 -1.15,1.7 0,0.67 0.07,0.98 0.17,1.44 z m -20.62,9.21 v 0.31 l -0.01,0.34 -0.02,0.36 -0.02,0.37 -0.03,0.39 -0.04,0.39 -0.04,0.41 -0.06,0.41 -0.07,0.42 -0.07,0.43 -0.09,0.42 -0.1,0.43 -0.12,0.42 -0.12,0.42 -0.14,0.41 -0.16,0.41 -0.17,0.4 -0.18,0.38 -0.2,0.37 -0.22,0.36 -0.23,0.34 -0.25,0.32 -0.28,0.3 -0.29,0.27 -0.31,0.25 -0.16,0.12 -0.17,0.1 -0.17,0.1 -0.18,0.1 -0.18,0.08 -0.19,0.08 -0.19,0.07 -0.2,0.06 -0.21,0.05 -0.21,0.05 -0.22,0.03 -0.22,0.02 -0.23,0.02 h -0.23 l -0.05,-1.09 c 2.44,0 2.73,-3.19 2.73,-6.03 0,-2.44 -0.39,-4.99 -1.59,-9.92 h -10.41 c 0.85,3.2 1.85,7.18 3.83,10.72 1.36,2.43 3.19,5.23 5.44,5.23 l 0.05,1.09 c -6.92,0 -14.6,-14.04 -14.6,-25.45 0,-4.69 1.44,-10.22 5.99,-10.22 v 1.1 c -1.66,0 -2.71,1.45 -2.71,6.07 0,2.1 0.3,4.99 1.6,9.86 h 10.37 c -0.54,-2.28 -1.59,-6.51 -3.5,-10.11 -1.73,-3.39 -3.62,-5.82 -5.76,-5.82 v -1.1 c 7.01,0 14.59,14.3 14.59,25.46 z m -35.67,-0.21 h -1.19 c -0.1,-0.76 -0.46,-2.83 -0.91,-3.17 -0.26,-0.2 -2.95,-0.2 -3.44,-0.2 h -6.42 c 3.66,3.23 4.88,4.2 6.97,5.84 2.58,2.06 4.99,4.22 4.99,7.53 0,4.22 -3.69,6.8 -8.16,6.8 -4.31,0 -7.25,-3.03 -7.25,-6.24 0,-1.78 1.5,-1.95 1.86,-1.95 0.83,0 1.84,0.6 1.84,1.85 0,0.62 -0.25,1.84 -2.06,1.84 1.08,2.47 3.45,3.23 5.09,3.23 3.49,0 5.3,-2.7 5.3,-5.53 0,-3.03 -2.16,-5.44 -3.28,-6.69 l -8.39,-8.29 c -0.36,-0.31 -0.36,-0.39 -0.36,-1.36 h 14.36 z m -39.84,-7.56 v -13.36 c 0,-2.23 -0.55,-2.23 -3.89,-2.23 v -1.55 c 1.75,0.05 4.28,0.16 5.62,0.16 1.3,0 3.89,-0.11 5.58,-0.16 v 1.55 c -3.33,0 -3.87,0 -3.87,2.23 v 9.17 c 0,5.19 3.53,7.97 6.72,7.97 3.14,0 3.68,-2.69 3.68,-5.53 v -11.61 c 0,-2.23 -0.54,-2.23 -3.89,-2.23 v -1.55 c 1.75,0.05 4.3,0.16 5.64,0.16 1.3,0 3.88,-0.11 5.58,-0.16 v 1.55 c -2.59,0 -3.84,0 -3.89,1.5 v 9.51 c 0,4.28 0,5.83 -1.55,7.61 -0.68,0.86 -2.34,1.84 -5.21,1.84 -3.65,0 -5.99,-2.14 -7.38,-5.21 v 5.21 l -7.03,-0.54 v -1.55 c 3.48,0 3.89,-0.34 3.89,-2.78 z m -13.85,-13.36 0.02,-0.19 0.03,-0.18 0.04,-0.19 0.04,-0.18 0.05,-0.19 0.06,-0.18 0.06,-0.18 0.07,-0.18 0.07,-0.18 0.08,-0.17 0.09,-0.18 0.09,-0.16 0.1,-0.16 0.11,-0.16 0.11,-0.16 0.12,-0.14 0.13,-0.14 0.13,-0.14 0.14,-0.13 0.15,-0.12 0.15,-0.12 0.15,-0.1 0.17,-0.1 0.16,-0.09 0.18,-0.08 0.18,-0.07 0.19,-0.06 0.19,-0.05 0.2,-0.04 0.2,-0.03 0.22,-0.02 0.21,-0.01 c 1.03,0 4.08,0.71 4.08,4.74 v 2.78 h -1.25 v -2.78 c 0,-2.89 -1.23,-3.19 -1.8,-3.19 -1.64,0 -1.84,2.23 -1.84,2.48 v 9.97 c 0,2.1 0,4.03 -1.78,5.88 -1.96,1.93 -4.44,2.73 -6.83,2.73 -4.09,0 -7.53,-2.33 -7.53,-5.62 0,-1.49 1,-2.35 2.3,-2.35 1.39,0 2.29,1 2.29,2.3 0,0.59 -0.25,2.23 -2.54,2.3 1.34,1.73 3.78,2.28 5.37,2.28 2.45,0 5.28,-1.94 5.28,-6.38 v -1.84 -1.05 -4.98 c 0,-4.74 -3.58,-6.42 -5.83,-6.42 -2.43,0 -4.48,1.75 -4.48,4.23 0,2.73 2.09,6.88 10.31,7.17 v 0 1.05 c -2.53,-0.14 -6.01,-0.3 -9.15,-1.8 -3.74,-1.69 -4.99,-4.28 -4.99,-6.47 0,-4.03 4.83,-5.28 7.97,-5.28 3.3,0 5.58,1.99 6.53,4.33 z m -27.28,16.14 h 7.12 v 1.55 h -7.12 v 9.17 h -1.25 c -0.05,-4.08 -1.55,-9.42 -6.43,-9.61 v -1.11 h 4.24 v -13.75 c 0,-6.12 4.62,-6.72 6.42,-6.72 3.53,0 4.94,3.53 4.94,6.72 v 2.84 h -1.25 v -2.73 c 0,-3.69 -1.5,-5.58 -3.35,-5.58 -3.32,0 -3.32,4.53 -3.32,5.38 z m -24.27,-31.36 v 1.25 h -3.88 v 15.54 c 0,0.72 0,0.97 -0.76,0.97 -0.42,0 -0.57,0 -0.91,-0.48 l -11.53,-16.03 v -1.25 h 10.25 l 0.23,1.25 h -9.2 l 9.2,12.75 v -12.75 l -0.23,-1.25 v -2.86 c 0,-1.19 0,-1.61 -2.83,-1.61 h -0.94 v -1.25 c 1.74,0.06 3.97,0.14 5.22,0.14 1.3,0 3.52,-0.08 5.27,-0.14 v 1.25 h -0.94 c -2.83,0 -2.83,0.42 -2.83,1.61 v 2.86 z m -17.96,23.24 h 19.92 v 2.04 h -19.92 m 11.19,27.88 v 0.04 0.04 0.05 0.04 0.03 0.04 0.04 0.03 l -0.01,0.04 v 0.03 0.03 0.03 0.03 l -0.01,0.03 v 0.03 0.02 l -0.01,0.03 v 0.02 l -0.01,0.03 v 0.02 l -0.02,0.04 -0.01,0.04 -0.02,0.03 -0.02,0.03 -0.02,0.03 -0.02,0.03 -0.03,0.02 -0.03,0.02 -0.03,0.02 -0.04,0.01 -0.04,0.01 -0.05,0.02 h -0.02 -0.02 l -0.03,0.01 h -0.03 l -0.02,0.01 h -0.03 -0.03 -0.03 -0.03 l -0.04,0.01 h -0.03 -0.04 -0.03 -0.04 -0.04 -0.04 -0.04 -0.05 -0.04 -0.04 c -2.24,-2.2 -5.4,-2.23 -6.83,-2.23 v -1.25 c 0.84,0 3.14,0 5.04,0.97 v -17.77 c 0,-1.16 0,-1.61 -3.48,-1.61 h -1.31 v -1.25 c 0.62,0.03 4.9,0.14 6.2,0.14 1.08,0 5.47,-0.11 6.23,-0.14 v 1.25 h -1.32 c -3.49,0 -3.49,0.45 -3.49,1.61 z m -38.05,-41.67 v 0.3 l -0.01,0.3 -0.02,0.29 -0.03,0.28 -0.03,0.27 -0.04,0.26 -0.04,0.26 -0.05,0.24 -0.06,0.24 -0.07,0.23 -0.07,0.22 -0.07,0.21 -0.09,0.2 -0.08,0.19 -0.1,0.19 -0.1,0.17 -0.11,0.16 -0.11,0.16 -0.12,0.14 -0.12,0.13 -0.13,0.13 -0.13,0.11 -0.14,0.1 -0.14,0.1 -0.15,0.08 -0.16,0.07 -0.16,0.06 -0.16,0.05 -0.17,0.04 -0.17,0.03 -0.18,0.01 -0.18,0.01 c -1.64,0 -2.64,-1.25 -2.64,-2.64 0,-1.34 1,-2.64 2.64,-2.64 0.6,0 1.25,0.2 1.75,0.64 0.14,0.11 0.21,0.16 0.25,0.16 0.05,0 0.1,-0.05 0.1,-0.75 0,-3.69 -1.74,-6.68 -3.39,-8.32 -0.55,-0.54 -0.55,-0.65 -0.55,-0.79 0,-0.36 0.25,-0.55 0.5,-0.55 0.55,0 4.53,3.83 4.53,9.66 z m -12.14,15.89 -0.01,0.74 -0.01,0.75 -0.02,0.75 -0.03,0.74 -0.05,0.75 -0.06,0.74 -0.07,0.74 -0.1,0.73 -0.11,0.73 -0.14,0.73 -0.16,0.72 -0.19,0.72 -0.22,0.72 -0.25,0.7 -0.27,0.7 -0.15,0.35 -0.16,0.34 c -2.28,4.8 -6.38,5.6 -8.47,5.6 -2.99,0 -6.63,-1.3 -8.68,-5.94 -1.59,-3.44 -1.84,-7.33 -1.84,-11.31 0,-3.74 0.21,-8.22 2.25,-12 2.14,-4.03 5.78,-5.03 8.22,-5.03 v 1.09 c -1.94,0 -4.89,1.25 -5.78,6.03 -0.55,2.98 -0.55,7.56 -0.55,10.52 0,3.18 0,6.46 0.41,9.15 0.94,5.94 4.67,6.38 5.92,6.38 1.64,0 4.94,-0.89 5.87,-5.83 0.5,-2.78 0.5,-6.58 0.5,-9.7 0,-3.75 0,-7.13 -0.54,-10.32 -0.75,-4.73 -3.59,-6.23 -5.83,-6.23 v 0 -1.09 c 2.69,0 6.47,1.04 8.67,5.78 1.6,3.43 1.85,7.31 1.85,11.25 z m -25.76,-27.89 v 0.02 0.03 0.01 0.02 l -0.01,0.01 v 0.02 l -0.01,0.01 v 0.02 l -0.01,0.02 -0.01,0.02 -0.01,0.02 -0.02,0.03 -0.01,0.02 -0.02,0.03 -0.02,0.03 -0.03,0.03 -0.02,0.03 -0.03,0.04 -0.02,0.02 -0.02,0.02 -0.01,0.02 -0.02,0.02 -0.02,0.02 -0.02,0.03 -0.02,0.02 -0.02,0.02 -0.03,0.03 -0.02,0.02 -0.03,0.03 -0.02,0.03 -0.03,0.03 -0.02,0.03 -0.03,0.03 -0.03,0.03 -0.03,0.03 -0.04,0.03 -0.03,0.04 -0.03,0.03 -0.04,0.04 -0.04,0.03 -0.03,0.04 -0.04,0.04 c -6.22,6.28 -7.81,15.69 -7.81,23.31 0,8.67 1.89,17.35 8.01,23.56 0.64,0.61 0.64,0.71 0.64,0.86 0,0.35 -0.19,0.49 -0.48,0.49 -0.5,0 -4.99,-3.38 -7.92,-9.7 -2.55,-5.49 -3.14,-11.02 -3.14,-15.21 0,-3.89 0.54,-9.9 3.28,-15.54 2.98,-6.13 7.28,-9.36 7.78,-9.36 0.29,0 0.48,0.14 0.48,0.5 z m -49.47,40.54 0.17,-0.5 0.18,-0.53 0.18,-0.55 0.19,-0.6 0.2,-0.62 0.11,-0.33 0.11,-0.33 0.11,-0.35 0.11,-0.35 0.12,-0.37 0.13,-0.37 0.12,-0.38 0.13,-0.4 0.14,-0.41 0.14,-0.41 0.14,-0.43 0.15,-0.44 0.16,-0.45 0.16,-0.47 0.16,-0.47 0.17,-0.49 0.18,-0.5 0.18,-0.51 0.19,-0.53 0.2,-0.54 0.2,-0.55 0.2,-0.57 c 3.14,-8.47 4.54,-11.56 7.57,-16.3 0.7,-1.04 0.75,-1.09 1.2,-1.09 0.7,0 1.75,0.61 2.3,1 0.68,0.66 0.73,0.7 1.28,3.14 3,13.11 6.78,26.75 7.78,29.05 0.05,0.09 1.05,1.98 7.17,2.09 1,0.05 1.94,2.69 1.94,3.78 0,0.8 -0.3,0.8 -0.99,0.8 -4.98,0 -7.23,-2.1 -7.82,-2.74 -1.39,-1.79 -2.6,-5.43 -4.88,-13.75 -1.75,-6.37 -3.34,-12.86 -4.89,-19.28 -2.73,4.13 -4.28,8.07 -6.67,14.5 -2.64,7.07 -4.24,12.25 -5.58,16.74 -0.3,1 -0.36,1.04 -0.8,1.04 -0.11,0 -1.09,0 -2.54,-1.2 -0.5,-0.44 -0.55,-0.89 -0.6,-1.44 -1.39,-13.25 -6.08,-26.36 -7.42,-28.75 -0.41,-0.75 -1,-1.64 -2,-1.64 -0.5,0 -2.44,0.25 -3.73,1.44 -0.25,0.2 -0.35,0.2 -0.39,0.2 -0.82,0 -1.85,-2.48 -1.85,-3.68 0,-1.55 3.03,-2.54 4.42,-2.54 3.19,0 5.74,7.02 6.54,9.32 3.23,9.01 4.78,16.43 5.73,21.76 z"
         inkscape:connector-curvature="0" /></g>  </g>
</svg>
