<?xml version="1.0" encoding="UTF-8"?>

<svg version="1.2" baseProfile="tiny" width="78mm" height="62.6mm" viewBox="1879 3572 7800 6260" preserveAspectRatio="xMidYMid" fill-rule="evenodd" stroke-width="28.222" stroke-linejoin="round" xmlns="http://www.w3.org/2000/svg" xmlns:ooo="http://xml.openoffice.org/svg/export" xmlns:xlink="http://www.w3.org/1999/xlink" xmlns:presentation="http://sun.com/xmlns/staroffice/presentation" xmlns:smil="http://www.w3.org/2001/SMIL20/" xmlns:anim="urn:oasis:names:tc:opendocument:xmlns:animation:1.0" xml:space="preserve">
 <defs class="ClipPathGroup">
  <clipPath id="presentation_clip_path" clipPathUnits="userSpaceOnUse">
   <rect x="1879" y="3572" width="7800" height="6260"/>
  </clipPath>
 </defs>
 <defs class="TextShapeIndex">
  <g ooo:slide="id1" ooo:id-list="id3 id4 id5 id6 id7 id8 id9 id10 id11 id12 id13 id14 id15 id16 id17 id18 id19 id20 id21 id22 id23 id24 id25"/>
 </defs>
 <defs class="EmbeddedBulletChars">
  <g id="bullet-char-template(57356)" transform="scale(0.00048828125,-0.00048828125)">
   <path d="M 580,1141 L 1163,571 580,0 -4,571 580,1141 Z"/>
  </g>
  <g id="bullet-char-template(57354)" transform="scale(0.00048828125,-0.00048828125)">
   <path d="M 8,1128 L 1137,1128 1137,0 8,0 8,1128 Z"/>
  </g>
  <g id="bullet-char-template(10146)" transform="scale(0.00048828125,-0.00048828125)">
   <path d="M 174,0 L 602,739 174,1481 1456,739 174,0 Z M 1358,739 L 309,1346 659,739 1358,739 Z"/>
  </g>
  <g id="bullet-char-template(10132)" transform="scale(0.00048828125,-0.00048828125)">
   <path d="M 2015,739 L 1276,0 717,0 1260,543 174,543 174,936 1260,936 717,1481 1274,1481 2015,739 Z"/>
  </g>
  <g id="bullet-char-template(10007)" transform="scale(0.00048828125,-0.00048828125)">
   <path d="M 0,-2 C -7,14 -16,27 -25,37 L 356,567 C 262,823 215,952 215,954 215,979 228,992 255,992 264,992 276,990 289,987 310,991 331,999 354,1012 L 381,999 492,748 772,1049 836,1024 860,1049 C 881,1039 901,1025 922,1006 886,937 835,863 770,784 769,783 710,716 594,584 L 774,223 C 774,196 753,168 711,139 L 727,119 C 717,90 699,76 672,76 641,76 570,178 457,381 L 164,-76 C 142,-110 111,-127 72,-127 30,-127 9,-110 8,-76 1,-67 -2,-52 -2,-32 -2,-23 -1,-13 0,-2 Z"/>
  </g>
  <g id="bullet-char-template(10004)" transform="scale(0.00048828125,-0.00048828125)">
   <path d="M 285,-33 C 182,-33 111,30 74,156 52,228 41,333 41,471 41,549 55,616 82,672 116,743 169,778 240,778 293,778 328,747 346,684 L 369,508 C 377,444 397,411 428,410 L 1163,1116 C 1174,1127 1196,1133 1229,1133 1271,1133 1292,1118 1292,1087 L 1292,965 C 1292,929 1282,901 1262,881 L 442,47 C 390,-6 338,-33 285,-33 Z"/>
  </g>
  <g id="bullet-char-template(9679)" transform="scale(0.00048828125,-0.00048828125)">
   <path d="M 813,0 C 632,0 489,54 383,161 276,268 223,411 223,592 223,773 276,916 383,1023 489,1130 632,1184 813,1184 992,1184 1136,1130 1245,1023 1353,916 1407,772 1407,592 1407,412 1353,268 1245,161 1136,54 992,0 813,0 Z"/>
  </g>
  <g id="bullet-char-template(8226)" transform="scale(0.00048828125,-0.00048828125)">
   <path d="M 346,457 C 273,457 209,483 155,535 101,586 74,649 74,723 74,796 101,859 155,911 209,963 273,989 346,989 419,989 480,963 531,910 582,859 608,796 608,723 608,648 583,586 532,535 482,483 420,457 346,457 Z"/>
  </g>
  <g id="bullet-char-template(8211)" transform="scale(0.00048828125,-0.00048828125)">
   <path d="M -4,459 L 1135,459 1135,606 -4,606 -4,459 Z"/>
  </g>
 </defs>
 <defs class="TextEmbeddedBitmaps"/>
 <g class="SlideGroup">
  <g>
   <g id="id1" class="Slide" clip-path="url(#presentation_clip_path)">
    <g class="Page">
     <g class="Group">
      <g class="com.sun.star.drawing.PolyPolygonShape">
       <g id="id3">
        <rect class="BoundingBox" stroke="none" fill="none" x="2868" y="3822" width="5947" height="6012"/>
        <path fill="none" stroke="rgb(114,159,207)" stroke-width="106" stroke-linejoin="round" d="M 4892,9581 L 6323,9779 7735,9087 8583,7917 8760,6225 8133,4965 6963,4117 5423,3876 4011,4567 3163,5737 2921,7277 3505,8645 4892,9581 Z"/>
       </g>
      </g>
      <g class="com.sun.star.drawing.LineShape">
       <g id="id4">
        <rect class="BoundingBox" stroke="none" fill="none" x="1878" y="6323" width="7802" height="1071"/>
        <path fill="none" stroke="rgb(0,0,0)" stroke-width="53" stroke-linejoin="round" d="M 1905,7366 L 2009,7352"/>
        <path fill="none" stroke="rgb(0,0,0)" stroke-width="53" stroke-linejoin="round" d="M 2072,7344 L 2175,7331"/>
        <path fill="none" stroke="rgb(0,0,0)" stroke-width="53" stroke-linejoin="round" d="M 2238,7322 L 2342,7309"/>
        <path fill="none" stroke="rgb(0,0,0)" stroke-width="53" stroke-linejoin="round" d="M 2405,7300 L 2508,7287"/>
        <path fill="none" stroke="rgb(0,0,0)" stroke-width="53" stroke-linejoin="round" d="M 2571,7279 L 2675,7265"/>
        <path fill="none" stroke="rgb(0,0,0)" stroke-width="53" stroke-linejoin="round" d="M 2738,7257 L 2841,7243"/>
        <path fill="none" stroke="rgb(0,0,0)" stroke-width="53" stroke-linejoin="round" d="M 2905,7235 L 3008,7221"/>
        <path fill="none" stroke="rgb(0,0,0)" stroke-width="53" stroke-linejoin="round" d="M 3071,7213 L 3175,7199"/>
        <path fill="none" stroke="rgb(0,0,0)" stroke-width="53" stroke-linejoin="round" d="M 3238,7191 L 3341,7178"/>
        <path fill="none" stroke="rgb(0,0,0)" stroke-width="53" stroke-linejoin="round" d="M 3404,7169 L 3508,7156"/>
        <path fill="none" stroke="rgb(0,0,0)" stroke-width="53" stroke-linejoin="round" d="M 3571,7148 L 3674,7134"/>
        <path fill="none" stroke="rgb(0,0,0)" stroke-width="53" stroke-linejoin="round" d="M 3737,7126 L 3841,7112"/>
        <path fill="none" stroke="rgb(0,0,0)" stroke-width="53" stroke-linejoin="round" d="M 3904,7104 L 4008,7090"/>
        <path fill="none" stroke="rgb(0,0,0)" stroke-width="53" stroke-linejoin="round" d="M 4071,7082 L 4174,7068"/>
        <path fill="none" stroke="rgb(0,0,0)" stroke-width="53" stroke-linejoin="round" d="M 4237,7060 L 4341,7047"/>
        <path fill="none" stroke="rgb(0,0,0)" stroke-width="53" stroke-linejoin="round" d="M 4404,7038 L 4507,7025"/>
        <path fill="none" stroke="rgb(0,0,0)" stroke-width="53" stroke-linejoin="round" d="M 4570,7016 L 4674,7003"/>
        <path fill="none" stroke="rgb(0,0,0)" stroke-width="53" stroke-linejoin="round" d="M 4737,6995 L 4840,6981"/>
        <path fill="none" stroke="rgb(0,0,0)" stroke-width="53" stroke-linejoin="round" d="M 4904,6973 L 5007,6959"/>
        <path fill="none" stroke="rgb(0,0,0)" stroke-width="53" stroke-linejoin="round" d="M 5070,6951 L 5174,6937"/>
        <path fill="none" stroke="rgb(0,0,0)" stroke-width="53" stroke-linejoin="round" d="M 5237,6929 L 5340,6915"/>
        <path fill="none" stroke="rgb(0,0,0)" stroke-width="53" stroke-linejoin="round" d="M 5403,6907 L 5507,6894"/>
        <path fill="none" stroke="rgb(0,0,0)" stroke-width="53" stroke-linejoin="round" d="M 5570,6885 L 5673,6872"/>
        <path fill="none" stroke="rgb(0,0,0)" stroke-width="53" stroke-linejoin="round" d="M 5736,6864 L 5840,6850"/>
        <path fill="none" stroke="rgb(0,0,0)" stroke-width="53" stroke-linejoin="round" d="M 5903,6842 L 6007,6828"/>
        <path fill="none" stroke="rgb(0,0,0)" stroke-width="53" stroke-linejoin="round" d="M 6070,6820 L 6173,6806"/>
        <path fill="none" stroke="rgb(0,0,0)" stroke-width="53" stroke-linejoin="round" d="M 6236,6798 L 6340,6784"/>
        <path fill="none" stroke="rgb(0,0,0)" stroke-width="53" stroke-linejoin="round" d="M 6403,6776 L 6506,6763"/>
        <path fill="none" stroke="rgb(0,0,0)" stroke-width="53" stroke-linejoin="round" d="M 6569,6754 L 6673,6741"/>
        <path fill="none" stroke="rgb(0,0,0)" stroke-width="53" stroke-linejoin="round" d="M 6736,6732 L 6839,6719"/>
        <path fill="none" stroke="rgb(0,0,0)" stroke-width="53" stroke-linejoin="round" d="M 6903,6711 L 7006,6697"/>
        <path fill="none" stroke="rgb(0,0,0)" stroke-width="53" stroke-linejoin="round" d="M 7069,6689 L 7173,6675"/>
        <path fill="none" stroke="rgb(0,0,0)" stroke-width="53" stroke-linejoin="round" d="M 7236,6667 L 7339,6653"/>
        <path fill="none" stroke="rgb(0,0,0)" stroke-width="53" stroke-linejoin="round" d="M 7402,6645 L 7506,6631"/>
        <path fill="none" stroke="rgb(0,0,0)" stroke-width="53" stroke-linejoin="round" d="M 7569,6623 L 7672,6610"/>
        <path fill="none" stroke="rgb(0,0,0)" stroke-width="53" stroke-linejoin="round" d="M 7735,6601 L 7839,6588"/>
        <path fill="none" stroke="rgb(0,0,0)" stroke-width="53" stroke-linejoin="round" d="M 7902,6580 L 8006,6566"/>
        <path fill="none" stroke="rgb(0,0,0)" stroke-width="53" stroke-linejoin="round" d="M 8069,6558 L 8172,6544"/>
        <path fill="none" stroke="rgb(0,0,0)" stroke-width="53" stroke-linejoin="round" d="M 8235,6536 L 8339,6522"/>
        <path fill="none" stroke="rgb(0,0,0)" stroke-width="53" stroke-linejoin="round" d="M 8402,6514 L 8505,6500"/>
        <path fill="none" stroke="rgb(0,0,0)" stroke-width="53" stroke-linejoin="round" d="M 8568,6492 L 8672,6479"/>
        <path fill="none" stroke="rgb(0,0,0)" stroke-width="53" stroke-linejoin="round" d="M 8735,6470 L 8838,6457"/>
        <path fill="none" stroke="rgb(0,0,0)" stroke-width="53" stroke-linejoin="round" d="M 8902,6448 L 9005,6435"/>
        <path fill="none" stroke="rgb(0,0,0)" stroke-width="53" stroke-linejoin="round" d="M 9068,6427 L 9172,6413"/>
        <path fill="none" stroke="rgb(0,0,0)" stroke-width="53" stroke-linejoin="round" d="M 9235,6405 L 9338,6391"/>
        <path fill="none" stroke="rgb(0,0,0)" stroke-width="53" stroke-linejoin="round" d="M 9401,6383 L 9505,6369"/>
        <path fill="none" stroke="rgb(0,0,0)" stroke-width="53" stroke-linejoin="round" d="M 9568,6361 L 9652,6350"/>
       </g>
      </g>
      <g class="com.sun.star.drawing.LineShape">
       <g id="id5">
        <rect class="BoundingBox" stroke="none" fill="none" x="5501" y="5163" width="378" height="1723"/>
        <path fill="none" stroke="rgb(0,0,0)" stroke-width="53" stroke-linejoin="round" d="M 5842,6858 L 5686,5701"/>
        <path fill="rgb(0,0,0)" stroke="none" d="M 5614,5163 L 5502,5752 5878,5701 5614,5163 Z"/>
       </g>
      </g>
      <g class="com.sun.star.drawing.LineShape">
       <g id="id6">
        <rect class="BoundingBox" stroke="none" fill="none" x="5801" y="3937" width="2791" height="2963"/>
        <path fill="none" stroke="rgb(204,0,0)" stroke-width="81" stroke-linejoin="round" d="M 5842,6858 L 8177,4376"/>
        <path fill="rgb(204,0,0)" stroke="none" d="M 8591,3937 L 8005,4253 8311,4541 8591,3937 Z"/>
       </g>
      </g>
      <g class="Group">
       <g class="com.sun.star.drawing.ClosedBezierShape">
        <g id="id7">
         <rect class="BoundingBox" stroke="none" fill="none" x="5841" y="3940" width="2798" height="2924"/>
         <path fill="none" stroke="rgb(204,0,0)" d="M 5842,6862 C 9215,5084 8591,3941 8591,3941 L 5842,6862 Z"/>
        </g>
       </g>
       <g class="com.sun.star.drawing.ClosedBezierShape">
        <g id="id8">
         <rect class="BoundingBox" stroke="none" fill="none" x="5843" y="3907" width="2746" height="2967"/>
         <path fill="none" stroke="rgb(204,0,0)" d="M 5844,6872 C 7435,3363 8587,3944 8587,3944 L 5844,6872 Z"/>
        </g>
       </g>
      </g>
      <g class="com.sun.star.drawing.CustomShape">
       <g id="id9">
        <rect class="BoundingBox" stroke="none" fill="none" x="3138" y="7886" width="131" height="131"/>
        <path fill="rgb(17,17,17)" stroke="none" d="M 3202,7887 C 3238,7887 3266,7914 3266,7950 3266,7986 3238,8014 3202,8014 3166,8014 3139,7986 3139,7950 3139,7914 3166,7887 3202,7887 Z M 3139,7887 L 3139,7887 Z M 3267,8015 L 3267,8015 Z"/>
        <path fill="none" stroke="rgb(0,0,0)" d="M 3202,7887 C 3238,7887 3266,7914 3266,7950 3266,7986 3238,8014 3202,8014 3166,8014 3139,7986 3139,7950 3139,7914 3166,7887 3202,7887 Z"/>
        <path fill="none" stroke="rgb(0,0,0)" d="M 3139,7887 L 3139,7887 Z"/>
        <path fill="none" stroke="rgb(0,0,0)" d="M 3267,8015 L 3267,8015 Z"/>
       </g>
      </g>
      <g class="com.sun.star.drawing.CustomShape">
       <g id="id10">
        <rect class="BoundingBox" stroke="none" fill="none" x="6882" y="4059" width="138" height="138"/>
        <path fill="rgb(204,0,0)" stroke="none" d="M 6950,4060 C 6988,4060 7017,4089 7017,4127 7017,4165 6988,4194 6950,4194 6912,4194 6883,4165 6883,4127 6883,4089 6912,4060 6950,4060 Z M 6883,4060 L 6883,4060 Z M 7018,4195 L 7018,4195 Z"/>
        <path fill="none" stroke="rgb(0,0,0)" d="M 6950,4060 C 6988,4060 7017,4089 7017,4127 7017,4165 6988,4194 6950,4194 6912,4194 6883,4165 6883,4127 6883,4089 6912,4060 6950,4060 Z"/>
        <path fill="none" stroke="rgb(0,0,0)" d="M 6883,4060 L 6883,4060 Z"/>
        <path fill="none" stroke="rgb(0,0,0)" d="M 7018,4195 L 7018,4195 Z"/>
       </g>
      </g>
      <g class="com.sun.star.drawing.CustomShape">
       <g id="id11">
        <rect class="BoundingBox" stroke="none" fill="none" x="6163" y="3939" width="131" height="131"/>
        <path fill="rgb(17,17,17)" stroke="none" d="M 6227,3940 C 6263,3940 6291,3967 6291,4003 6291,4039 6263,4067 6227,4067 6191,4067 6164,4039 6164,4003 6164,3967 6191,3940 6227,3940 Z M 6164,3940 L 6164,3940 Z M 6292,4068 L 6292,4068 Z"/>
        <path fill="none" stroke="rgb(0,0,0)" d="M 6227,3940 C 6263,3940 6291,3967 6291,4003 6291,4039 6263,4067 6227,4067 6191,4067 6164,4039 6164,4003 6164,3967 6191,3940 6227,3940 Z"/>
        <path fill="none" stroke="rgb(0,0,0)" d="M 6164,3940 L 6164,3940 Z"/>
        <path fill="none" stroke="rgb(0,0,0)" d="M 6292,4068 L 6292,4068 Z"/>
       </g>
      </g>
      <g class="com.sun.star.drawing.CustomShape">
       <g id="id12">
        <rect class="BoundingBox" stroke="none" fill="none" x="4681" y="4145" width="131" height="131"/>
        <path fill="rgb(17,17,17)" stroke="none" d="M 4745,4146 C 4781,4146 4809,4173 4809,4209 4809,4245 4781,4273 4745,4273 4709,4273 4682,4245 4682,4209 4682,4173 4709,4146 4745,4146 Z M 4682,4146 L 4682,4146 Z M 4810,4274 L 4810,4274 Z"/>
        <path fill="none" stroke="rgb(0,0,0)" d="M 4745,4146 C 4781,4146 4809,4173 4809,4209 4809,4245 4781,4273 4745,4273 4709,4273 4682,4245 4682,4209 4682,4173 4709,4146 4745,4146 Z"/>
        <path fill="none" stroke="rgb(0,0,0)" d="M 4682,4146 L 4682,4146 Z"/>
        <path fill="none" stroke="rgb(0,0,0)" d="M 4810,4274 L 4810,4274 Z"/>
       </g>
      </g>
      <g class="com.sun.star.drawing.CustomShape">
       <g id="id13">
        <rect class="BoundingBox" stroke="none" fill="none" x="3533" y="5069" width="131" height="131"/>
        <path fill="rgb(17,17,17)" stroke="none" d="M 3597,5070 C 3633,5070 3661,5097 3661,5133 3661,5169 3633,5197 3597,5197 3561,5197 3534,5169 3534,5133 3534,5097 3561,5070 3597,5070 Z M 3534,5070 L 3534,5070 Z M 3662,5198 L 3662,5198 Z"/>
        <path fill="none" stroke="rgb(0,0,0)" d="M 3597,5070 C 3633,5070 3661,5097 3661,5133 3661,5169 3633,5197 3597,5197 3561,5197 3534,5169 3534,5133 3534,5097 3561,5070 3597,5070 Z"/>
        <path fill="none" stroke="rgb(0,0,0)" d="M 3534,5070 L 3534,5070 Z"/>
        <path fill="none" stroke="rgb(0,0,0)" d="M 3662,5198 L 3662,5198 Z"/>
       </g>
      </g>
      <g class="com.sun.star.drawing.CustomShape">
       <g id="id14">
        <rect class="BoundingBox" stroke="none" fill="none" x="5576" y="9611" width="131" height="131"/>
        <path fill="rgb(17,17,17)" stroke="none" d="M 5640,9612 C 5676,9612 5704,9639 5704,9675 5704,9711 5676,9739 5640,9739 5604,9739 5577,9711 5577,9675 5577,9639 5604,9612 5640,9612 Z M 5577,9612 L 5577,9612 Z M 5705,9740 L 5705,9740 Z"/>
        <path fill="none" stroke="rgb(0,0,0)" d="M 5640,9612 C 5676,9612 5704,9639 5704,9675 5704,9711 5676,9739 5640,9739 5604,9739 5577,9711 5577,9675 5577,9639 5604,9612 5640,9612 Z"/>
        <path fill="none" stroke="rgb(0,0,0)" d="M 5577,9612 L 5577,9612 Z"/>
        <path fill="none" stroke="rgb(0,0,0)" d="M 5705,9740 L 5705,9740 Z"/>
       </g>
      </g>
      <g class="com.sun.star.drawing.CustomShape">
       <g id="id15">
        <rect class="BoundingBox" stroke="none" fill="none" x="2999" y="6348" width="131" height="131"/>
        <path fill="rgb(17,17,17)" stroke="none" d="M 3063,6349 C 3099,6349 3127,6376 3127,6412 3127,6448 3099,6476 3063,6476 3027,6476 3000,6448 3000,6412 3000,6376 3027,6349 3063,6349 Z M 3000,6349 L 3000,6349 Z M 3128,6477 L 3128,6477 Z"/>
        <path fill="none" stroke="rgb(0,0,0)" d="M 3063,6349 C 3099,6349 3127,6376 3127,6412 3127,6448 3099,6476 3063,6476 3027,6476 3000,6448 3000,6412 3000,6376 3027,6349 3063,6349 Z"/>
        <path fill="none" stroke="rgb(0,0,0)" d="M 3000,6349 L 3000,6349 Z"/>
        <path fill="none" stroke="rgb(0,0,0)" d="M 3128,6477 L 3128,6477 Z"/>
       </g>
      </g>
      <g class="com.sun.star.drawing.CustomShape">
       <g id="id16">
        <rect class="BoundingBox" stroke="none" fill="none" x="4172" y="9076" width="131" height="131"/>
        <path fill="rgb(17,17,17)" stroke="none" d="M 4236,9077 C 4272,9077 4300,9104 4300,9140 4300,9176 4272,9204 4236,9204 4200,9204 4173,9176 4173,9140 4173,9104 4200,9077 4236,9077 Z M 4173,9077 L 4173,9077 Z M 4301,9205 L 4301,9205 Z"/>
        <path fill="none" stroke="rgb(0,0,0)" d="M 4236,9077 C 4272,9077 4300,9104 4300,9140 4300,9176 4272,9204 4236,9204 4200,9204 4173,9176 4173,9140 4173,9104 4200,9077 4236,9077 Z"/>
        <path fill="none" stroke="rgb(0,0,0)" d="M 4173,9077 L 4173,9077 Z"/>
        <path fill="none" stroke="rgb(0,0,0)" d="M 4301,9205 L 4301,9205 Z"/>
       </g>
      </g>
      <g class="com.sun.star.drawing.CustomShape">
       <g id="id17">
        <rect class="BoundingBox" stroke="none" fill="none" x="7010" y="9350" width="131" height="131"/>
        <path fill="rgb(17,17,17)" stroke="none" d="M 7074,9351 C 7110,9351 7138,9378 7138,9414 7138,9450 7110,9478 7074,9478 7038,9478 7011,9450 7011,9414 7011,9378 7038,9351 7074,9351 Z M 7011,9351 L 7011,9351 Z M 7139,9479 L 7139,9479 Z"/>
        <path fill="none" stroke="rgb(0,0,0)" d="M 7074,9351 C 7110,9351 7138,9378 7138,9414 7138,9450 7110,9478 7074,9478 7038,9478 7011,9450 7011,9414 7011,9378 7038,9351 7074,9351 Z"/>
        <path fill="none" stroke="rgb(0,0,0)" d="M 7011,9351 L 7011,9351 Z"/>
        <path fill="none" stroke="rgb(0,0,0)" d="M 7139,9479 L 7139,9479 Z"/>
       </g>
      </g>
      <g class="com.sun.star.drawing.CustomShape">
       <g id="id18">
        <rect class="BoundingBox" stroke="none" fill="none" x="8609" y="7013" width="131" height="131"/>
        <path fill="rgb(17,17,17)" stroke="none" d="M 8673,7014 C 8709,7014 8737,7041 8737,7077 8737,7113 8709,7141 8673,7141 8637,7141 8610,7113 8610,7077 8610,7041 8637,7014 8673,7014 Z M 8610,7014 L 8610,7014 Z M 8738,7142 L 8738,7142 Z"/>
        <path fill="none" stroke="rgb(0,0,0)" d="M 8673,7014 C 8709,7014 8737,7041 8737,7077 8737,7113 8709,7141 8673,7141 8637,7141 8610,7113 8610,7077 8610,7041 8637,7014 8673,7014 Z"/>
        <path fill="none" stroke="rgb(0,0,0)" d="M 8610,7014 L 8610,7014 Z"/>
        <path fill="none" stroke="rgb(0,0,0)" d="M 8738,7142 L 8738,7142 Z"/>
       </g>
      </g>
      <g class="com.sun.star.drawing.CustomShape">
       <g id="id19">
        <rect class="BoundingBox" stroke="none" fill="none" x="8100" y="8429" width="131" height="131"/>
        <path fill="rgb(17,17,17)" stroke="none" d="M 8164,8430 C 8200,8430 8228,8457 8228,8493 8228,8529 8200,8557 8164,8557 8128,8557 8101,8529 8101,8493 8101,8457 8128,8430 8164,8430 Z M 8101,8430 L 8101,8430 Z M 8229,8558 L 8229,8558 Z"/>
        <path fill="none" stroke="rgb(0,0,0)" d="M 8164,8430 C 8200,8430 8228,8457 8228,8493 8228,8529 8200,8557 8164,8557 8128,8557 8101,8529 8101,8493 8101,8457 8128,8430 8164,8430 Z"/>
        <path fill="none" stroke="rgb(0,0,0)" d="M 8101,8430 L 8101,8430 Z"/>
        <path fill="none" stroke="rgb(0,0,0)" d="M 8229,8558 L 8229,8558 Z"/>
       </g>
      </g>
      <g class="com.sun.star.drawing.CustomShape">
       <g id="id20">
        <rect class="BoundingBox" stroke="none" fill="none" x="8368" y="5507" width="131" height="131"/>
        <path fill="rgb(17,17,17)" stroke="none" d="M 8432,5508 C 8468,5508 8496,5535 8496,5571 8496,5607 8468,5635 8432,5635 8396,5635 8369,5607 8369,5571 8369,5535 8396,5508 8432,5508 Z M 8369,5508 L 8369,5508 Z M 8497,5636 L 8497,5636 Z"/>
        <path fill="none" stroke="rgb(0,0,0)" d="M 8432,5508 C 8468,5508 8496,5535 8496,5571 8496,5607 8468,5635 8432,5635 8396,5635 8369,5607 8369,5571 8369,5535 8396,5508 8432,5508 Z"/>
        <path fill="none" stroke="rgb(0,0,0)" d="M 8369,5508 L 8369,5508 Z"/>
        <path fill="none" stroke="rgb(0,0,0)" d="M 8497,5636 L 8497,5636 Z"/>
       </g>
      </g>
      <g class="com.sun.star.drawing.CustomShape">
       <g id="id21">
        <rect class="BoundingBox" stroke="none" fill="none" x="7448" y="4450" width="131" height="131"/>
        <path fill="rgb(204,0,0)" stroke="none" d="M 7512,4451 C 7548,4451 7576,4478 7576,4514 7576,4550 7548,4578 7512,4578 7476,4578 7449,4550 7449,4514 7449,4478 7476,4451 7512,4451 Z M 7449,4451 L 7449,4451 Z M 7577,4579 L 7577,4579 Z"/>
        <path fill="none" stroke="rgb(0,0,0)" d="M 7512,4451 C 7548,4451 7576,4478 7576,4514 7576,4550 7548,4578 7512,4578 7476,4578 7449,4550 7449,4514 7449,4478 7476,4451 7512,4451 Z"/>
        <path fill="none" stroke="rgb(0,0,0)" d="M 7449,4451 L 7449,4451 Z"/>
        <path fill="none" stroke="rgb(0,0,0)" d="M 7577,4579 L 7577,4579 Z"/>
       </g>
      </g>
      <g class="com.sun.star.drawing.CustomShape">
       <g id="id22">
        <rect class="BoundingBox" stroke="none" fill="none" x="8688" y="6161" width="138" height="138"/>
        <path fill="rgb(204,0,0)" stroke="none" d="M 8756,6162 C 8794,6162 8823,6191 8823,6229 8823,6267 8794,6296 8756,6296 8718,6296 8689,6267 8689,6229 8689,6191 8718,6162 8756,6162 Z M 8689,6162 L 8689,6162 Z M 8824,6297 L 8824,6297 Z"/>
        <path fill="none" stroke="rgb(0,0,0)" d="M 8756,6162 C 8794,6162 8823,6191 8823,6229 8823,6267 8794,6296 8756,6296 8718,6296 8689,6267 8689,6229 8689,6191 8718,6162 8756,6162 Z"/>
        <path fill="none" stroke="rgb(0,0,0)" d="M 8689,6162 L 8689,6162 Z"/>
        <path fill="none" stroke="rgb(0,0,0)" d="M 8824,6297 L 8824,6297 Z"/>
       </g>
      </g>
      <g class="com.sun.star.drawing.ConnectorShape">
       <g id="id23">
        <rect class="BoundingBox" stroke="none" fill="none" x="6228" y="3572" width="830" height="489"/>
        <path fill="none" stroke="rgb(204,0,0)" d="M 6229,3941 C 6229,3922 6230,3903 6232,3885"/>
        <path fill="none" stroke="rgb(204,0,0)" d="M 6240,3834 C 6244,3816 6249,3799 6255,3783"/>
        <path fill="none" stroke="rgb(204,0,0)" d="M 6277,3735 C 6286,3719 6296,3704 6307,3691"/>
        <path fill="none" stroke="rgb(204,0,0)" d="M 6343,3652 C 6356,3640 6370,3629 6385,3620"/>
        <path fill="none" stroke="rgb(204,0,0)" d="M 6432,3596 C 6449,3590 6466,3584 6483,3580"/>
        <path fill="none" stroke="rgb(204,0,0)" d="M 6536,3573 C 6553,3572 6571,3573 6589,3574"/>
        <path fill="none" stroke="rgb(204,0,0)" d="M 6641,3583 C 6658,3588 6675,3593 6692,3600"/>
        <path fill="none" stroke="rgb(204,0,0)" d="M 6739,3624 C 6754,3633 6769,3643 6783,3655"/>
        <path fill="none" stroke="rgb(204,0,0)" d="M 6822,3690 C 6834,3703 6845,3717 6856,3731"/>
        <path fill="none" stroke="rgb(204,0,0)" d="M 6884,3775 C 6893,3791 6900,3807 6907,3824"/>
        <path fill="rgb(204,0,0)" stroke="none" d="M 6950,4060 L 7056,3798 6761,3851 6950,4060 Z"/>
       </g>
      </g>
      <g class="com.sun.star.drawing.ConnectorShape">
       <g id="id24">
        <rect class="BoundingBox" stroke="none" fill="none" x="8719" y="6114" width="708" height="1012"/>
        <path fill="none" stroke="rgb(204,0,0)" d="M 8720,7124 C 8740,7124 8759,7124 8778,7123"/>
        <path fill="none" stroke="rgb(204,0,0)" d="M 8833,7120 C 8851,7119 8868,7117 8885,7115"/>
        <path fill="none" stroke="rgb(204,0,0)" d="M 8935,7109 C 8952,7106 8970,7103 8986,7099"/>
        <path fill="none" stroke="rgb(204,0,0)" d="M 9041,7087 C 9059,7082 9075,7077 9092,7071"/>
        <path fill="none" stroke="rgb(204,0,0)" d="M 9139,7054 C 9156,7047 9172,7039 9188,7031"/>
        <path fill="none" stroke="rgb(204,0,0)" d="M 9235,7005 C 9250,6995 9264,6986 9277,6975"/>
        <path fill="none" stroke="rgb(204,0,0)" d="M 9317,6940 C 9330,6927 9342,6914 9353,6900"/>
        <path fill="none" stroke="rgb(204,0,0)" d="M 9381,6857 C 9390,6841 9398,6825 9404,6808"/>
        <path fill="none" stroke="rgb(204,0,0)" d="M 9418,6757 C 9422,6740 9424,6722 9425,6705"/>
        <path fill="none" stroke="rgb(204,0,0)" d="M 9423,6651 C 9421,6634 9418,6617 9413,6599"/>
        <path fill="none" stroke="rgb(204,0,0)" d="M 9396,6549 C 9389,6533 9381,6517 9372,6501"/>
        <path fill="none" stroke="rgb(204,0,0)" d="M 9344,6457 C 9333,6443 9321,6429 9309,6416"/>
        <path fill="none" stroke="rgb(204,0,0)" d="M 9271,6379 C 9258,6368 9244,6357 9229,6347"/>
        <path fill="none" stroke="rgb(204,0,0)" d="M 9183,6317 C 9169,6309 9154,6301 9138,6294"/>
        <path fill="none" stroke="rgb(204,0,0)" d="M 9089,6273 C 9072,6267 9054,6261 9036,6256"/>
        <path fill="rgb(204,0,0)" stroke="none" d="M 8823,6229 L 9039,6411 9081,6114 8823,6229 Z"/>
       </g>
      </g>
      <g class="com.sun.star.drawing.LineShape">
       <g id="id25">
        <rect class="BoundingBox" stroke="none" fill="none" x="2005" y="3783" width="7294" height="5897"/>
        <path fill="none" stroke="rgb(204,0,0)" stroke-width="53" stroke-linejoin="round" d="M 9271,9652 L 9190,9586"/>
        <path fill="none" stroke="rgb(204,0,0)" stroke-width="53" stroke-linejoin="round" d="M 9140,9546 L 9059,9481"/>
        <path fill="none" stroke="rgb(204,0,0)" stroke-width="53" stroke-linejoin="round" d="M 9010,9441 L 8928,9375"/>
        <path fill="none" stroke="rgb(204,0,0)" stroke-width="53" stroke-linejoin="round" d="M 8879,9335 L 8798,9270"/>
        <path fill="none" stroke="rgb(204,0,0)" stroke-width="53" stroke-linejoin="round" d="M 8748,9230 L 8667,9164"/>
        <path fill="none" stroke="rgb(204,0,0)" stroke-width="53" stroke-linejoin="round" d="M 8617,9124 L 8536,9059"/>
        <path fill="none" stroke="rgb(204,0,0)" stroke-width="53" stroke-linejoin="round" d="M 8487,9019 L 8405,8953"/>
        <path fill="none" stroke="rgb(204,0,0)" stroke-width="53" stroke-linejoin="round" d="M 8356,8913 L 8275,8848"/>
        <path fill="none" stroke="rgb(204,0,0)" stroke-width="53" stroke-linejoin="round" d="M 8225,8808 L 8144,8742"/>
        <path fill="none" stroke="rgb(204,0,0)" stroke-width="53" stroke-linejoin="round" d="M 8094,8702 L 8013,8637"/>
        <path fill="none" stroke="rgb(204,0,0)" stroke-width="53" stroke-linejoin="round" d="M 7964,8597 L 7882,8531"/>
        <path fill="none" stroke="rgb(204,0,0)" stroke-width="53" stroke-linejoin="round" d="M 7833,8491 L 7752,8426"/>
        <path fill="none" stroke="rgb(204,0,0)" stroke-width="53" stroke-linejoin="round" d="M 7702,8386 L 7621,8320"/>
        <path fill="none" stroke="rgb(204,0,0)" stroke-width="53" stroke-linejoin="round" d="M 7571,8280 L 7490,8215"/>
        <path fill="none" stroke="rgb(204,0,0)" stroke-width="53" stroke-linejoin="round" d="M 7441,8175 L 7359,8109"/>
        <path fill="none" stroke="rgb(204,0,0)" stroke-width="53" stroke-linejoin="round" d="M 7310,8069 L 7229,8004"/>
        <path fill="none" stroke="rgb(204,0,0)" stroke-width="53" stroke-linejoin="round" d="M 7179,7964 L 7098,7898"/>
        <path fill="none" stroke="rgb(204,0,0)" stroke-width="53" stroke-linejoin="round" d="M 7048,7858 L 6967,7793"/>
        <path fill="none" stroke="rgb(204,0,0)" stroke-width="53" stroke-linejoin="round" d="M 6918,7753 L 6836,7687"/>
        <path fill="none" stroke="rgb(204,0,0)" stroke-width="53" stroke-linejoin="round" d="M 6787,7647 L 6706,7582"/>
        <path fill="none" stroke="rgb(204,0,0)" stroke-width="53" stroke-linejoin="round" d="M 6656,7542 L 6575,7476"/>
        <path fill="none" stroke="rgb(204,0,0)" stroke-width="53" stroke-linejoin="round" d="M 6525,7436 L 6444,7371"/>
        <path fill="none" stroke="rgb(204,0,0)" stroke-width="53" stroke-linejoin="round" d="M 6395,7331 L 6313,7265"/>
        <path fill="none" stroke="rgb(204,0,0)" stroke-width="53" stroke-linejoin="round" d="M 6264,7225 L 6183,7160"/>
        <path fill="none" stroke="rgb(204,0,0)" stroke-width="53" stroke-linejoin="round" d="M 6133,7120 L 6052,7054"/>
        <path fill="none" stroke="rgb(204,0,0)" stroke-width="53" stroke-linejoin="round" d="M 6002,7014 L 5921,6949"/>
        <path fill="none" stroke="rgb(204,0,0)" stroke-width="53" stroke-linejoin="round" d="M 5872,6909 L 5790,6843"/>
        <path fill="none" stroke="rgb(204,0,0)" stroke-width="53" stroke-linejoin="round" d="M 5741,6803 L 5660,6738"/>
        <path fill="none" stroke="rgb(204,0,0)" stroke-width="53" stroke-linejoin="round" d="M 5610,6698 L 5529,6632"/>
        <path fill="none" stroke="rgb(204,0,0)" stroke-width="53" stroke-linejoin="round" d="M 5479,6592 L 5398,6527"/>
        <path fill="none" stroke="rgb(204,0,0)" stroke-width="53" stroke-linejoin="round" d="M 5349,6487 L 5267,6421"/>
        <path fill="none" stroke="rgb(204,0,0)" stroke-width="53" stroke-linejoin="round" d="M 5218,6381 L 5137,6316"/>
        <path fill="none" stroke="rgb(204,0,0)" stroke-width="53" stroke-linejoin="round" d="M 5087,6276 L 5006,6210"/>
        <path fill="none" stroke="rgb(204,0,0)" stroke-width="53" stroke-linejoin="round" d="M 4956,6170 L 4875,6104"/>
        <path fill="none" stroke="rgb(204,0,0)" stroke-width="53" stroke-linejoin="round" d="M 4826,6065 L 4744,5999"/>
        <path fill="none" stroke="rgb(204,0,0)" stroke-width="53" stroke-linejoin="round" d="M 4695,5959 L 4614,5893"/>
        <path fill="none" stroke="rgb(204,0,0)" stroke-width="53" stroke-linejoin="round" d="M 4564,5854 L 4483,5788"/>
        <path fill="none" stroke="rgb(204,0,0)" stroke-width="53" stroke-linejoin="round" d="M 4433,5748 L 4352,5682"/>
        <path fill="none" stroke="rgb(204,0,0)" stroke-width="53" stroke-linejoin="round" d="M 4303,5642 L 4221,5577"/>
        <path fill="none" stroke="rgb(204,0,0)" stroke-width="53" stroke-linejoin="round" d="M 4172,5537 L 4091,5471"/>
        <path fill="none" stroke="rgb(204,0,0)" stroke-width="53" stroke-linejoin="round" d="M 4041,5431 L 3960,5366"/>
        <path fill="none" stroke="rgb(204,0,0)" stroke-width="53" stroke-linejoin="round" d="M 3910,5326 L 3829,5260"/>
        <path fill="none" stroke="rgb(204,0,0)" stroke-width="53" stroke-linejoin="round" d="M 3780,5220 L 3698,5155"/>
        <path fill="none" stroke="rgb(204,0,0)" stroke-width="53" stroke-linejoin="round" d="M 3649,5115 L 3568,5049"/>
        <path fill="none" stroke="rgb(204,0,0)" stroke-width="53" stroke-linejoin="round" d="M 3518,5009 L 3437,4944"/>
        <path fill="none" stroke="rgb(204,0,0)" stroke-width="53" stroke-linejoin="round" d="M 3387,4904 L 3306,4838"/>
        <path fill="none" stroke="rgb(204,0,0)" stroke-width="53" stroke-linejoin="round" d="M 3257,4798 L 3175,4733"/>
        <path fill="none" stroke="rgb(204,0,0)" stroke-width="53" stroke-linejoin="round" d="M 3126,4693 L 3045,4627"/>
        <path fill="none" stroke="rgb(204,0,0)" stroke-width="53" stroke-linejoin="round" d="M 2995,4587 L 2914,4522"/>
        <path fill="none" stroke="rgb(204,0,0)" stroke-width="53" stroke-linejoin="round" d="M 2864,4482 L 2783,4416"/>
        <path fill="none" stroke="rgb(204,0,0)" stroke-width="53" stroke-linejoin="round" d="M 2734,4376 L 2652,4311"/>
        <path fill="none" stroke="rgb(204,0,0)" stroke-width="53" stroke-linejoin="round" d="M 2603,4271 L 2522,4205"/>
        <path fill="none" stroke="rgb(204,0,0)" stroke-width="53" stroke-linejoin="round" d="M 2472,4165 L 2391,4100"/>
        <path fill="none" stroke="rgb(204,0,0)" stroke-width="53" stroke-linejoin="round" d="M 2342,4060 L 2260,3994"/>
        <path fill="none" stroke="rgb(204,0,0)" stroke-width="53" stroke-linejoin="round" d="M 2211,3954 L 2130,3889"/>
        <path fill="none" stroke="rgb(204,0,0)" stroke-width="53" stroke-linejoin="round" d="M 2080,3849 L 2032,3810"/>
       </g>
      </g>
     </g>
    </g>
   </g>
  </g>
 </g>
</svg>