<?xml version="1.0" encoding="UTF-8"?>
<!-- Created with Inkscape (http://www.inkscape.org/) -->
<svg width="127.73mm" height="127.73mm" version="1.1" viewBox="0 0 127.72998 127.72998" xmlns="http://www.w3.org/2000/svg" xmlns:cc="http://creativecommons.org/ns#" xmlns:dc="http://purl.org/dc/elements/1.1/" xmlns:rdf="http://www.w3.org/1999/02/22-rdf-syntax-ns#">
 <metadata>
  <rdf:RDF>
   <cc:Work rdf:about="">
    <dc:format>image/svg+xml</dc:format>
    <dc:type rdf:resource="http://purl.org/dc/dcmitype/StillImage"/>
    <dc:title/>
   </cc:Work>
  </rdf:RDF>
 </metadata>
 <g transform="translate(-49.603 -59.266)">
  <path d="m50.271 69.836h126.24m-126.24 10.583h126.24m-126.24 10.583h126.24m-126.24 10.583h126.24m-126.24 10.583h126.24m-126.24 10.583h126.24m-126.24 10.583h126.24m-126.24 10.583h126.24m-126.24 10.583h126.24m-126.24 10.583h126.24m-126.24 10.583h126.24m-10.205-116.04v126.24m-10.583-126.24v126.24m-10.583-126.24v126.24m-10.583-126.24v126.24m-10.583-126.24v126.24m-10.583-126.24v126.24m-10.583-126.24v126.24m-10.583-126.24v126.24m-10.583-126.24v126.24m-10.583-126.24v126.24m-10.583-126.24v126.24m-10.373-126.11h126.73v126.73h-126.73z" fill="none" stroke="#000"/>
 </g>
</svg>
