<?xml version="1.0" encoding="UTF-8" standalone="no"?>
<!-- Created with Inkscape (http://www.inkscape.org/) -->

<svg
   xmlns:dc="http://purl.org/dc/elements/1.1/"
   xmlns:cc="http://creativecommons.org/ns#"
   xmlns:rdf="http://www.w3.org/1999/02/22-rdf-syntax-ns#"
   xmlns:svg="http://www.w3.org/2000/svg"
   xmlns="http://www.w3.org/2000/svg"
   xmlns:xlink="http://www.w3.org/1999/xlink"
   xmlns:sodipodi="http://sodipodi.sourceforge.net/DTD/sodipodi-0.dtd"
   xmlns:inkscape="http://www.inkscape.org/namespaces/inkscape"
   width="217.19mm"
   height="146.78mm"
   version="1.1"
   viewBox="0 0 217.1944 146.78134"
   id="svg9425"
   sodipodi:docname="narrowlobe.svg"
   inkscape:version="0.92.2 5c3e80d, 2017-08-06">
  <sodipodi:namedview
     pagecolor="#ffffff"
     bordercolor="#666666"
     borderopacity="1"
     objecttolerance="10"
     gridtolerance="10"
     guidetolerance="10"
     inkscape:pageopacity="0"
     inkscape:pageshadow="2"
     inkscape:window-width="1680"
     inkscape:window-height="1005"
     id="namedview9427"
     showgrid="false"
     inkscape:zoom="1.057806"
     inkscape:cx="517.39228"
     inkscape:cy="471.03773"
     inkscape:window-x="0"
     inkscape:window-y="1"
     inkscape:window-maximized="1"
     inkscape:current-layer="svg9425" />
  <defs
     id="defs9343">
    <pattern
       id="pattern2695"
       patternTransform="matrix(1.4955,0,0,16.426,-116.448,-46.716)"
       xlink:href="#Strips1_1" />
    <pattern
       id="Strips1_1"
       width="2"
       height="1"
       patternTransform="translate(0) scale(10)"
       patternUnits="userSpaceOnUse">
      <rect
         y="-.5"
         width="1"
         height="2"
         id="rect9324" />
    </pattern>
    <linearGradient
       id="linearGradient1230">
      <stop
         stop-color="#098aff"
         offset="0"
         id="stop9327" />
      <stop
         stop-color="#ccf2ff"
         offset="1"
         id="stop9329" />
    </linearGradient>
    <marker
       id="marker1161"
       overflow="visible"
       orient="auto">
      <path
         transform="scale(-.6)"
         d="m8.7186 4.0337-10.926-4.0177 10.926-4.0177c-1.7455 2.3721-1.7354 5.6175-6e-7 8.0354z"
         fill-rule="evenodd"
         stroke="#000"
         stroke-linejoin="round"
         stroke-width=".625"
         id="path9332" />
    </marker>
    <marker
       id="Arrow2Mend"
       overflow="visible"
       orient="auto">
      <path
         transform="scale(-.6)"
         d="m8.7186 4.0337-10.926-4.0177 10.926-4.0177c-1.7455 2.3721-1.7354 5.6175-6e-7 8.0354z"
         fill-rule="evenodd"
         stroke="#000"
         stroke-linejoin="round"
         stroke-width=".625"
         id="path9335" />
    </marker>
    <marker
       id="Arrow1Lend"
       overflow="visible"
       orient="auto">
      <path
         transform="matrix(-.8 0 0 -.8 -10 0)"
         d="m0 0 5-5-17.5 5 17.5 5z"
         fill-rule="evenodd"
         stroke="#000"
         stroke-width="1pt"
         id="path9338" />
    </marker>
    <linearGradient
       id="linearGradient1232"
       x1="42.847"
       x2="142.41"
       y1="178.61"
       y2="65.848"
       gradientUnits="userSpaceOnUse"
       xlink:href="#linearGradient1230" />
    <linearGradient
       id="linearGradient2705"
       x1="173.77"
       x2="634.88"
       y1="488.68"
       y2="488.68"
       gradientUnits="userSpaceOnUse"
       xlink:href="#linearGradient1230" />
  </defs>
  <metadata
     id="metadata9345">
    <rdf:RDF>
      <cc:Work
         rdf:about="">
        <dc:format>image/svg+xml</dc:format>
        <dc:type
           rdf:resource="http://purl.org/dc/dcmitype/StillImage" />
        <dc:title />
      </cc:Work>
    </rdf:RDF>
  </metadata>
  <path
     style="opacity:0.47400004;fill:url(#pattern2695);fill-rule:evenodd"
     inkscape:connector-curvature="0"
     id="path9347"
     d="m 47.594,113.834 c 0,0 10.583,-3.0238 16.631,-12.473 6.0476,-9.4494 -1.5119,-15.875 8.6934,-27.214 10.205,-11.339 15.875,3.4018 26.836,-3.4018 10.961,-6.8036 12.473,-18.143 12.473,-18.143 l 11.332,11.395 -63.343,62.007 z" />
  <g
     style="fill:none;stroke:#000000"
     id="g9355"
     transform="translate(-21.198,-46.716)">
    <path
       inkscape:connector-curvature="0"
       id="path9349"
       d="m 68.792,160.55 c 0,0 10.583,-3.0238 16.631,-12.473 6.048,-9.4492 -1.5119,-15.875 8.6935,-27.214 10.205,-11.339 15.875,3.4018 26.836,-3.4018 10.961,-6.8036 12.473,-18.143 12.473,-18.143" />
    <path
       style="stroke-width:0.5"
       inkscape:connector-curvature="0"
       id="path9351"
       d="m 51.405,107.07 -11.717,0.75595 9.6384,6.0476" />
    <path
       style="stroke-width:0.26458001px"
       inkscape:connector-curvature="0"
       id="path9353"
       d="m 48.643,107.27 c 0,0 0.78085,1.3322 0.29531,3.107 -0.48554,1.7748 -1.3978,2.2718 -1.3978,2.2718" />
  </g>
  <ellipse
     style="fill:#ffffff;stroke:#141414;stroke-linecap:round"
     id="ellipse9357"
     ry="0.56795001"
     rx="0.23386"
     cy="63.163998"
     cx="27.245001" />
  <g
     id="g9369"
     transform="translate(-21.198,-46.716)">
    <path
       style="fill:none;stroke:#000000;stroke-width:0.5;stroke-dasharray:0.5, 1;marker-end:url(#Arrow2Mend)"
       inkscape:connector-curvature="0"
       id="path9359"
       d="m 49.846,110.18 27.729,6.214" />
    <path
       style="fill:none;stroke:#000000;stroke-width:0.25;marker-end:url(#marker1161)"
       inkscape:connector-curvature="0"
       id="path9361"
       d="M 94.589,120.11 80.32,108.109" />
    <text
       id="text9367"
       xml:space="preserve"
       style="font-weight:bold;font-size:4.23330021px;line-height:125%;font-family:Times;letter-spacing:0px;word-spacing:0px;fill:#000000;stroke-width:0.26458001px"
       word-spacing="0px"
       letter-spacing="0px"
       font-weight="bold"
       font-size="4.2333px"
       y="107.08597"
       x="76.540031"><tspan
         style="stroke-width:0.26458001px"
         id="tspan9365"
         y="107.08597"
         x="76.540031"><tspan
           style="stroke-width:0.26458001px"
           id="tspan9363"
           y="107.08597"
           x="76.540031">N</tspan></tspan></text>
  </g>
  <g
     style="fill:none"
     id="g9381"
     transform="translate(-21.198,-46.716)">
    <path
       style="stroke:#000000;stroke-width:0.25;stroke-dasharray:0.75000002, 0.75000002"
       inkscape:connector-curvature="0"
       id="path9371"
       d="M 154.43,52.241 34.29,188.231" />
    <g
       id="g9379">
      <path
         inkscape:connector-curvature="0"
         style="stroke:url(#linearGradient1232);stroke-width:2;stroke-linecap:round"
         id="path9373"
         d="M 142.41,65.848 C 129.206,54.186 112.202,47.74 94.586,47.717 c -39.98,3.3e-5 -72.391,32.411 -72.39,72.391 0.0257,20.714 8.9241,40.426 24.443,54.146" />
      <path
         inkscape:connector-curvature="0"
         style="stroke:url(#linearGradient2705);stroke-width:7.55910015"
         id="path9375"
         d="m 176.28,658.59 c 49.963,44.336 114.42,68.863 181.22,68.957 151.11,-1.3e-4 273.6,-122.5 273.6,-273.6 -0.0907,-78.514 -33.907,-153.21 -92.848,-205.08"
         transform="scale(0.26458)" />
      <path
         style="stroke:#ffce37;stroke-width:2;stroke-linecap:square"
         inkscape:connector-curvature="0"
         id="path9377"
         d="m 156.18,82.155 c -1.9769,-3.2013 -4.2093,-6.2543 -6.6802,-9.1307" />
    </g>
  </g>
  <rect
     style="fill:#ffffff;stroke:#000000;stroke-width:0.5;stroke-linecap:square"
     id="rect9383"
     height="35.547001"
     width="66.282997"
     y="19.112003"
     x="150.662" />
  <g
     style="fill:none;stroke:#ff0000;stroke-width:2"
     id="g9395"
     transform="matrix(0.54805,0,0,0.54805,46.716,-41.5665)">
    <path
       inkscape:connector-curvature="0"
       id="path9391"
       d="m 160.36,119.8 9.6217,10.156" />
    <path
       inkscape:connector-curvature="0"
       id="path9393"
       d="m 169.98,119.8 -9.6217,10.156" />
  </g>
  <path
     d="M 180.812,18.887 C 166.5618,5.1164527 134.52397,-5.3757595 103.26149,3.7517126"
     id="path9397"
     inkscape:connector-curvature="0"
     style="fill:none;stroke:#000000;stroke-width:0.2500363;stroke-miterlimit:4;stroke-dasharray:none;marker-end:url(#Arrow1Lend)"
     sodipodi:nodetypes="cc" />
  <path
     d="M 67.092196,1.8598122 C 29.99808,5.0313327 1.494877,36.054131 1.4710648,73.285829 1.4708748,112.90139 33.585785,145.01611 73.201349,145.01611 112.81691,145.01602 144.93163,112.90139 144.93163,73.285829 144.93057,44.48365 127.70139,18.475436 101.18068,7.2387236"
     id="path9399"
     inkscape:connector-curvature="0"
     style="fill:none;stroke:#020000;stroke-width:1.01119828;stroke-linecap:square" />
  <path
     d="m 73.391,73.394 c 0,0 -3.6101,-20.432 -2.6976,-28.706 0.9125,-8.274 4.7851,-13.352 9.6628,-12.417 4.8777,0.935 6.3275,7.3768 4.9034,14.889 -1.4241,7.512 -11.869,26.234 -11.869,26.234 z"
     id="path9401"
     inkscape:connector-curvature="0"
     style="fill:none;stroke:#000000;stroke-width:0.26458001px" />
  <text
     id="text9421"
     xml:space="preserve"
     style="font-size:6.3499999px;line-height:125%;font-family:sans-serif;letter-spacing:0px;word-spacing:0px;fill:#000000;stroke-width:0.26458001px"
     word-spacing="0px"
     letter-spacing="0px"
     font-size="6.35px"
     y="27.327999"
     x="155.04596"><tspan
       id="tspan9407"
       y="27.327999"
       x="155.04596"><tspan
         style="stroke-width:0.26458001px"
         id="tspan9405"
         y="27.327999"
         x="155.04596">A smooth BSDF </tspan></tspan><tspan
       id="tspan9411"
       y="35.265499"
       x="155.04596"><tspan
         style="stroke-width:0.26458001px"
         id="tspan9409"
         y="35.265499"
         x="155.04596">might limit the </tspan></tspan><tspan
       id="tspan9415"
       y="43.202999"
       x="155.04596"><tspan
         style="stroke-width:0.26458001px"
         id="tspan9413"
         y="43.202999"
         x="155.04596">environment to a </tspan></tspan><tspan
       id="tspan9419"
       y="51.140499"
       x="155.04596"><tspan
         style="stroke-width:0.26458001px"
         id="tspan9417"
         y="51.140499"
         x="155.04596">very small part.</tspan></tspan></text>
  <g
     style="fill:none;stroke:#ff0000;stroke-width:2"
     id="g9389"
     transform="translate(-20.1397,-48.8327)">
    <path
       inkscape:connector-curvature="0"
       id="path9385"
       d="m 160.36,119.8 9.6217,10.156" />
    <path
       inkscape:connector-curvature="0"
       id="path9387"
       d="m 169.98,119.8 -9.6217,10.156" />
  </g>
</svg>
